<svg width="62" height="37" viewBox="0 0 62 37" xmlns="http://www.w3.org/2000/svg"><title>delivery-truck (4)</title><g fill-rule="evenodd"><path d="M11.37 6.02H3.635a.99.99 0 1 0 0 1.98h7.733a.99.99 0 1 0 0-1.98zm.66 13.86H4.958a.99.99 0 1 0 0 1.98h7.072a.99.99 0 1 0 0-1.98zm-2.644-5.94H.992a.99.99 0 1 0 0 1.98h8.394a.99.99 0 1 0 0-1.98zm0 13.86h-.813a.99.99 0 1 0 0 1.98h.813a.99.99 0 1 0 0-1.98zm-4.118 0H.992a.99.99 0 1 0 0 1.98h4.276a.99.99 0 1 0 0-1.98zM51.8 2.79h-8.404V1.01a.99.99 0 0 0-.991-.99h-15.37a.99.99 0 1 0 0 1.98h14.378v21.685a.99.99 0 0 0 1.983 0V4.77H51.8c4.53 0 8.217 3.68 8.217 8.203V29.72h-2.521a6.286 6.286 0 0 0-6.2-5.28 6.286 6.286 0 0 0-6.201 5.28h-1.699v-1.417a.99.99 0 0 0-1.983 0v1.417H30.89a6.286 6.286 0 0 0-6.2-5.28 6.286 6.286 0 0 0-6.202 5.28h-2.062V1.999h6.642a.99.99 0 1 0 0-1.98h-7.633a.99.99 0 0 0-.992.99V30.71c0 .547.444.99.992.99h3.053a6.286 6.286 0 0 0 6.201 5.28 6.286 6.286 0 0 0 6.2-5.28h14.206a6.286 6.286 0 0 0 6.2 5.28 6.286 6.286 0 0 0 6.2-5.28h3.513a.99.99 0 0 0 .992-.99V12.974C62 7.36 57.425 2.791 51.8 2.791zM24.69 35.002a4.298 4.298 0 0 1-4.297-4.29 4.298 4.298 0 0 1 4.296-4.29 4.298 4.298 0 0 1 4.297 4.29A4.298 4.298 0 0 1 24.689 35zm26.605 0A4.298 4.298 0 0 1 47 30.711v-.001a4.298 4.298 0 0 1 4.296-4.29 4.298 4.298 0 0 1 4.297 4.29 4.298 4.298 0 0 1-4.297 4.291z"/><path d="M51.8 6.751h-5.43a.99.99 0 0 0-.99.99v9.307c0 .547.443.99.99.99h10.672a.99.99 0 0 0 .992-.99v-4.074c0-3.431-2.796-6.223-6.234-6.223zm4.25 9.307h-8.688V8.73H51.8a4.251 4.251 0 0 1 4.25 4.243v3.084zm-31.36 12.1a2.557 2.557 0 0 0-2.557 2.553 2.557 2.557 0 0 0 5.112 0 2.557 2.557 0 0 0-2.556-2.553zm0 3.125a.573.573 0 1 1 0-1.147.573.573 0 0 1 0 1.147zm26.605-3.125a2.557 2.557 0 0 0-2.556 2.553 2.557 2.557 0 0 0 5.113 0 2.557 2.557 0 0 0-2.557-2.553zm0 3.125a.573.573 0 1 1 0-1.147.573.573 0 0 1 0 1.147zm5.747-10.539a.99.99 0 0 0-.991.99v2.508a.99.99 0 0 0 1.983 0v-2.508a.99.99 0 0 0-.992-.99z"/></g></svg>