<svg width="48" height="48" viewBox="0 0 48 48" xmlns="http://www.w3.org/2000/svg"><title>florist</title><g fill-rule="evenodd"><path d="M16.2 31.358a.807.807 0 0 0-1.11-.272 6.772 6.772 0 0 0-3.27 5.825v.592a.81.81 0 0 0 .81.812.81.81 0 0 0 .808-.812v-.592c0-1.828.931-3.487 2.49-4.437a.814.814 0 0 0 .272-1.116zm19.938 12.546a.81.81 0 0 0-.81.812v1.602H12.63a.81.81 0 0 0-.81.812.81.81 0 0 0 .81.812h23.508a.81.81 0 0 0 .808-.812v-2.414a.81.81 0 0 0-.808-.812zm-2.461-12.818a.807.807 0 0 0-1.111.272.814.814 0 0 0 .272 1.116 5.16 5.16 0 0 1 2.491 4.437v5.099a.81.81 0 0 0 .809.812.81.81 0 0 0 .809-.812v-5.1c0-2.4-1.223-4.578-3.27-5.825zm-4.535 2.48a.81.81 0 0 0-.809.812c0 2.186-1.772 3.965-3.95 3.965-2.177 0-3.95-1.779-3.95-3.965a.81.81 0 0 0-.808-.812.81.81 0 0 0-.809.812c0 3.082 2.498 5.589 5.568 5.589 3.07 0 5.567-2.507 5.567-5.59a.81.81 0 0 0-.809-.811z"/><path d="M12.231 38.997c-.986 0-1.869.453-2.453 1.162l-1.173-2.436 2.529-5.247a.813.813 0 0 0-.376-1.085.807.807 0 0 0-1.08.377L7.706 35.86l-1.971-4.09a.807.807 0 0 0-1.08-.377.813.813 0 0 0-.376 1.084l2.529 5.248-1.174 2.435a3.171 3.171 0 0 0-2.453-1.162A3.19 3.19 0 0 0 0 42.19a3.191 3.191 0 0 0 3.181 3.194 3.16 3.16 0 0 0 2.181-.871c.57-.54 2.344-4.925 2.344-4.925s1.58 3.925 1.886 4.382a3.176 3.176 0 0 0 2.64 1.414 3.191 3.191 0 0 0 3.18-3.194 3.19 3.19 0 0 0-3.18-3.193zm-9.05 4.763a1.569 1.569 0 0 1-1.564-1.57c0-.865.702-1.57 1.564-1.57a1.57 1.57 0 0 1 0 3.14zm9.05 0a1.569 1.569 0 0 1-1.563-1.57c0-.865.701-1.57 1.564-1.57.862 0 1.563.705 1.563 1.57 0 .866-.701 1.57-1.563 1.57zM38.96 18.932A3.338 3.338 0 0 0 36 15.615l-.072-.745c.038-.209.052-.424.036-.642l-.168-3.558-.003-.024h.003l-.35-4.569a4.862 4.862 0 0 0-3.792-4.399l-7.093-1.6-.03-.005a.741.741 0 0 0-.145-.015h-.002a.803.803 0 0 0-.146.015l-.032.005-7.093 1.6a4.862 4.862 0 0 0-3.79 4.399l-.351 4.569h.001l-.003.024-.168 3.558c-.015.217-.002.432.037.64l-.072.747a3.337 3.337 0 0 0-2.962 3.317 3.33 3.33 0 0 0 2.349 3.193 9.054 9.054 0 0 0 3.688 7.676l4.427 3.228a6.967 6.967 0 0 0 8.23 0l4.426-3.228a9.055 9.055 0 0 0 3.687-7.677 3.33 3.33 0 0 0 2.349-3.192zm-26.657 1.5a1.715 1.715 0 0 1 .301-3.13l-.301 3.13zM31.3 3.262a3.249 3.249 0 0 1 2.533 2.94l.266 3.468a44.782 44.782 0 0 0-1.972-.386l-.162-3.186c-.055-1.096-.364-2.096-.85-2.877l.185.042zm-6.107-1.258l3.615 1.235c.821.28 1.47 1.517 1.541 2.941l.145 2.851a45.563 45.563 0 0 0-5.301-.403V2.004zM18.418 6.18c.072-1.423.72-2.66 1.54-2.941l3.617-1.235v6.624a45.608 45.608 0 0 0-5.302.403l.145-2.85zm-3.483.021a3.249 3.249 0 0 1 2.533-2.938l.185-.042c-.486.78-.795 1.78-.85 2.876l-.163 3.186c-.66.114-1.317.243-1.971.386l.266-3.468zm-.519 8.14a.54.54 0 0 0 .002-.025l.139-2.959a43.917 43.917 0 0 1 19.652 0l.14 2.959.001.024a.863.863 0 0 1-.417.817.848.848 0 0 1-.906-.002 16.375 16.375 0 0 0-8.644-2.46c-3.062 0-6.051.851-8.644 2.46a.849.849 0 0 1-.906.002.863.863 0 0 1-.417-.817zm17.558 14.147l-4.426 3.228a5.353 5.353 0 0 1-6.329 0l-4.426-3.228a7.421 7.421 0 0 1-2.997-6.682l.491-5.107a2.464 2.464 0 0 0 2.303-.163 14.764 14.764 0 0 1 7.793-2.217c2.762 0 5.457.767 7.793 2.217.704.437 1.56.491 2.303.163l.465 4.834.026.273a7.422 7.422 0 0 1-2.996 6.682zm4.489-8.056l-.301-3.13a1.715 1.715 0 0 1 .3 3.13z"/><path d="M28.003 25.995a.806.806 0 0 0-1.143 0 3.473 3.473 0 0 1-2.477 1.03 3.473 3.473 0 0 1-2.477-1.03.806.806 0 0 0-1.143 0 .814.814 0 0 0 0 1.148 5.077 5.077 0 0 0 3.62 1.506 5.077 5.077 0 0 0 3.62-1.506.814.814 0 0 0 0-1.148zm-8.42-7.152a.81.81 0 0 0-.81.812v1.299a.81.81 0 0 0 .81.812.81.81 0 0 0 .808-.812v-1.299a.81.81 0 0 0-.808-.812zM31.605 16.7a3.418 3.418 0 0 0-4.842 0 .814.814 0 0 0 0 1.147.806.806 0 0 0 1.143 0 1.804 1.804 0 0 1 2.555 0 .804.804 0 0 0 1.144 0 .814.814 0 0 0 0-1.148zm-9.601 0a3.395 3.395 0 0 0-2.421-1.008c-.915 0-1.775.358-2.421 1.007a.814.814 0 0 0 0 1.148.806.806 0 0 0 1.143 0 1.791 1.791 0 0 1 1.278-.53c.482 0 .936.188 1.277.53a.805.805 0 0 0 1.143 0 .814.814 0 0 0 0-1.148zm7.18 2.143a.81.81 0 0 0-.81.812v1.299a.81.81 0 0 0 .81.812.81.81 0 0 0 .808-.812v-1.299a.81.81 0 0 0-.808-.812zm-3.561-.812a.81.81 0 0 0-.809.812v3.464a.433.433 0 0 1-.43.433.433.433 0 0 1-.432-.433v-3.464a.81.81 0 0 0-.81-.812.81.81 0 0 0-.808.812v3.464c0 1.135.92 2.057 2.05 2.057a2.055 2.055 0 0 0 2.048-2.057v-3.464a.81.81 0 0 0-.809-.812zM12.291 2.628a.807.807 0 0 0-1.134-.15l-.947.73-.645.449-.124-1.065a.806.806 0 0 0-1.018-.689l-1.506.416L5.27 1.9a.807.807 0 0 0-1.002.693l-.124 1.065-.646-.45-.947-.73a.807.807 0 0 0-1.134.151.814.814 0 0 0 .15 1.138l.646.498v5.78a4.661 4.661 0 0 0 3.833 4.587v2.69l-.34-.211a.807.807 0 0 0-1.113.265.814.814 0 0 0 .264 1.117l1.189.736v10.264a.81.81 0 0 0 .808.812.81.81 0 0 0 .81-.812v-4.21l1.16-1.165a.814.814 0 0 0 0-1.148.806.806 0 0 0-1.144 0l-.017.016v-8.354a4.661 4.661 0 0 0 3.833-4.588V4.265l.645-.498a.814.814 0 0 0 .15-1.138zM9.878 5.415v2.24l-1.606-1.12 1.606-1.12zm-4.11-1.713l.958.244a.808.808 0 0 0 .414-.004l.804-.222.114.987-1.204.84-1.203-.84.117-1.005zm4.11 6.341a3.033 3.033 0 0 1-3.023 3.036 3.033 3.033 0 0 1-3.025-3.036V5.415l.489.34.019.014 5.54 3.863v.411zM46.485 29.44a3.86 3.86 0 0 0 0-.435 2.68 2.68 0 0 0 .737-4.3 2.638 2.638 0 0 0-1.88-.782c-.711 0-1.379.278-1.881.783a2.661 2.661 0 0 0-.521.74 3.818 3.818 0 0 0-.433 0 2.66 2.66 0 0 0-2.401-1.523c-.71 0-1.379.278-1.881.783a2.68 2.68 0 0 0 0 3.776c.218.219.466.393.737.523-.008.145-.008.29 0 .434-.27.13-.52.304-.737.523a2.68 2.68 0 0 0 0 3.776c.52.52 1.2.78 1.882.78a2.645 2.645 0 0 0 2.4-1.52 3.77 3.77 0 0 0 .433 0 2.663 2.663 0 0 0 2.4 1.52 2.65 2.65 0 0 0 1.882-.78 2.68 2.68 0 0 0 0-3.776 2.658 2.658 0 0 0-.737-.523zm-7.117-3.586c.197-.198.46-.307.737-.307a1.033 1.033 0 0 1 .79.365 3.76 3.76 0 0 0-1.469 1.475 1.05 1.05 0 0 1-.058-1.533zm1.474 6.736a1.04 1.04 0 0 1-1.473 0 1.05 1.05 0 0 1 .057-1.534 3.769 3.769 0 0 0 1.47 1.476 1.12 1.12 0 0 1-.054.058zm.36-1.84a2.17 2.17 0 0 1 0-3.057c.419-.42.97-.632 1.521-.632.552 0 1.103.211 1.523.632a2.17 2.17 0 0 1 0 3.057 2.15 2.15 0 0 1-3.045 0zm4.876 1.84a1.04 1.04 0 0 1-1.527-.058 3.76 3.76 0 0 0 1.47-1.475 1.05 1.05 0 0 1 .057 1.533zm0-5.256a1.059 1.059 0 0 1-.057.053 3.773 3.773 0 0 0-1.47-1.475 1.033 1.033 0 0 1 .79-.365c.279 0 .54.109.737.307a1.05 1.05 0 0 1 0 1.48z"/><path d="M46.929 35.965h-.77a4.21 4.21 0 0 0-2.627.918v-1.946a.81.81 0 0 0-.809-.812.81.81 0 0 0-.808.812v9.31a.81.81 0 0 0 .808.812.81.81 0 0 0 .81-.812V41.81c2.322-.02 4.205-1.923 4.205-4.26v-.773a.81.81 0 0 0-.81-.812zm-3.397 4.222a2.635 2.635 0 0 1 2.588-2.597 2.635 2.635 0 0 1-2.588 2.597z"/><ellipse cx="42.723" cy="29.222" rx=".809" ry=".812"/></g></svg>