<svg width="32" height="49" viewBox="0 0 32 49" xmlns="http://www.w3.org/2000/svg"><title>flowers</title><g fill-rule="evenodd"><path d="M22.671 38.946h-1.667a.788.788 0 0 0-.782.794c0 .438.35.793.782.793h1.667a.788.788 0 0 0 .782-.793.788.788 0 0 0-.782-.794zm4.826-11.001a.784.784 0 0 0-.867.696l-.49 4.233a.791.791 0 0 0 .776.886c.391 0 .73-.297.776-.7l.49-4.234a.79.79 0 0 0-.685-.881z"/><path d="M31.741 24.82a.776.776 0 0 0-.584-.267h-.2v-9.366C30.958 6.813 24.248 0 16 0 7.752 0 1.042 6.813 1.042 15.187v9.366H.843a.776.776 0 0 0-.584.266.801.801 0 0 0-.192.62l1.144 9.872a2.08 2.08 0 0 0 .97 1.534 2.501 2.501 0 0 0-.305 1.201c0 .654.25 1.25.658 1.694a2.498 2.498 0 0 0-.658 1.693c0 .709.294 1.349.764 1.802a2.103 2.103 0 0 0-.347 1.418l.25 2.15C2.686 48.056 3.732 49 4.974 49h22.05c1.242 0 2.288-.944 2.433-2.197l.249-2.15a2.103 2.103 0 0 0-.347-1.418c.47-.453.764-1.093.764-1.802 0-.654-.25-1.249-.658-1.693.408-.445.658-1.04.658-1.694a2.5 2.5 0 0 0-.306-1.2 2.08 2.08 0 0 0 .971-1.534l1.144-9.873a.801.801 0 0 0-.192-.62zM2.606 15.186c0-7.499 6.008-13.6 13.394-13.6s13.394 6.101 13.394 13.6v9.366H24.35a3.46 3.46 0 0 0 .283-.584 3.26 3.26 0 0 0 3.386-1.612c.7-1.23.535-2.738-.318-3.784a3.368 3.368 0 0 0 .318-3.783 3.26 3.26 0 0 0-3.386-1.612c-.466-1.273-1.67-2.172-3.068-2.172-.721 0-1.39.24-1.933.646a3.36 3.36 0 0 0-.238-2.789 3.26 3.26 0 0 0-3.387-1.612c-.465-1.273-1.67-2.171-3.068-2.171-1.399 0-2.603.898-3.068 2.171a3.26 3.26 0 0 0-3.386 1.612 3.368 3.368 0 0 0 .318 3.784 3.368 3.368 0 0 0-.318 3.783c.18.318.412.601.682.84-.02.047-.04.093-.057.141a3.26 3.26 0 0 0-3.386 1.612 3.368 3.368 0 0 0 .318 3.784 3.364 3.364 0 0 0-.735 1.746h-.7v-9.366zm4.998 5.53a3.368 3.368 0 0 0 .318 3.783l-.04.054-.025-.001H4.89c.097-.435.356-.827.74-1.082a.797.797 0 0 0 .354-.664.797.797 0 0 0-.354-.664 1.758 1.758 0 0 1-.553-2.326 1.702 1.702 0 0 1 2.26-.677.772.772 0 0 0 .743-.02.795.795 0 0 0 .39-.644c.051-.924.8-1.649 1.707-1.649.699 0 1.316.437 1.577 1.076a3.342 3.342 0 0 0-.763 1.201 3.26 3.26 0 0 0-3.387 1.613zm.787-8.734a1.758 1.758 0 0 1-.553-2.326 1.702 1.702 0 0 1 2.26-.676c.236.12.515.112.743-.021a.795.795 0 0 0 .39-.643c.051-.925.801-1.65 1.707-1.65s1.656.725 1.707 1.65a.795.795 0 0 0 .39.643.772.772 0 0 0 .743.02 1.702 1.702 0 0 1 2.26.677c.454.797.21 1.819-.553 2.326a.797.797 0 0 0-.141 1.207c-.91.172-1.74.73-2.235 1.6a3.347 3.347 0 0 0-.39 2.214 3.208 3.208 0 0 0-1.617.076 3.276 3.276 0 0 0-2.925-1.84c-.783 0-1.505.282-2.07.753a1.758 1.758 0 0 1 .285-2.682.797.797 0 0 0 .353-.664.797.797 0 0 0-.354-.664zm1.12 11.853a1.758 1.758 0 0 1-.553-2.326 1.702 1.702 0 0 1 2.26-.676c.236.12.515.113.744-.021a.795.795 0 0 0 .39-.643c.05-.925.8-1.65 1.707-1.65.906 0 1.656.725 1.707 1.65a.79.79 0 0 0 .39.643.771.771 0 0 0 .743.02 1.702 1.702 0 0 1 2.26.677c.453.797.21 1.819-.553 2.326a.797.797 0 0 0-.354.664c0 .268.133.518.354.664a1.758 1.758 0 0 1 .553 2.326 1.702 1.702 0 0 1-2.26.676.772.772 0 0 0-.744.021.795.795 0 0 0-.39.643c-.05.925-.8 1.65-1.706 1.65-.907 0-1.657-.725-1.708-1.65a.795.795 0 0 0-.39-.643.772.772 0 0 0-.742-.02 1.702 1.702 0 0 1-2.26-.677 1.758 1.758 0 0 1 .552-2.326.797.797 0 0 0 .354-.664.797.797 0 0 0-.354-.664zm10.942.297a3.366 3.366 0 0 0 .13-3.281c.3.134.632.208.98.208a2.45 2.45 0 0 0 2.121-1.242.8.8 0 0 0-.285-1.084.776.776 0 0 0-1.068.289.887.887 0 0 1-.767.45.894.894 0 0 1-.886-.9c0-.496.397-.9.886-.9a.788.788 0 0 0 .781-.793.788.788 0 0 0-.781-.794c-1.351 0-2.45 1.116-2.45 2.487 0 .322.061.63.171.912a3.25 3.25 0 0 0-2.111-.387.793.793 0 0 0-.158-1.189 1.758 1.758 0 0 1-.553-2.325 1.702 1.702 0 0 1 2.26-.677.774.774 0 0 0 .744-.02.795.795 0 0 0 .39-.644c.05-.925.8-1.649 1.707-1.649.906 0 1.656.724 1.707 1.65a.79.79 0 0 0 .39.642.771.771 0 0 0 .742.021 1.702 1.702 0 0 1 2.26.677 1.756 1.756 0 0 1-.552 2.325.797.797 0 0 0-.354.664c0 .268.133.518.354.665a1.758 1.758 0 0 1 .553 2.325 1.702 1.702 0 0 1-2.26.677.772.772 0 0 0-.744.02.795.795 0 0 0-.39.644c-.05.924-.8 1.649-1.706 1.649a1.69 1.69 0 0 1-1.11-.42zm8.784 10.993a.486.486 0 0 1-.48.433h-2.75a.788.788 0 0 0-.782.794c0 .439.35.794.782.794h1.667c.489 0 .886.403.886.9a.894.894 0 0 1-.886.899h-1.667a.788.788 0 0 0-.782.794c0 .438.35.793.782.793h1.667c.489 0 .886.404.886.9s-.397.9-.886.9h-1.667a.788.788 0 0 0-.782.793c0 .439.35.794.782.794h1.667a.49.49 0 0 1 .48.548l-.249 2.15a.891.891 0 0 1-.88.795H4.975a.891.891 0 0 1-.88-.795l-.25-2.15a.49.49 0 0 1 .48-.548h18.346a.788.788 0 0 0 .782-.794.788.788 0 0 0-.782-.793H4.326a.894.894 0 0 1-.886-.9c0-.496.397-.9.886-.9h13.341a.788.788 0 0 0 .782-.793.788.788 0 0 0-.782-.794H4.326a.894.894 0 0 1-.886-.9c0-.496.397-.9.886-.9H22.67a.788.788 0 0 0 .782-.793.788.788 0 0 0-.782-.794H3.243a.486.486 0 0 1-.48-.433l-1.04-8.986h5.481a3.345 3.345 0 0 0 .4 2.143 3.26 3.26 0 0 0 3.385 1.612c.466 1.274 1.67 2.172 3.069 2.172 1.398 0 2.602-.898 3.068-2.172a3.26 3.26 0 0 0 3.386-1.612 3.344 3.344 0 0 0 .4-2.143h9.365l-1.041 8.986z"/><path d="M14.059 26.987a2.45 2.45 0 0 0 2.12-1.242.8.8 0 0 0-.284-1.085.776.776 0 0 0-1.069.29.887.887 0 0 1-.767.45.894.894 0 0 1-.886-.9c0-.496.397-.9.886-.9a.788.788 0 0 0 .781-.793.788.788 0 0 0-.781-.794c-1.35 0-2.45 1.116-2.45 2.487s1.099 2.487 2.45 2.487zm-1.121-11.853c.871 0 1.684-.476 2.121-1.242a.8.8 0 0 0-.285-1.085.776.776 0 0 0-1.068.29.888.888 0 0 1-.768.45.894.894 0 0 1-.886-.9c0-.496.398-.9.886-.9a.788.788 0 0 0 .782-.793.788.788 0 0 0-.782-.794c-1.35 0-2.45 1.116-2.45 2.487s1.1 2.487 2.45 2.487z"/></g></svg>