<svg xmlns="http://www.w3.org/2000/svg" width="18" height="18" viewBox="0 0 18 18"><title>Shape</title><path d="M18 11.52V4.49c0-.32-.26-.58-.59-.58H3.91V1.76C3.91.79 3.12 0 2.15 0H.59a.585.585 0 1 0 0 1.17h1.56c.33 0 .59.26.59.59v12.79a1.754 1.754 0 0 0 .59 3.41c.76 0 1.41-.48 1.66-1.17h9.59c.24.69.89 1.17 1.66 1.17a1.754 1.754 0 1 0 0-3.51c-.77 0-1.42.49-1.66 1.17H4.99c-.18-.5-.58-.89-1.08-1.07v-1.27h12.33c.97 0 1.76-.79 1.76-1.76zM3.91 5.08h12.92v6.44c0 .32-.27.59-.59.59H3.91zm12.33 10.54c.32 0 .59.26.59.59 0 .32-.27.58-.59.58-.32 0-.59-.26-.59-.58 0-.33.27-.59.59-.59zM3.33 16.79z" fill="#4c4c4c"/><path d="M5.59 6c-.33 0-.59.26-.59.59v3.51c0 .32.26.59.59.59.32 0 .58-.27.58-.59V6.59c0-.33-.26-.59-.58-.59zm2 0c-.33 0-.59.26-.59.59v3.51c0 .32.26.59.59.59.32 0 .58-.27.58-.59V6.59c0-.33-.26-.59-.58-.59zm3 0c-.33 0-.59.26-.59.59v3.51c0 .32.26.59.59.59.32 0 .58-.27.58-.59V6.59c0-.33-.26-.59-.58-.59zm2 0c-.33 0-.59.26-.59.59v3.51c0 .32.26.59.59.59.32 0 .58-.27.58-.59V6.59c0-.33-.26-.59-.58-.59zm2 0c-.33 0-.59.26-.59.59v3.51c0 .32.26.59.59.59.32 0 .58-.27.58-.59V6.59c0-.33-.26-.59-.58-.59z" fill="#4c4c4c"/></svg>