<svg height="23" width="46" xmlns="http://www.w3.org/2000/svg" viewBox="0 0 46 23"><path fill="#ccc" fill-rule="evenodd" d="M44.93 18.59h-4.11c0-2.6-2.15-4.7-4.79-4.7s-4.78 2.1-4.78 4.7H11.51c0-2.6-2.14-4.7-4.78-4.7s-4.79 2.1-4.79 4.7H1.3v-1.43l-.8-.86v-3.13l.8-1.05v-1.38l-.5-.37V8l.5-.36v-.92L0 5.7l1.3-.81C10.06-1 25.8.1 25.8.1c3.72 0 10.82 8.41 10.82 8.41s4.06.67 6.72 2.24c2.66 1.57 1.59 7.84 1.59 7.84zM18.13 1.93S8.93 2.24 5.52 8h12.61V1.93zm8.1.14h-6.32v5.91h13.31s-4.74-5.91-6.99-5.91zm17.18 9.56H41.2V13h2.21v-1.37zM6.82 14.18c2.47 0 4.48 1.98 4.48 4.41 0 .13-.03.26-.04.39h19.69v1.37h-19.7v-1.33C11.03 21.25 9.14 23 6.82 23c-2.48 0-4.49-1.98-4.49-4.41s2.01-4.41 4.49-4.41zm0 7.84c1.91 0 3.48-1.54 3.48-3.43 0-1.89-1.56-3.43-3.48-3.43-1.93 0-3.49 1.54-3.49 3.43 0 1.89 1.56 3.43 3.49 3.43zm29.28-7.84c2.47 0 4.48 1.98 4.48 4.41S38.57 23 36.1 23c-2.47 0-4.49-1.98-4.49-4.41s2.02-4.41 4.49-4.41zm0 7.84c1.92 0 3.48-1.54 3.48-3.43 0-1.89-1.56-3.43-3.48-3.43s-3.49 1.54-3.49 3.43c0 1.89 1.57 3.43 3.49 3.43z"/></svg>