<svg xmlns="http://www.w3.org/2000/svg" width="20" height="20" viewBox="0 0 20 20"><title>WhatsApp</title><path d="M20 9.74c0 5.38-4.4 9.74-9.82 9.74-1.72 0-3.34-.44-4.74-1.21L0 20l1.77-5.23A9.684 9.684 0 0 1 .36 9.74C.36 4.36 4.76 0 10.18 0 15.61 0 20 4.36 20 9.74zm-9.82-8.19c-4.55 0-8.25 3.68-8.25 8.19 0 1.79.58 3.45 1.57 4.8l-1.03 3.05 3.17-1.01c1.3.85 2.87 1.35 4.54 1.35 4.55 0 8.26-3.67 8.26-8.19 0-4.51-3.71-8.19-8.26-8.19zm4.96 10.44c-.06-.1-.22-.16-.46-.28-.24-.12-1.43-.7-1.65-.78-.22-.08-.38-.12-.54.12-.16.24-.62.78-.76.94-.14.16-.28.18-.52.06s-1.02-.38-1.94-1.19c-.71-.63-1.2-1.41-1.34-1.65-.14-.24-.01-.37.11-.49.11-.11.24-.28.36-.42.12-.14.16-.24.24-.4.08-.16.04-.29-.02-.41s-.54-1.3-.74-1.78c-.2-.47-.4-.4-.54-.4s-.3-.02-.46-.02c-.16 0-.42.06-.65.3-.22.24-.84.82-.84 2 0 1.17.86 2.31.99 2.46.12.16 1.66 2.65 4.11 3.61 2.44.96 2.44.64 2.88.6.45-.04 1.43-.58 1.63-1.14.2-.56.2-1.03.14-1.13z" fill="#bdbdbd"/></svg>