<svg xmlns="http://www.w3.org/2000/svg" width="27.834" height="27.834" viewBox="0 0 27.834 27.834"><path d="M9.258 23.087v-2.576H6.991v-2.284h2.267v-1.279H6.991V14.66h2.267V6.69H16.8c1.894 0 3.164.374 3.892 1.143.72.763 1.07 2.098 1.07 4.08 0 1.913-.367 3.198-1.123 3.932-.75.729-2.07 1.085-4.031 1.085l-.681.012h-2.046l-.195.004h-1.868v1.279h2.263v2.286h-2.263v2.576h-2.56zm6.33-8.435c2.057 0 2.83-.25 3.119-.459.261-.19.572-.717.572-2.146 0-1.843-.254-2.425-.405-2.607-.142-.169-.595-.454-2.052-.454l-.682-.012h-4.324v5.677h3.772v.001zm-1.671 13.182C6.244 27.834 0 21.591 0 13.917S6.243 0 13.917 0s13.917 6.243 13.917 13.917-6.244 13.917-13.917 13.917zm0-24.833C7.897 3.001 3 7.898 3 13.918c0 6.021 4.897 10.917 10.917 10.917 6.021 0 10.917-4.896 10.917-10.917 0-6.02-4.896-10.917-10.917-10.917z"/></svg>