<svg id="SvgjsSvg1008" xmlns="http://www.w3.org/2000/svg" version="1.1" xmlns:xlink="http://www.w3.org/1999/xlink" xmlns:svgjs="http://svgjs.com/svgjs" width="18" height="18" viewBox="0 0 18 18"><title>Shape</title><desc>Created with Avocode.</desc><defs id="SvgjsDefs1009"></defs><path id="SvgjsPath1010" d="M1517 72.52V65.49C1517 65.17 1516.74 64.91 1516.41 64.91H1502.91V62.76C1502.91 61.79 1502.1200000000001 61 1501.15 61H1499.5900000000001C1499.2600000000002 61 1499.0000000000002 61.26 1499.0000000000002 61.59C1499.0000000000002 61.910000000000004 1499.2600000000002 62.17 1499.5900000000001 62.17H1501.15C1501.48 62.17 1501.74 62.43 1501.74 62.760000000000005C1501.74 63.34 1501.74 74.98 1501.74 75.55000000000001C1501.06 75.79 1500.57 76.44000000000001 1500.57 77.21000000000001C1500.57 78.18 1501.36 78.96000000000001 1502.33 78.96000000000001C1503.09 78.96000000000001 1503.74 78.48 1503.99 77.79H1513.58C1513.82 78.48 1514.47 78.96000000000001 1515.24 78.96000000000001C1516.21 78.96000000000001 1517 78.18 1517 77.21000000000001C1517 76.24000000000001 1516.21 75.45 1515.24 75.45C1514.47 75.45 1513.82 75.94 1513.58 76.62H1503.99C1503.81 76.12 1503.41 75.73 1502.91 75.55000000000001V74.28000000000002H1515.24C1516.21 74.28000000000002 1517 73.49000000000001 1517 72.52000000000001ZM1502.91 66.08H1515.8300000000002V72.52C1515.8300000000002 72.83999999999999 1515.5600000000002 73.11 1515.2400000000002 73.11H1502.9100000000003ZM1515.24 76.62C1515.56 76.62 1515.83 76.88000000000001 1515.83 77.21000000000001C1515.83 77.53 1515.56 77.79 1515.24 77.79C1514.92 77.79 1514.65 77.53 1514.65 77.21000000000001C1514.65 76.88000000000001 1514.92 76.62 1515.24 76.62ZM1502.33 77.79C1502 77.79 1501.74 77.53 1501.74 77.21000000000001C1501.74 76.88000000000001 1502 76.62 1502.33 76.62C1502.6499999999999 76.62 1502.9099999999999 76.88000000000001 1502.9099999999999 77.21000000000001C1502.9099999999999 77.53 1502.6499999999999 77.79 1502.33 77.79Z " fill="#4c4c4c" fill-opacity="1" transform="matrix(1,0,0,1,-1499,-61)"></path><path id="SvgjsPath1011" d="M1504.59 67C1504.26 67 1504 67.26 1504 67.59V71.10000000000001C1504 71.42 1504.26 71.69000000000001 1504.59 71.69000000000001C1504.9099999999999 71.69000000000001 1505.1699999999998 71.42000000000002 1505.1699999999998 71.10000000000001V67.59C1505.1699999999998 67.26 1504.9099999999999 67 1504.59 67Z " fill="#4c4c4c" fill-opacity="1" transform="matrix(1,0,0,1,-1499,-61)"></path><path id="SvgjsPath1012" d="M1506.59 67C1506.26 67 1506 67.26 1506 67.59V71.10000000000001C1506 71.42 1506.26 71.69000000000001 1506.59 71.69000000000001C1506.9099999999999 71.69000000000001 1507.1699999999998 71.42000000000002 1507.1699999999998 71.10000000000001V67.59C1507.1699999999998 67.26 1506.9099999999999 67 1506.59 67Z " fill="#4c4c4c" fill-opacity="1" transform="matrix(1,0,0,1,-1499,-61)"></path><path id="SvgjsPath1013" d="M1509.59 67C1509.26 67 1509 67.26 1509 67.59V71.10000000000001C1509 71.42 1509.26 71.69000000000001 1509.59 71.69000000000001C1509.9099999999999 71.69000000000001 1510.1699999999998 71.42000000000002 1510.1699999999998 71.10000000000001V67.59C1510.1699999999998 67.26 1509.9099999999999 67 1509.59 67Z " fill="#4c4c4c" fill-opacity="1" transform="matrix(1,0,0,1,-1499,-61)"></path><path id="SvgjsPath1014" d="M1511.59 67C1511.26 67 1511 67.26 1511 67.59V71.10000000000001C1511 71.42 1511.26 71.69000000000001 1511.59 71.69000000000001C1511.9099999999999 71.69000000000001 1512.1699999999998 71.42000000000002 1512.1699999999998 71.10000000000001V67.59C1512.1699999999998 67.26 1511.9099999999999 67 1511.59 67Z " fill="#4c4c4c" fill-opacity="1" transform="matrix(1,0,0,1,-1499,-61)"></path><path id="SvgjsPath1015" d="M1513.59 67C1513.26 67 1513 67.26 1513 67.59V71.10000000000001C1513 71.42 1513.26 71.69000000000001 1513.59 71.69000000000001C1513.9099999999999 71.69000000000001 1514.1699999999998 71.42000000000002 1514.1699999999998 71.10000000000001V67.59C1514.1699999999998 67.26 1513.9099999999999 67 1513.59 67Z " fill="#4c4c4c" fill-opacity="1" transform="matrix(1,0,0,1,-1499,-61)"></path></svg>