<?xml version="1.0" encoding="UTF-8" standalone="no"?>
<svg width="19px" height="19px" viewBox="0 0 19 19" version="1.1" xmlns="http://www.w3.org/2000/svg" xmlns:xlink="http://www.w3.org/1999/xlink">
    <!-- Generator: Sketch 41.2 (35397) - http://www.bohemiancoding.com/sketch -->
    <title>instagram-logo (2)</title>
    <desc>Created with Sketch.</desc>
    <defs></defs>
    <g id="Page-1" stroke="none" stroke-width="1" fill="none" fill-rule="evenodd">
        <g id="flowers2" transform="translate(-374.000000, -143.000000)" fill="#E53A5C">
            <g id="menu" transform="translate(374.000000, -7.000000)">
                <g id="instagram-logo-(2)" transform="translate(0.000000, 150.000000)">
                    <g id="Layer_1">
                        <g id="Group">
                            <path d="M13.6806706,0 L5.21427059,0 C2.33912353,0 0,2.33923529 0,5.21438235 L0,13.6807824 C0,16.5560412 2.33912353,18.8951647 5.21427059,18.8951647 L13.6806706,18.8951647 C16.5560412,18.8951647 18.8951647,16.5559294 18.8951647,13.6807824 L18.8951647,5.21438235 C18.8952765,2.33923529 16.5560412,0 13.6806706,0 Z M17.2188059,13.6807824 C17.2188059,15.6316353 15.6316353,17.2186941 13.6807824,17.2186941 L5.21427059,17.2186941 C3.26352941,17.2188059 1.67647059,15.6316353 1.67647059,13.6807824 L1.67647059,5.21438235 C1.67647059,3.26364118 3.26352941,1.67647059 5.21427059,1.67647059 L13.6806706,1.67647059 C15.6315235,1.67647059 17.2186941,3.26364118 17.2186941,5.21438235 L17.2186941,13.6807824 L17.2188059,13.6807824 Z" id="Shape"></path>
                            <path d="M9.44758235,4.579 C6.76288235,4.579 4.57877647,6.76310588 4.57877647,9.44780588 C4.57877647,12.1323941 6.76288235,14.3163882 9.44758235,14.3163882 C12.1322824,14.3163882 14.3163882,12.1323941 14.3163882,9.44780588 C14.3163882,6.76310588 12.1322824,4.579 9.44758235,4.579 Z M9.44758235,12.6398059 C7.6874,12.6398059 6.25524706,11.2078765 6.25524706,9.44769412 C6.25524706,7.6874 7.68728824,6.25535882 9.44758235,6.25535882 C11.2078765,6.25535882 12.6399176,7.6874 12.6399176,9.44769412 C12.6399176,11.2078765 11.2077647,12.6398059 9.44758235,12.6398059 Z" id="Shape"></path>
                            <path d="M14.5205824,3.15746471 C14.1975824,3.15746471 13.8802824,3.28822941 13.6521706,3.51734706 C13.4229412,3.74534706 13.2911706,4.06275882 13.2911706,4.38687647 C13.2911706,4.70998824 13.4230529,5.02728824 13.6521706,5.25640588 C13.8801706,5.48440588 14.1975824,5.61628824 14.5205824,5.61628824 C14.8447,5.61628824 15.1609941,5.48440588 15.3901118,5.25640588 C15.6192294,5.02728824 15.7499941,4.70987647 15.7499941,4.38687647 C15.7499941,4.06275882 15.6192294,3.74534706 15.3901118,3.51734706 C15.1621118,3.28822941 14.8447,3.15746471 14.5205824,3.15746471 Z" id="Shape"></path>
                        </g>
                    </g>
                </g>
            </g>
        </g>
    </g>
</svg>