<?xml version="1.0" encoding="utf-8"?>
<!-- Generator: Avocode 2.6.0 - http://avocode.com -->
<svg height="17" width="17" xmlns:xlink="http://www.w3.org/1999/xlink" xmlns="http://www.w3.org/2000/svg" viewBox="0 0 17 17">
    <path fill="#ffffff" fill-rule="evenodd" d="M 17 0.99 C 17 0.99 16.01 0 16.01 0 C 16.01 0 8.5 7.51 8.5 7.51 C 8.5 7.51 0.99 0 0.99 0 C 0.99 0 0 0.99 0 0.99 C 0 0.99 7.52 8.5 7.52 8.5 C 7.52 8.5 0 16.01 0 16.01 C 0 16.01 0.99 17 0.99 17 C 0.99 17 8.5 9.49 8.5 9.49 C 8.5 9.49 16.01 17 16.01 17 C 16.01 17 17 16.01 17 16.01 C 17 16.01 9.48 8.5 9.48 8.5 C 9.48 8.5 17 0.99 17 0.99 Z" />
</svg>