<?xml version="1.0" encoding="UTF-8" standalone="no"?>
<svg width="62px" height="37px" viewBox="0 0 62 37" version="1.1" xmlns="http://www.w3.org/2000/svg" xmlns:xlink="http://www.w3.org/1999/xlink">
    <!-- Generator: Sketch 41.2 (35397) - http://www.bohemiancoding.com/sketch -->
    <title>delivery-truck (4)</title>
    <desc>Created with Sketch.</desc>
    <defs></defs>
    <g id="Page-1" stroke="none" stroke-width="1" fill="none" fill-rule="evenodd">
        <g id="flowers2-copy" transform="translate(-532.000000, -2349.000000)" fill="#000000">
            <g id="delivery-truck-(4)" transform="translate(532.000000, 2349.000000)">
                <g id="Layer_1">
                    <path d="M11.36925,6.02011765 L3.63559766,6.02011765 C3.08801172,6.02011765 2.64408203,6.46339216 2.64408203,7.01016993 C2.64408203,7.55694771 3.08801172,8.00022222 3.63559766,8.00022222 L11.3691289,8.00022222 C11.9167148,8.00022222 12.3606445,7.55694771 12.3606445,7.01016993 C12.3606445,6.46339216 11.9168359,6.02011765 11.36925,6.02011765 Z" id="Shape"></path>
                    <path d="M12.0301797,19.8804869 L4.95769922,19.8804869 C4.41011328,19.8804869 3.96618359,20.3237614 3.96618359,20.8705392 C3.96618359,21.417317 4.41011328,21.8605915 4.95769922,21.8605915 L12.0303008,21.8605915 C12.5778867,21.8605915 13.0218164,21.417317 13.0218164,20.8705392 C13.0218164,20.3237614 12.5777656,19.8804869 12.0301797,19.8804869 Z" id="Shape"></path>
                    <path d="M9.38609766,13.9402941 L0.991515625,13.9402941 C0.443929688,13.9402941 0,14.3835686 0,14.9303464 C0,15.4771242 0.443929688,15.9203987 0.991515625,15.9203987 L9.38609766,15.9203987 C9.93368359,15.9203987 10.3776133,15.4771242 10.3776133,14.9303464 C10.3776133,14.3835686 9.93368359,13.9402941 9.38609766,13.9402941 Z" id="Shape"></path>
                    <path d="M9.38609766,27.8006634 L8.57295312,27.8006634 C8.02536719,27.8006634 7.5814375,28.2439379 7.5814375,28.7907157 C7.5814375,29.3374935 8.02536719,29.780768 8.57295312,29.780768 L9.38609766,29.780768 C9.93368359,29.780768 10.3776133,29.3374935 10.3776133,28.7907157 C10.3776133,28.2439379 9.93368359,27.8006634 9.38609766,27.8006634 Z" id="Shape"></path>
                    <path d="M5.26782031,27.8006634 L0.991515625,27.8006634 C0.443929688,27.8006634 0,28.2439379 0,28.7907157 C0,29.3374935 0.443929688,29.780768 0.991515625,29.780768 L5.26782031,29.780768 C5.81540625,29.780768 6.25933594,29.3374935 6.25933594,28.7907157 C6.25933594,28.2439379 5.81540625,27.8006634 5.26782031,27.8006634 Z" id="Shape"></path>
                    <path d="M51.8003945,2.79083987 L43.396125,2.79083987 L43.396125,1.0086732 C43.396125,0.461895425 42.9521953,0.018620915 42.4046094,0.018620915 L27.0341797,0.018620915 C26.4865937,0.018620915 26.0426641,0.461895425 26.0426641,1.0086732 C26.0426641,1.55545098 26.4865937,1.99872549 27.0341797,1.99872549 L41.4129727,1.99872549 L41.4129727,23.6837484 C41.4129727,24.2305261 41.8569023,24.6738007 42.4044883,24.6738007 C42.9520742,24.6738007 43.3960039,24.2305261 43.3960039,23.6837484 L43.3960039,4.77094444 L51.8002734,4.77094444 C56.330875,4.77094444 60.0168477,8.45087255 60.0168477,12.9740621 L60.0168477,29.7207941 L57.495918,29.7207941 C57.0190508,26.7321373 54.4205,24.4404346 51.2951914,24.4404346 C48.1700039,24.4404346 45.5714531,26.7321373 45.0945859,29.7207941 L43.3960039,29.7207941 L43.3960039,28.3041536 C43.3960039,27.7573758 42.9520742,27.3141013 42.4044883,27.3141013 C41.8569023,27.3141013 41.4129727,27.7573758 41.4129727,28.3041536 L41.4129727,29.7207941 L30.8898047,29.7207941 C30.4129375,26.7321373 27.8143867,24.4404346 24.6891992,24.4404346 C21.5640117,24.4404346 18.9653398,26.7321373 18.4884727,29.7207941 L16.4263672,29.7207941 L16.4263672,1.99872549 L23.0681172,1.99872549 C23.6157031,1.99872549 24.0596328,1.55545098 24.0596328,1.0086732 C24.0596328,0.461895425 23.6157031,0.018620915 23.0681172,0.018620915 L15.4348516,0.018620915 C14.8872656,0.018620915 14.4433359,0.461895425 14.4433359,1.0086732 L14.4433359,30.7108464 C14.4433359,31.2576242 14.8872656,31.7008987 15.4348516,31.7008987 L18.4884727,31.7008987 C18.9653398,34.6895556 21.5640117,36.9812582 24.6891992,36.9812582 C27.8143867,36.9812582 30.4130586,34.6895556 30.8898047,31.7008987 L45.0945859,31.7008987 C45.5714531,34.6895556 48.1700039,36.9812582 51.2951914,36.9812582 C54.4203789,36.9812582 57.0189297,34.6895556 57.4957969,31.7008987 L61.0082422,31.7008987 C61.5558281,31.7008987 61.9997578,31.2576242 61.9997578,30.7108464 L61.9997578,12.9740621 C62,7.3590098 57.4245937,2.79083987 51.8003945,2.79083987 Z M24.6891992,35.0011536 C22.3201211,35.0011536 20.3925508,33.076549 20.3925508,30.7108464 C20.3925508,28.3451438 22.3201211,26.4205392 24.6891992,26.4205392 C27.0582773,26.4205392 28.9858477,28.3451438 28.9858477,30.7108464 C28.9858477,33.076549 27.0582773,35.0011536 24.6891992,35.0011536 Z M51.2954336,35.0011536 C48.9265977,35.0011536 46.9992695,33.0770327 46.9987852,30.7116928 L46.9987852,30.7108464 L46.9987852,30.71 C46.9992695,28.3446601 48.9265977,26.4205392 51.2954336,26.4205392 C53.6645117,26.4205392 55.592082,28.3451438 55.592082,30.7108464 C55.592082,33.076549 53.6645117,35.0011536 51.2954336,35.0011536 Z" id="Shape"></path>
                    <path d="M51.8003945,6.75104902 L46.370793,6.75104902 C45.823207,6.75104902 45.3792773,7.19432353 45.3792773,7.74110131 L45.3792773,17.0478105 C45.3792773,17.5945882 45.823207,18.0378627 46.370793,18.0378627 L57.0423008,18.0378627 C57.5898867,18.0378627 58.0338164,17.5945882 58.0338164,17.0478105 L58.0338164,12.9739412 C58.0338164,9.54273529 55.2376406,6.75104902 51.8003945,6.75104902 Z M56.0507852,16.0577582 L47.3623086,16.0577582 L47.3623086,8.73127451 L51.8003945,8.73127451 C54.1441641,8.73127451 56.0507852,10.634598 56.0507852,12.9740621 L56.0507852,16.0577582 Z" id="Shape"></path>
                    <path d="M24.6891992,28.1583301 C23.279668,28.1583301 22.1329102,29.3033954 22.1329102,30.7108464 C22.1329102,32.1182974 23.279668,33.2633627 24.6891992,33.2633627 C26.0987305,33.2633627 27.2454883,32.1182974 27.2454883,30.7108464 C27.2454883,29.3032745 26.0987305,28.1583301 24.6891992,28.1583301 Z M24.6891992,31.2832582 C24.3731445,31.2832582 24.1159414,31.0265556 24.1159414,30.7108464 C24.1159414,30.3951373 24.3730234,30.1384346 24.6891992,30.1384346 C25.0052539,30.1384346 25.262457,30.3951373 25.262457,30.7108464 C25.262457,31.0265556 25.0052539,31.2832582 24.6891992,31.2832582 Z" id="Shape"></path>
                    <path d="M51.2954336,28.1583301 C49.8859023,28.1583301 48.7391445,29.3033954 48.7391445,30.7108464 C48.7391445,32.1182974 49.8859023,33.2633627 51.2954336,33.2633627 C52.7049648,33.2633627 53.8517227,32.1182974 53.8517227,30.7108464 C53.8517227,29.3032745 52.7049648,28.1583301 51.2954336,28.1583301 Z M51.2954336,31.2832582 C50.9793789,31.2832582 50.7221758,31.0265556 50.7221758,30.7108464 C50.7221758,30.3951373 50.9792578,30.1384346 51.2954336,30.1384346 C51.6114883,30.1384346 51.8686914,30.3951373 51.8686914,30.7108464 C51.8686914,31.0265556 51.6113672,31.2832582 51.2954336,31.2832582 Z" id="Shape"></path>
                    <path d="M57.0423008,20.7440621 C56.4947148,20.7440621 56.0507852,21.1873366 56.0507852,21.7341144 L56.0507852,24.2422549 C56.0507852,24.7890327 56.4947148,25.2323072 57.0423008,25.2323072 C57.5898867,25.2323072 58.0338164,24.7890327 58.0338164,24.2422549 L58.0338164,21.7341144 C58.0338164,21.1873366 57.5898867,20.7440621 57.0423008,20.7440621 Z" id="Shape"></path>
                </g>
            </g>
        </g>
    </g>
</svg>