<?xml version="1.0" encoding="UTF-8" standalone="no"?>
<svg width="48px" height="48px" viewBox="0 0 48 48" version="1.1" xmlns="http://www.w3.org/2000/svg" xmlns:xlink="http://www.w3.org/1999/xlink">
    <!-- Generator: Sketch 41.2 (35397) - http://www.bohemiancoding.com/sketch -->
    <title>florist</title>
    <desc>Created with Sketch.</desc>
    <defs></defs>
    <g id="Page-1" stroke="none" stroke-width="1" fill="none" fill-rule="evenodd">
        <g id="flowers2-copy" transform="translate(-648.000000, -2339.000000)" fill="#000000">
            <g id="florist" transform="translate(648.000000, 2339.000000)">
                <g id="Layer_1">
                    <path d="M16.2001875,31.3583059 C15.9683438,30.9749647 15.4710938,30.8529882 15.0890625,31.0856471 C13.0425938,32.3329882 11.82075,34.5106824 11.82075,36.9111529 L11.82075,37.5030588 C11.82075,37.9514353 12.1827188,38.3150118 12.6295313,38.3150118 C13.0763438,38.3150118 13.4383125,37.9515294 13.4383125,37.5030588 L13.4383125,36.9111529 C13.4383125,35.0830118 14.36925,33.4241882 15.9285938,32.4737882 C16.3103438,32.2409412 16.4319375,31.7415529 16.2001875,31.3583059 Z" id="Shape"></path>
                    <path d="M36.1377188,43.9041882 C35.691,43.9041882 35.3289375,44.2676706 35.3289375,44.7161412 L35.3289375,46.3176471 L12.6295313,46.3176471 C12.1828125,46.3176471 11.82075,46.6811294 11.82075,47.1296 C11.82075,47.5779765 12.1827188,47.9415529 12.6295313,47.9415529 L36.137625,47.9415529 C36.5843438,47.9415529 36.9464063,47.5780706 36.9464063,47.1296 L36.9464063,44.7162353 C36.9464063,44.2677647 36.5844375,43.9041882 36.1377188,43.9041882 Z" id="Shape"></path>
                    <path d="M33.6770625,31.0855529 C33.2955,30.8528941 32.797875,30.9750588 32.5660313,31.3582118 C32.3342813,31.7415529 32.4559688,32.2409412 32.8378125,32.4736 C34.397625,33.4242824 35.3290313,35.0831059 35.3290313,36.9109647 L35.3290313,42.0096 C35.3290313,42.4579765 35.691,42.8215529 36.1378125,42.8215529 C36.584625,42.8215529 36.9465938,42.4580706 36.9465938,42.0096 L36.9465938,36.9110588 C36.9464063,34.5109647 35.7242813,32.3332706 33.6770625,31.0855529 Z" id="Shape"></path>
                    <path d="M29.1421875,33.5659294 C28.6954688,33.5659294 28.3334063,33.9295059 28.3334063,34.3778824 C28.3334063,36.5642353 26.5614375,38.3430588 24.383625,38.3430588 C22.2058125,38.3430588 20.4339375,36.5642353 20.4339375,34.3778824 C20.4339375,33.9295059 20.0719688,33.5659294 19.6251563,33.5659294 C19.1784375,33.5659294 18.816375,33.9295059 18.816375,34.3778824 C18.816375,37.4596706 21.313875,39.9669647 24.383625,39.9669647 C27.4534688,39.9669647 29.9509688,37.4596706 29.9509688,34.3778824 C29.9509688,33.9294118 29.5889063,33.5659294 29.1421875,33.5659294 Z" id="Shape"></path>
                    <path d="M12.2314687,38.9965176 C11.2452187,38.9965176 10.3624687,39.4495059 9.7785,40.1588706 L8.60475,37.7233882 L11.1340312,32.4756706 C11.3286562,32.072 11.160375,31.5864471 10.758375,31.3911529 C10.3561875,31.1955765 9.872625,31.3647059 9.67809375,31.7682824 L7.70625,35.8594824 L5.73459375,31.7686588 C5.5400625,31.3649882 5.05659375,31.1962353 4.6543125,31.3915294 C4.25221875,31.5868235 4.0839375,32.0723765 4.27865625,32.4760471 L6.8079375,37.7237647 L5.6341875,40.1592471 C5.05021875,39.4497882 4.167375,38.9968941 3.18121875,38.9968941 C1.42696875,38.9968 0,40.4294588 0,42.1904 C0,43.9513412 1.42696875,45.384 3.181125,45.384 C4.02459375,45.384 4.7923125,45.0526118 5.362125,44.5128471 C5.9319375,43.9730824 7.70634375,39.5877647 7.70634375,39.5877647 C7.70634375,39.5877647 9.2855625,43.5134118 9.592125,43.9703529 C10.1637187,44.8223059 11.133375,45.3838118 12.231375,45.3838118 C13.9855312,45.3838118 15.4125,43.9511529 15.4125,42.1902118 C15.4125938,40.4292706 13.985625,38.9965176 12.2314687,38.9965176 Z M3.18103125,43.7599059 C2.31890625,43.7599059 1.617375,43.0557176 1.617375,42.1901176 C1.617375,41.3246118 2.3188125,40.6203294 3.18103125,40.6203294 C4.04315625,40.6203294 4.7446875,41.3245176 4.7446875,42.1901176 C4.7446875,43.0557176 4.04315625,43.7599059 3.18103125,43.7599059 Z M12.2315625,43.7599059 C11.3694375,43.7599059 10.6679063,43.0557176 10.6679063,42.1901176 C10.6679063,41.3246118 11.3693438,40.6203294 12.2315625,40.6203294 C13.0936875,40.6203294 13.7952188,41.3245176 13.7952188,42.1901176 C13.795125,43.0557176 13.0936875,43.7599059 12.2315625,43.7599059 Z" id="Shape"></path>
                    <path d="M38.9608125,18.9323294 C38.9608125,17.2154353 37.6622812,15.7977412 35.99925,15.6150588 L35.9275312,14.8697412 C35.9660625,14.6613647 35.97975,14.4460235 35.9639062,14.2276706 L35.7961875,10.6700235 C35.7959062,10.6619294 35.79375,10.6542118 35.7931875,10.6462118 L35.7959062,10.6460235 L35.445375,6.07698824 C35.2799062,3.92037647 33.7564687,2.15275294 31.6543125,1.67849412 L24.561,0.0780235294 C24.55125,0.0758588235 24.5415,0.0749176471 24.5316562,0.0731294118 C24.5210625,0.0711529412 24.5105625,0.0693647059 24.4999687,0.0678588235 C24.462,0.0623058824 24.4238437,0.0585411765 24.3855937,0.0584470588 C24.3850312,0.0584470588 24.384375,0.0583529412 24.3839062,0.0583529412 C24.344625,0.0583529412 24.3055312,0.0622117647 24.266625,0.0679529412 C24.2571562,0.0693647059 24.247875,0.0709647059 24.2385,0.0727529412 C24.2278125,0.0747294118 24.2170312,0.0757647059 24.2064375,0.0781176471 L17.1133125,1.6784 C15.0111562,2.15265882 13.487625,3.92018824 13.32225,6.0768 L12.9715312,10.6459294 L12.973125,10.6460235 C12.9724687,10.6541176 12.9704062,10.6618353 12.9700312,10.6699294 L12.8025,14.2275765 C12.78675,14.4453647 12.80025,14.6601412 12.8385,14.8680471 L12.7665937,15.6147765 C11.10375,15.7970824 9.80540625,17.2149647 9.80540625,18.9320471 C9.80540625,20.4341647 10.7867812,21.7064471 12.1538437,22.1245176 C12.0257812,25.1213176 13.4105625,28.0285176 15.8420625,29.8013176 L20.2685625,33.0294588 C21.4990312,33.9271529 22.9407187,34.3759059 24.3830625,34.3757176 C25.8250312,34.3757176 27.2675625,33.9268706 28.4983125,33.0295529 L32.9249062,29.8013176 C35.3559375,28.0279529 36.7404375,25.1203765 36.612,22.1244235 C37.9791562,21.7064471 38.9608125,20.4341647 38.9608125,18.9323294 Z M12.3028125,20.4322824 C11.7764063,20.1399529 11.422875,19.5778824 11.422875,18.9321412 C11.422875,18.1713882 11.9195625,17.5256471 12.604125,17.3024941 L12.3028125,20.4322824 Z M31.2996562,3.26268235 C32.704125,3.57948235 33.7220625,4.76056471 33.8325937,6.20150588 L34.09875,9.66974118 C33.4441875,9.52630588 32.786625,9.39764706 32.1265312,9.28376471 L31.9648125,6.0976 C31.9095,5.00150588 31.6010625,4.00178824 31.1145,3.22089412 L31.2996562,3.26268235 Z M25.1927812,2.00404706 L28.8079687,3.23887059 C29.6292187,3.51962353 30.2774062,4.75642353 30.3492187,6.17995294 L30.4940625,9.03124706 C28.7365312,8.79350588 26.9655937,8.65967059 25.1927812,8.62832941 L25.1927812,2.00404706 L25.1927812,2.00404706 Z M18.4176562,6.18014118 C18.4903125,4.75651765 19.1385,3.51962353 19.9587187,3.23896471 L23.5753125,2.00395294 L23.5753125,8.62823529 C21.8022187,8.65967059 20.0308125,8.79331765 18.2728125,9.03105882 L18.4176562,6.18014118 Z M14.93475,6.20141176 C15.0452812,4.76047059 16.0632187,3.57948235 17.4677812,3.26258824 L17.6534062,3.22070588 C17.1668437,4.0016 16.858125,5.00122353 16.8021562,6.09722353 L16.6404375,9.28348235 C15.9805312,9.39736471 15.3230625,9.52602353 14.6686875,9.66927059 L14.93475,6.20141176 Z M14.4162188,14.3403294 C14.416875,14.3321412 14.4174375,14.3238588 14.4177188,14.3155765 L14.5570313,11.3574588 C20.9987813,9.87303529 27.7670625,9.87284706 34.2092813,11.3574588 L34.3486875,14.3155765 C34.3489688,14.3237647 34.3495313,14.3320471 34.3501875,14.3402353 C34.3761563,14.6761412 34.2204375,14.9815529 33.9334688,15.1571765 C33.6486563,15.3314824 33.3098438,15.3308235 33.0268125,15.1551059 C30.4344375,13.5461647 27.4455,12.6957176 24.3831563,12.6957176 C21.3208125,12.6957176 18.331875,13.5461647 15.7394063,15.1551059 C15.456375,15.3308235 15.117375,15.3313882 14.83275,15.1571765 C14.5457813,14.9815529 14.3900625,14.6761412 14.4162188,14.3403294 Z M31.9741875,28.4876235 L27.5476875,31.7157647 C25.6547812,33.0960941 23.1114375,33.0960941 21.219375,31.7157647 L16.7925937,28.4875294 C14.6944687,26.9577412 13.546125,24.3974588 13.7955,21.8058353 L14.287125,16.6986353 C14.605875,16.8396235 14.94525,16.9104 15.284625,16.9104 C15.7363125,16.9104 16.1878125,16.7856 16.5897187,16.5361882 C18.9265312,15.0859294 21.6212812,14.3193412 24.3830625,14.3193412 C27.1448437,14.3193412 29.8396875,15.0859294 32.1763125,16.5361882 C32.8799062,16.9729882 33.73575,17.0271059 34.478625,16.6987294 L34.9442812,21.5330824 L34.9701562,21.8059294 C35.2195312,24.3972706 34.0716562,26.9575529 31.9741875,28.4876235 Z M36.4629375,20.4320941 L36.1617187,17.3026824 C36.8464687,17.5259294 37.34325,18.1715765 37.34325,18.9321412 C37.34325,19.5778824 36.9895312,20.1399529 36.4629375,20.4320941 Z" id="Shape"></path>
                    <path d="M28.0035,25.9948235 C27.6878437,25.6776471 27.1757812,25.6777412 26.8598437,25.9948235 C26.19825,26.6590118 25.3186875,27.0247529 24.3829687,27.0247529 C23.4474375,27.0247529 22.5677812,26.6589176 21.9061875,25.9948235 C21.5903437,25.6777412 21.0781875,25.6777412 20.7625312,25.9948235 C20.4465937,26.3119059 20.4465937,26.8258824 20.7624375,27.1429647 C21.7296562,28.1139765 23.0154375,28.6486588 24.3829687,28.6486588 C25.7507812,28.6486588 27.0364687,28.1139765 28.0036875,27.1429647 C28.3195312,26.8259765 28.3195312,26.3118118 28.0035,25.9948235 Z" id="Shape"></path>
                    <path d="M19.5825937,18.8430118 C19.1357812,18.8430118 18.7738125,19.2064941 18.7738125,19.6549647 L18.7738125,20.9536 C18.7738125,21.4019765 19.1357812,21.7655529 19.5825937,21.7655529 C20.0293125,21.7655529 20.391375,21.4020706 20.391375,20.9536 L20.391375,19.6549647 C20.391375,19.2064941 20.0292187,18.8430118 19.5825937,18.8430118 Z" id="Shape"></path>
                    <path d="M31.6045312,16.6991059 C30.269625,15.3589647 28.097625,15.3589647 26.7627187,16.6991059 C26.4467812,17.0161882 26.4467812,17.5301647 26.762625,17.8473412 C27.0784687,18.1644235 27.590625,18.1644235 27.9062812,17.8473412 C28.6105312,17.1404235 29.7565312,17.1404235 30.4607812,17.8473412 C30.6186562,18.0059294 30.8256562,18.0851765 31.0326562,18.0851765 C31.2395625,18.0851765 31.4466562,18.0059294 31.604625,17.8473412 C31.9204687,17.5302588 31.9204687,17.0160941 31.6045312,16.6991059 Z" id="Shape"></path>
                    <path d="M22.0035937,16.6991059 C21.3569062,16.0498824 20.497125,15.6924235 19.5825937,15.6924235 C18.6681562,15.6924235 17.8082812,16.0498824 17.1616875,16.6991059 C16.84575,17.0161882 16.84575,17.5301647 17.1615937,17.8473412 C17.4775312,18.1644235 17.9896875,18.1644235 18.30525,17.8473412 C18.6464062,17.5048471 19.1000625,17.3162353 19.5825937,17.3162353 C20.0650312,17.3163294 20.5185937,17.5049412 20.8596562,17.8473412 C21.017625,18.0059294 21.2245312,18.0851765 21.431625,18.0851765 C21.6385312,18.0851765 21.845625,18.0059294 22.0035,17.8473412 C22.3194375,17.5302588 22.3194375,17.0161882 22.0035937,16.6991059 Z" id="Shape"></path>
                    <path d="M29.183625,18.8430118 C28.7369062,18.8430118 28.3748437,19.2064941 28.3748437,19.6549647 L28.3748437,20.9536 C28.3748437,21.4019765 28.7368125,21.7655529 29.183625,21.7655529 C29.6304375,21.7655529 29.9924062,21.4020706 29.9924062,20.9536 L29.9924062,19.6549647 C29.9923125,19.2064941 29.63025,18.8430118 29.183625,18.8430118 Z" id="Shape"></path>
                    <path d="M25.6231875,18.0310588 C25.1764687,18.0310588 24.8144062,18.3945412 24.8144062,18.8430118 L24.8144062,22.3072941 C24.8144062,22.5460706 24.6209062,22.7403294 24.3830625,22.7403294 C24.1452187,22.7403294 23.9517187,22.5460706 23.9517187,22.3072941 L23.9517187,18.8430118 C23.9517187,18.3946353 23.58975,18.0310588 23.1429375,18.0310588 C22.696125,18.0310588 22.3341562,18.3945412 22.3341562,18.8430118 L22.3341562,22.3072941 C22.3341562,23.4415059 23.253375,24.3642353 24.3830625,24.3642353 C25.5128437,24.3642353 26.4319687,23.4415059 26.4319687,22.3072941 L26.4319687,18.8430118 C26.4319687,18.3945412 26.07,18.0310588 25.6231875,18.0310588 Z" id="Shape"></path>
                    <path d="M12.291,2.62795294 C12.0192188,2.27218824 11.5115625,2.20489412 11.157,2.47783529 L10.2100313,3.20705882 L9.56475,3.65694118 L9.44128125,2.59218824 C9.41390625,2.3568 9.28565625,2.14531765 9.09,2.0128 C8.89434375,1.88028235 8.6503125,1.84037647 8.42325,1.90324706 L6.91715625,2.31943529 L5.2704375,1.8992 C5.04440625,1.8416 4.8046875,1.88461176 4.61240625,2.01741176 C4.4203125,2.15021176 4.2946875,2.35971765 4.26778125,2.59237647 L4.144125,3.65741176 L3.4981875,3.20715294 L2.55121875,2.47792941 C2.19665625,2.20498824 1.689,2.27247059 1.41721875,2.62804706 C1.14571875,2.98381176 1.2125625,3.49345882 1.56703125,3.7664 L2.21278125,4.26362353 L2.21278125,10.0434824 C2.21278125,12.336 3.87075,14.2456471 6.04565625,14.6311529 L6.04565625,17.3204706 L5.70590625,17.1100235 C5.32603125,16.8747294 4.82746875,16.9930353 4.593,17.3746824 C4.3584375,17.7563294 4.4765625,18.2565647 4.856625,18.4920471 L6.04565625,19.2284235 L6.04565625,29.4922353 C6.04565625,29.9406118 6.407625,30.3041882 6.8544375,30.3041882 C7.30125,30.3041882 7.66321875,29.9406118 7.66321875,29.4922353 L7.66321875,25.2819765 L8.82328125,24.1173647 C9.139125,23.8002824 9.139125,23.2861176 8.8231875,22.9692235 C8.5074375,22.6520471 7.995375,22.6521412 7.67953125,22.9692235 L7.6633125,22.9854118 L7.6633125,14.6310588 C9.83821875,14.2455529 11.4961875,12.3359059 11.4961875,10.0433882 L11.4961875,9.20743529 C11.4961875,9.20517647 11.4957188,9.20291765 11.4957188,9.20047059 L11.4957188,4.26362353 L12.1414688,3.7664 C12.4958438,3.49345882 12.5626875,2.98381176 12.291,2.62795294 Z M9.8780625,5.41543529 L9.8780625,7.65487059 L8.27203125,6.53505882 L9.8780625,5.41543529 Z M5.76759375,3.70164706 L6.726,3.94635294 C6.86184375,3.98089412 7.0044375,3.97957647 7.13990625,3.94221176 L7.94353125,3.72018824 L8.05809375,4.70738824 L6.85434375,5.54663529 L5.65125,4.70785882 L5.76759375,3.70164706 Z M9.878625,10.0432941 C9.878625,11.7173647 8.5220625,13.0792471 6.85453125,13.0792471 C5.187,13.0792471 3.8304375,11.7172706 3.8304375,10.0432941 L3.8304375,5.41543529 L4.3185,5.75567059 C4.324875,5.76028235 4.3314375,5.7648 4.33790625,5.76922353 L9.87871875,9.63209412 L9.87871875,10.0432941 L9.878625,10.0432941 Z" id="Shape"></path>
                    <path d="M46.4850938,29.4391529 C46.49325,29.2944 46.49325,29.1493647 46.4850938,29.0047059 C46.7556563,28.8754824 47.0041875,28.7006118 47.2219688,28.4820706 C48.259125,27.4409412 48.259125,25.7468235 47.2219688,24.7056 C46.7195625,24.2012235 46.0515,23.9232941 45.34125,23.9232941 C44.631,23.9232941 43.9630313,24.2010353 43.460625,24.7056 C43.2429375,24.9241412 43.06875,25.1737412 42.9400313,25.4451765 C42.7958438,25.4369882 42.651375,25.4369882 42.5070938,25.4451765 C42.378375,25.1736471 42.2041875,24.9241412 41.9865,24.7056 C41.484,24.2011294 40.8160313,23.9232941 40.1057813,23.9232941 C39.3955313,23.9232941 38.7274688,24.2010353 38.224875,24.7056 C37.1878125,25.7468235 37.1878125,27.4409412 38.224875,28.4819765 C38.4425625,28.7006118 38.6912813,28.8754824 38.9618438,29.0048 C38.9536875,29.1495529 38.9536875,29.2944941 38.9618438,29.4391529 C38.6912813,29.5683765 38.4426563,29.7433412 38.2247813,29.9619765 C37.1881875,31.0027294 37.188375,32.6965647 38.2254375,33.7377882 C38.7441563,34.2585412 39.4253438,34.5187765 40.1065313,34.5187765 C40.78725,34.5187765 41.4681563,34.2586353 41.9864063,33.7384471 C42.2041875,33.5198118 42.3784688,33.2700235 42.5072813,32.9984 C42.5792813,33.0025412 42.6514688,33.0051765 42.72375,33.0051765 C42.7959375,33.0051765 42.8679375,33.0024471 42.9399375,32.9984 C43.0688438,33.2701176 43.2429375,33.5198118 43.4607188,33.7384471 C43.9790625,34.2587294 44.6597813,34.5188706 45.3406875,34.5188706 C46.0217813,34.5188706 46.70325,34.2585412 47.221875,33.7377882 C48.2588438,32.6965647 48.2590313,31.0027294 47.2224375,29.9620706 C47.004375,29.7434353 46.7556563,29.5684706 46.4850938,29.4391529 Z M39.3683438,25.8539294 C39.5654063,25.6560941 39.8271563,25.5472 40.1055,25.5472 C40.3838438,25.5472 40.6455,25.6560941 40.8425625,25.8539294 C40.8612188,25.8726588 40.87875,25.8920471 40.8958125,25.9118118 C40.5951563,26.0789647 40.312125,26.2894118 40.0573125,26.5452235 C39.8024063,26.8011294 39.5927813,27.0854588 39.4262813,27.3873882 C39.4064063,27.3701647 39.387,27.3525647 39.3683438,27.3337412 C38.9618438,26.9257412 38.9618438,26.2618353 39.3683438,25.8539294 Z M40.8424688,32.5901176 C40.4364375,32.9977412 39.7753125,32.9974588 39.369,32.5895529 C38.9625938,32.1814588 38.9623125,31.5178353 39.3684375,31.1101176 C39.3870938,31.0913882 39.4065938,31.0736 39.426375,31.0564706 C39.592875,31.3583059 39.8024063,31.6424471 40.0573125,31.8982588 C40.3122188,32.1541647 40.5953438,32.3646118 40.8960938,32.5317647 C40.8788438,32.5517176 40.8612188,32.5712941 40.8424688,32.5901176 Z M41.2011563,30.7500235 C40.3618125,29.9073882 40.3618125,28.5360941 41.2011563,27.6934588 C41.620875,27.2720941 42.172125,27.0614588 42.723375,27.0614588 C43.2747188,27.0614588 43.8260625,27.2720941 44.2456875,27.6934588 C45.0850313,28.5361882 45.0850313,29.9073882 44.2456875,30.7500235 C43.4065313,31.5926588 42.0405938,31.5927529 41.2011563,30.7500235 Z M46.0778438,32.5895529 C45.6713438,32.9976471 45.0103125,32.9978353 44.6041875,32.5901176 C44.5854375,32.5713882 44.5678125,32.5518118 44.55075,32.5319529 C44.8515,32.3648 45.1347188,32.1542588 45.389625,31.8983529 C45.6444375,31.6425412 45.8539688,31.3584941 46.0204688,31.0566588 C46.0403438,31.0737882 46.05975,31.0914824 46.0784063,31.1102118 C46.4843438,31.5178353 46.4840625,32.1814588 46.0778438,32.5895529 Z M46.0783125,27.3338353 C46.0596562,27.3525647 46.0403437,27.3701647 46.0206562,27.3872 C45.8541562,27.0852706 45.6445312,26.8011294 45.389625,26.5451294 C45.1348125,26.2892235 44.8517812,26.0788706 44.551125,25.9117176 C44.5681875,25.8918588 44.5857187,25.8725647 44.604375,25.8538353 C44.80125,25.656 45.063,25.5471059 45.3413437,25.5471059 C45.6196875,25.5471059 45.8815312,25.656 46.0784062,25.8538353 C46.4848125,26.2618353 46.4848125,26.9257412 46.0783125,27.3338353 Z" id="Shape"></path>
                    <path d="M46.9289062,35.9653647 L46.1586562,35.9653647 C45.1674375,35.9653647 44.25525,36.3091765 43.5321562,36.8831059 L43.5321562,34.9369412 C43.5321562,34.4885647 43.1701875,34.1249882 42.723375,34.1249882 C42.2765625,34.1249882 41.9145937,34.4884706 41.9145937,34.9369412 L41.9145937,40.2260706 L41.9145937,40.9993412 L41.9145937,44.2470588 C41.9145937,44.6954353 42.2765625,45.0590118 42.723375,45.0590118 C43.1700937,45.0590118 43.5321562,44.6955294 43.5321562,44.2470588 L43.5321562,41.8102588 C45.854625,41.7892706 47.7376875,39.8868706 47.7376875,37.5504941 L47.7376875,36.7772235 C47.7375937,36.3288471 47.375625,35.9653647 46.9289062,35.9653647 Z M43.5323437,40.1872 C43.5529687,38.7641412 44.7023437,37.6103529 46.11975,37.5895529 C46.0992187,39.0126118 44.9498437,40.1664 43.5323437,40.1872 Z" id="Shape"></path>
                    <ellipse id="Oval" cx="42.7231875" cy="29.2221176" rx="0.80878125" ry="0.811952941"></ellipse>
                </g>
            </g>
        </g>
    </g>
</svg>