<svg id="SvgjsSvg1028" xmlns="http://www.w3.org/2000/svg" version="1.1" xmlns:xlink="http://www.w3.org/1999/xlink" xmlns:svgjs="http://svgjs.com/svgjs" width="20" height="20" viewBox="0 0 20 20"><title>WhatsApp</title><desc>Created with Avocode.</desc><defs id="SvgjsDefs1029"></defs><path id="SvgjsPath1030" d="M477 152.74C477 158.12 472.6 162.48000000000002 467.18 162.48000000000002C465.46 162.48000000000002 463.84000000000003 162.04000000000002 462.44 161.27L457 163L458.77 157.77C457.88 156.3 457.35999999999996 154.58 457.35999999999996 152.74C457.35999999999996 147.36 461.75999999999993 143 467.17999999999995 143C472.60999999999996 143 476.99999999999994 147.36 476.99999999999994 152.74ZM467.18 144.55C462.63 144.55 458.93 148.23000000000002 458.93 152.74C458.93 154.53 459.51 156.19 460.5 157.54000000000002L459.47 160.59000000000003L462.64000000000004 159.58000000000004C463.94000000000005 160.43000000000004 465.51000000000005 160.93000000000004 467.18000000000006 160.93000000000004C471.7300000000001 160.93000000000004 475.44000000000005 157.26000000000005 475.44000000000005 152.74000000000004C475.44000000000005 148.23000000000005 471.7300000000001 144.55000000000004 467.18000000000006 144.55000000000004ZM472.14 154.99C472.08 154.89000000000001 471.91999999999996 154.83 471.68 154.71C471.44 154.59 470.25 154.01000000000002 470.03000000000003 153.93C469.81 153.85 469.65000000000003 153.81 469.49 154.05C469.33 154.29000000000002 468.87 154.83 468.73 154.99C468.59000000000003 155.15 468.45000000000005 155.17000000000002 468.21000000000004 155.05C467.97 154.93 467.19000000000005 154.67000000000002 466.27000000000004 153.86C465.56000000000006 153.23000000000002 465.07000000000005 152.45000000000002 464.93000000000006 152.21C464.7900000000001 151.97 464.9200000000001 151.84 465.0400000000001 151.72C465.1500000000001 151.60999999999999 465.2800000000001 151.44 465.4000000000001 151.3C465.5200000000001 151.16000000000003 465.5600000000001 151.06 465.6400000000001 150.9C465.7200000000001 150.74 465.6800000000001 150.61 465.6200000000001 150.49C465.5600000000001 150.37 465.0800000000001 149.19 464.8800000000001 148.71C464.6800000000001 148.24 464.48000000000013 148.31 464.3400000000001 148.31C464.2000000000001 148.31 464.0400000000001 148.29 463.8800000000001 148.29C463.7200000000001 148.29 463.4600000000001 148.35 463.23000000000013 148.59C463.0100000000001 148.83 462.39000000000016 149.41 462.39000000000016 150.59C462.39000000000016 151.76 463.25000000000017 152.9 463.38000000000017 153.05C463.50000000000017 153.21 465.0400000000002 155.70000000000002 467.4900000000002 156.66000000000003C469.9300000000002 157.62000000000003 469.9300000000002 157.3 470.3700000000002 157.26000000000002C470.82000000000016 157.22000000000003 471.8000000000002 156.68 472.00000000000017 156.12000000000003C472.20000000000016 155.56000000000003 472.20000000000016 155.09000000000003 472.14000000000016 154.99000000000004Z " fill="#5a5a5a" fill-opacity="1" transform="matrix(1,0,0,1,-457,-143)"></path></svg>