<svg id="SvgjsSvg1013" xmlns="http://www.w3.org/2000/svg" version="1.1" xmlns:xlink="http://www.w3.org/1999/xlink" xmlns:svgjs="http://svgjs.com/svgjs" width="23" height="23" viewBox="0 0 23 23"><title>Shape</title><desc>Created with Avocode.</desc><defs id="SvgjsDefs1014"></defs><path id="SvgjsPath1015" d="M1226.81 905.63C1220.85 905.63 1216 900.78 1216 894.81C1216 888.8499999999999 1220.85 884 1226.81 884C1232.78 884 1237.6299999999999 888.85 1237.6299999999999 894.81C1237.6299999999999 900.78 1232.78 905.63 1226.81 905.63ZM1226.81 884.73C1221.26 884.73 1216.73 889.26 1216.73 894.8100000000001C1216.73 900.37 1221.26 904.8900000000001 1226.81 904.8900000000001C1232.37 904.8900000000001 1236.8899999999999 900.3700000000001 1236.8899999999999 894.8100000000001C1236.8899999999999 889.2600000000001 1232.37 884.73 1226.81 884.73Z " fill="#ea3d5a" fill-opacity="1" transform="matrix(1,0,0,1,-1215.5,-883.5)"></path><path id="SvgjsPath1016" d="M1226.81 905.63C1220.85 905.63 1216 900.78 1216 894.81C1216 888.8499999999999 1220.85 884 1226.81 884C1232.78 884 1237.6299999999999 888.85 1237.6299999999999 894.81C1237.6299999999999 900.78 1232.78 905.63 1226.81 905.63ZM1226.81 884.73C1221.26 884.73 1216.73 889.26 1216.73 894.8100000000001C1216.73 900.37 1221.26 904.8900000000001 1226.81 904.8900000000001C1232.37 904.8900000000001 1236.8899999999999 900.3700000000001 1236.8899999999999 894.8100000000001C1236.8899999999999 889.2600000000001 1232.37 884.73 1226.81 884.73Z " fill-opacity="0" fill="#ffffff" stroke-dasharray="0" stroke-linejoin="miter" stroke-linecap="butt" stroke-opacity="1" stroke="#ea3d5a" stroke-miterlimit="50" stroke-width="1" transform="matrix(1,0,0,1,-1215.5,-883.5)"></path><path id="SvgjsPath1017" d="M1225.48 897.22C1225.39 897.22 1225.3 897.1800000000001 1225.23 897.11L1223.1100000000001 895C1222.96 894.85 1222.96 894.62 1223.1100000000001 894.48C1223.2500000000002 894.34 1223.48 894.34 1223.63 894.48L1225.48 896.34L1230.71 891.11C1230.8600000000001 890.96 1231.0900000000001 890.96 1231.23 891.11C1231.3700000000001 891.25 1231.3700000000001 891.48 1231.23 891.63L1225.74 897.11C1225.67 897.1800000000001 1225.58 897.22 1225.48 897.22Z " fill="#ea3d5a" fill-opacity="1" transform="matrix(1,0,0,1,-1215.5,-883.5)"></path><path id="SvgjsPath1018" d="M1225.48 897.22C1225.39 897.22 1225.3 897.1800000000001 1225.23 897.11L1223.1100000000001 895C1222.96 894.85 1222.96 894.62 1223.1100000000001 894.48C1223.2500000000002 894.34 1223.48 894.34 1223.63 894.48L1225.48 896.34L1230.71 891.11C1230.8600000000001 890.96 1231.0900000000001 890.96 1231.23 891.11C1231.3700000000001 891.25 1231.3700000000001 891.48 1231.23 891.63L1225.74 897.11C1225.67 897.1800000000001 1225.58 897.22 1225.48 897.22Z " fill-opacity="0" fill="#ffffff" stroke-dasharray="0" stroke-linejoin="miter" stroke-linecap="butt" stroke-opacity="1" stroke="#ea3d5a" stroke-miterlimit="50" stroke-width="1" transform="matrix(1,0,0,1,-1215.5,-883.5)"></path></svg>