<?xml version="1.0" encoding="utf-8"?>
<!-- Generator: Avocode 2.5.3 - http://avocode.com -->
<svg height="23" width="25" xmlns:xlink="http://www.w3.org/1999/xlink" xmlns="http://www.w3.org/2000/svg" viewBox="0 0 25 23">
    <path fill="#86ce73" fill-rule="evenodd" d="M 24.69 1.67 C 24.69 1.67 11.28 15.36 11.28 15.36 C 11.13 15.51 10.93 15.59 10.73 15.59 C 10.52 15.59 10.32 15.51 10.17 15.36 C 10.17 15.36 6.42 11.53 6.42 11.53 C 6.11 11.21 6.11 10.7 6.42 10.39 C 6.73 10.08 7.23 10.08 7.53 10.39 C 7.53 10.39 10.73 13.65 10.73 13.65 C 10.73 13.65 23.58 0.53 23.58 0.53 C 23.88 0.22 24.38 0.22 24.69 0.53 C 25 0.84 25 1.35 24.69 1.67 Z M 17.14 1.61 C 17.14 1.61 1.58 1.61 1.58 1.61 C 1.58 1.61 1.58 21.39 1.58 21.39 C 1.58 21.39 20.95 21.39 20.95 21.39 C 20.95 21.39 20.95 11.95 20.95 11.95 C 20.95 11.51 21.3 11.15 21.74 11.15 C 22.17 11.15 22.53 11.51 22.53 11.95 C 22.53 11.95 22.53 22.19 22.53 22.19 C 22.53 22.64 22.17 23 21.74 23 C 21.74 23 0.79 23 0.79 23 C 0.35 23 0 22.64 0 22.19 C 0 22.19 0 0.8 0 0.8 C 0 0.36 0.35 0 0.79 0 C 0.79 0 17.14 0 17.14 0 C 17.57 0 17.93 0.36 17.93 0.8 C 17.93 1.25 17.57 1.61 17.14 1.61 Z" />
</svg>