<?xml version="1.0" encoding="utf-8"?>
<!-- Generator: Avocode 2.5.3 - http://avocode.com -->
<svg height="23" width="23" xmlns:xlink="http://www.w3.org/1999/xlink" xmlns="http://www.w3.org/2000/svg" viewBox="0 0 23 23">
    <path fill="#86ce73" fill-rule="evenodd" d="M 21.74 11.15 C 21.3 11.15 20.95 11.51 20.95 11.95 C 20.95 11.95 20.95 21.39 20.95 21.39 C 20.95 21.39 1.58 21.39 1.58 21.39 C 1.58 21.39 1.58 1.61 1.58 1.61 C 1.58 1.61 17.14 1.61 17.14 1.61 C 17.57 1.61 17.93 1.25 17.93 0.81 C 17.93 0.36 17.57 0 17.14 0 C 17.14 0 0.79 0 0.79 0 C 0.35 0 0 0.36 0 0.81 C 0 0.81 0 22.2 0 22.2 C 0 22.64 0.35 23 0.79 23 C 0.79 23 21.74 23 21.74 23 C 22.17 23 22.53 22.64 22.53 22.2 C 22.53 22.2 22.53 11.95 22.53 11.95 C 22.53 11.51 22.17 11.15 21.74 11.15 Z" />
</svg>