<?xml version="1.0" encoding="utf-8"?>
<!-- Generator: Avocode 2.5.3 - http://avocode.com -->
<svg height="23" width="46" xmlns:xlink="http://www.w3.org/1999/xlink" xmlns="http://www.w3.org/2000/svg" viewBox="0 0 46 23">
    <path fill="#cccccc" fill-rule="evenodd" d="M 44.93 18.59 C 44.93 18.59 40.82 18.59 40.82 18.59 C 40.82 15.99 38.67 13.89 36.03 13.89 C 33.39 13.89 31.25 15.99 31.25 18.59 C 31.25 18.59 11.51 18.59 11.51 18.59 C 11.51 15.99 9.37 13.89 6.73 13.89 C 4.09 13.89 1.94 15.99 1.94 18.59 C 1.94 18.59 1.3 18.59 1.3 18.59 C 1.3 18.59 1.3 17.16 1.3 17.16 C 1.3 17.16 0.5 16.3 0.5 16.3 C 0.5 16.3 0.5 13.17 0.5 13.17 C 0.5 13.17 1.3 12.12 1.3 12.12 C 1.3 12.12 1.3 10.74 1.3 10.74 C 1.3 10.74 0.8 10.37 0.8 10.37 C 0.8 10.37 0.8 8 0.8 8 C 0.8 8 1.3 7.64 1.3 7.64 C 1.3 7.64 1.3 7.09 1.3 7.09 C 1.3 7.09 1.3 6.72 1.3 6.72 C 1.3 6.72 0 5.7 0 5.7 C 0 5.7 1.3 4.89 1.3 4.89 C 10.06 -1 25.8 0.1 25.8 0.1 C 29.52 0.1 36.62 8.51 36.62 8.51 C 36.62 8.51 40.68 9.18 43.34 10.75 C 46 12.32 44.93 18.59 44.93 18.59 Z M 18.13 1.93 C 18.13 1.93 8.93 2.24 5.52 8 C 5.52 8 18.13 8 18.13 8 C 18.13 8 18.13 1.93 18.13 1.93 Z M 26.23 2.07 C 23.97 2.07 19.91 2.07 19.91 2.07 C 19.91 2.07 19.91 7.98 19.91 7.98 C 19.91 7.98 33.22 7.98 33.22 7.98 C 33.22 7.98 28.48 2.07 26.23 2.07 Z M 43.41 11.63 C 43.41 11.63 41.2 11.63 41.2 11.63 C 41.2 11.63 41.2 13 41.2 13 C 41.2 13 43.41 13 43.41 13 C 43.41 13 43.41 11.63 43.41 11.63 Z M 6.82 14.18 C 9.29 14.18 11.3 16.16 11.3 18.59 C 11.3 18.72 11.27 18.85 11.26 18.98 C 11.26 18.98 30.95 18.98 30.95 18.98 C 30.95 18.98 30.95 20.35 30.95 20.35 C 30.95 20.35 11.25 20.35 11.25 20.35 C 11.25 20.35 11.25 19.02 11.25 19.02 C 11.03 21.25 9.14 23 6.82 23 C 4.34 23 2.33 21.02 2.33 18.59 C 2.33 16.16 4.34 14.18 6.82 14.18 Z M 6.82 22.02 C 8.73 22.02 10.3 20.48 10.3 18.59 C 10.3 16.7 8.74 15.16 6.82 15.16 C 4.89 15.16 3.33 16.7 3.33 18.59 C 3.33 20.48 4.89 22.02 6.82 22.02 Z M 36.1 14.18 C 38.57 14.18 40.58 16.16 40.58 18.59 C 40.58 21.02 38.57 23 36.1 23 C 33.63 23 31.61 21.02 31.61 18.59 C 31.61 16.16 33.63 14.18 36.1 14.18 Z M 36.1 22.02 C 38.02 22.02 39.58 20.48 39.58 18.59 C 39.58 16.7 38.02 15.16 36.1 15.16 C 34.18 15.16 32.61 16.7 32.61 18.59 C 32.61 20.48 34.18 22.02 36.1 22.02 Z" />
</svg>