<svg id="SvgjsSvg1008" xmlns="http://www.w3.org/2000/svg" version="1.1" xmlns:xlink="http://www.w3.org/1999/xlink" xmlns:svgjs="http://svgjs.com/svgjs" width="20" height="20" viewBox="0 0 20 20"><title>Shape</title><desc>Created with Avocode.</desc><defs id="SvgjsDefs1009"></defs><path id="SvgjsPath1010" d="M965 3279C959.48 3279 955 3283.48 955 3289C955 3294.52 959.48 3299 965 3299C970.52 3299 975 3294.52 975 3289C975 3283.48 970.52 3279 965 3279ZM965 3297.44C960.34 3297.44 956.56 3293.66 956.56 3289C956.56 3284.34 960.3399999999999 3280.56 965 3280.56C969.66 3280.56 973.44 3284.34 973.44 3289C973.44 3293.66 969.6600000000001 3297.44 965 3297.44Z " fill="#bdbdbd" fill-opacity="1" transform="matrix(1,0,0,1,-955,-3279)"></path><path id="SvgjsPath1011" d="M967.75 3287.47H966.01V3286.2C966.01 3285.81 966.41 3285.72 966.6 3285.72C966.78 3285.72 967.72 3285.72 967.72 3285.72V3284.0099999999998L966.4300000000001 3283.9999999999995C964.6800000000001 3283.9999999999995 964.2800000000001 3285.2799999999997 964.2800000000001 3286.0999999999995V3287.4699999999993H963.0000000000001V3289.2299999999996H964.2800000000001C964.2800000000001 3291.4999999999995 964.2800000000001 3293.9999999999995 964.2800000000001 3293.9999999999995H966.0100000000001C966.0100000000001 3293.9999999999995 966.0100000000001 3291.4699999999993 966.0100000000001 3289.2299999999996H967.4800000000001Z " fill="#bdbdbd" fill-opacity="1" transform="matrix(1,0,0,1,-955,-3279)"></path></svg>