<?xml version="1.0" encoding="UTF-8" standalone="no"?>
<svg width="276px" height="109px" viewBox="0 0 276 109" version="1.1" xmlns="http://www.w3.org/2000/svg" xmlns:xlink="http://www.w3.org/1999/xlink">
    <!-- Generator: Sketch 41.2 (35397) - http://www.bohemiancoding.com/sketch -->
    <title>Group 6</title>
    <desc>Created with Sketch.</desc>
    <defs></defs>
    <g id="Page-1" stroke="none" stroke-width="1" fill="none" fill-rule="evenodd">
        <g id="flowers2-copy" transform="translate(-175.000000, -3165.000000)">
            <g id="Group-11" transform="translate(175.000000, 3165.000000)">
                <g id="Group-6">
                    <path d="M48.1565418,48.723491 C47.9698146,45.7968859 46.0466883,44.4086543 44.7022529,42.7577488 C43.4698538,41.2569256 41.9387142,40.5065253 40.1087883,40.5065253 C38.3908987,40.5065253 36.8224142,41.1443656 35.403288,42.4200653 C33.8347801,43.8833678 32.6957616,45.7968887 31.9861985,48.1606852 C34.3763058,48.1982057 36.8130584,48.3389058 39.2965293,48.5827896 C41.7800002,48.8266733 45.5050164,48.2732441 48.1565418,48.723491 Z M43.861985,68.5905383 C44.4968572,68.6280589 45.1130476,68.6655789 45.7105744,68.7030995 C46.3081012,68.7406201 46.8682742,68.7969001 47.3911102,68.8719413 C47.5778373,68.4967355 47.9326136,67.6900551 48.4554496,66.451876 C48.9782855,65.2136969 49.6504932,63.5252962 50.4720926,61.3866232 C51.2190011,59.3980325 51.9285536,57.7096317 52.6007713,56.3213703 C53.272989,54.9331089 53.8705068,53.8262684 54.3933428,53.0008157 C53.4223617,52.7381716 52.4420589,52.5130515 51.4524051,52.3254486 C50.4627513,52.1378457 49.4451037,51.9502456 48.3994317,51.7626427 C48.2127046,56.9780032 46.7002375,62.5872457 43.861985,68.5905383 Z M58.5946824,52.269168 C59.3229185,52.6443733 60.1071607,52.8882534 60.8914147,53.1133768 C61.6756686,53.3385003 62.4599108,53.5823804 63.2441648,53.8450245 C64.1778005,54.1076685 65.0367324,54.3327886 65.8209864,54.5203915 C66.6052404,54.7079944 67.3521377,54.8580745 68.0617008,54.9706362 C69.6302088,55.1957597 70.5825029,55.3083197 70.9186117,55.3083197 C72.0016291,55.3083197 72.729854,54.9518796 73.1033083,54.2389886 C73.2153446,54.0889063 73.3460516,54.0138662 73.4954333,54.0138662 C73.8315422,54.0138662 73.9995941,54.1827063 73.9995941,54.5203915 C73.9995941,54.6329533 73.9809216,54.7267533 73.9435762,54.8017945 C73.1593222,56.002453 71.7588897,56.6027732 69.7422367,56.6027732 C68.024347,56.6027732 65.9890517,56.3026131 63.6362898,55.7022838 C63.5242535,55.6647633 62.982753,55.4959232 62.0117719,55.1957586 C61.0407908,54.8955939 59.6030134,54.4828738 57.6983966,53.9575856 C56.0551978,57.3344378 53.6464539,62.39964 50.4720926,69.1533442 C50.9202377,69.2283854 51.4897469,69.3315654 52.1806373,69.4628874 C52.8715277,69.5942095 53.6837786,69.7536695 54.6174142,69.9412724 C55.3643228,70.0163136 56.0271942,70.1476336 56.6060483,70.3352365 C57.1849024,70.5228394 57.7170668,70.7479595 58.2025573,71.0106036 C59.1735384,71.5358917 59.1735384,71.7985318 58.2025573,71.7985318 C57.2689217,71.7985318 55.9245064,71.6109317 54.1692714,71.2357259 C53.1235994,71.048123 52.2553312,70.888663 51.5644408,70.7573409 C50.8735504,70.6260189 50.3413861,70.5415989 49.9679318,70.5040783 C46.4948071,78.5710028 41.4905949,84.7618055 34.9551451,89.0766721 C28.4196954,93.4290593 21.0627565,95.5489402 12.884108,95.4363785 C8.6640747,95.3988579 5.41507126,94.6109375 3.1370002,93.0725938 C1.04565628,91.721853 0,89.9959322 0,87.8947798 C0,86.7691624 0.298758936,85.6810819 0.896285772,84.6305057 C3.58515653,79.5652275 10.5873191,77.0889065 21.9029836,77.2014682 C23.5835278,77.2389888 25.0213052,77.3421688 26.2163588,77.5110114 C27.4114125,77.679854 28.3823791,77.9518741 29.1292876,78.3270799 C29.8761961,78.7398063 30.2496448,79.0774865 30.2496448,79.3401305 C30.2496448,79.4902128 30.1376102,79.5652529 29.9135376,79.5652529 C29.7641559,79.5652529 29.465397,79.4714528 29.0172519,79.2838499 C28.3076888,78.9086441 25.9549621,78.702284 21.9590014,78.6647635 C12.7346809,78.5146811 6.57277783,80.6720821 3.47310737,85.137031 C2.76354425,86.1876072 2.40876801,87.2381677 2.40876801,88.2887439 C2.40876801,89.789567 3.13699292,90.9902076 4.59346458,91.8907015 C6.19931795,92.9412777 8.64540675,93.5040779 11.9318043,93.5791191 C20.5959435,93.6916808 27.8595201,91.6093199 33.7227522,87.3319739 C38.8017303,83.6174366 43.0777176,77.9706741 46.5508423,70.3915171 C45.7292429,70.2414348 44.571552,70.1851548 43.0777349,70.2226754 C39.7913373,76.5636532 35.7954366,81.6476154 31.0899127,85.4747145 C25.8242075,89.7895811 20.334512,91.796902 14.6206617,91.4967374 C14.3965891,91.4216962 14.3032269,91.3091362 14.3405724,91.1590538 C14.4152632,90.9714509 14.5272978,90.8776509 14.6766795,90.8776509 C19.9797302,90.9902126 25.1333218,88.9641318 30.1376091,84.7993475 C34.5443695,81.1598513 38.3162011,76.3197692 41.453217,70.278956 C38.5776191,70.4665588 35.3846329,70.804239 31.8741628,71.2920065 C28.401038,71.8172946 26.0483114,72.2675348 24.8159123,72.6427406 C24.3677672,72.7928229 23.9756461,72.867863 23.6395372,72.867863 C23.004665,72.867863 23.1166996,72.4176228 23.9756444,71.5171289 C24.6852075,70.7291967 25.3574151,70.1663965 25.9922874,69.8287113 C27.5981408,68.8906968 31.3699723,68.4216966 37.3078953,68.4216966 C38.1294947,68.4216966 38.960418,68.4310766 39.8006901,68.4498369 C40.6409622,68.4685972 41.4905579,68.4967372 42.3495027,68.5342577 C43.8433198,65.4575703 44.9730021,62.502869 45.7385833,59.6700653 C46.5041646,56.8372615 46.9242943,54.1264404 46.9989852,51.5375204 C44.3101144,51.124794 41.6773013,50.8527739 39.1004668,50.7214519 C36.5236323,50.5901298 33.9655089,50.5995099 31.4260199,50.7495922 C31.3886745,51.124798 31.3606658,51.4906181 31.3419931,51.8470636 C31.3233204,52.2035091 31.3139842,52.5693293 31.3139842,52.9445351 C31.3139842,58.1974162 33.461314,62.3058579 37.7560382,65.2699837 C37.9054199,65.3825454 37.9240923,65.5326255 37.812056,65.7202284 C37.7000197,65.9078313 37.5693127,65.9265913 37.419931,65.776509 C34.9551328,64.0880829 33.0505446,62.024482 31.7061092,59.5856444 C30.4737101,57.296889 29.8575198,54.895608 29.8575198,52.3817292 L29.8575198,51.6219413 C29.8575198,51.3780575 29.8761922,51.1247974 29.9135376,50.8621533 C25.7308498,51.2373591 21.949682,52.0065195 18.5699208,53.1696574 C15.1901597,54.3327954 12.5293379,55.758556 10.5873757,57.4469821 C8.90683146,58.9102846 8.06657195,60.2797652 8.06657195,61.5554649 C8.06657195,63.1313292 9.2055904,63.9192496 11.4836615,63.9192496 C12.4172971,63.9192496 13.5002983,63.7504095 14.7326974,63.4127243 C15.1061517,63.3376831 15.3675657,63.3001631 15.5169474,63.3001631 C15.8530563,63.3001631 16.0211082,63.3939632 16.0211082,63.5815661 C16.0211082,63.8817307 15.6476595,64.1443708 14.900751,64.3694943 C13.4442793,64.8197412 12.0811917,65.0448613 10.8114471,65.0448613 C7.97319466,65.0448613 6.19931347,64.1256209 5.48975036,62.2871126 C4.70549638,60.373563 5.28434182,58.3287221 7.22630404,56.1525285 C9.42968425,53.6761703 12.9587742,51.6125694 17.8136797,49.9616639 C21.2868045,48.798526 25.5067744,48.1982057 30.4737163,48.1606852 C31.2579702,45.6468064 32.583713,43.6207255 34.4509844,42.0823817 C36.168874,40.6941203 38.0547898,40 40.1087883,40 C42.2748231,40 44.1047216,40.8066804 45.5985387,42.4200653 C47.2417375,44.1835325 48.1566867,46.6786136 48.3434138,49.9053834 C49.6131584,50.1305068 50.845539,50.3837669 52.0405927,50.6651713 C53.2356463,50.9465756 54.4120096,51.2373558 55.5697179,51.5375204 C56.2045901,50.8996705 56.8767978,50.5432304 57.5863609,50.4681892 C58.4079603,50.4681892 58.8187538,50.8058694 58.8187538,51.4812398 C58.8187538,51.7438839 58.7440641,52.006524 58.5946824,52.269168 Z M79.0412015,51.4249592 C80.7590912,51.3874386 81.6180231,52.3441991 81.6180231,54.2952692 C81.6180231,55.1582425 81.4312988,56.0962429 81.0578445,57.1092985 C79.3026094,62.5122619 74.3170697,68.7593446 66.1010757,75.8507341 C64.3458406,79.0775039 63.4682362,82.2291853 63.4682362,85.3058728 C63.4682362,89.1329718 65.5222039,89.8646121 69.6302009,87.5008157 C70.4518003,87.0130481 71.3013961,86.4033479 72.1790136,85.6716966 C73.0566311,84.9400453 74.1392775,83.9363837 75.1102586,82.8858075 C74.8481722,83.5611746 74.8781356,83.8988581 74.6757249,84.7679689 C70.9534215,88.4553384 67.7217796,90.2480002 64.9807185,90.1460033 C62.1798114,90.1084827 60.7793789,88.4200819 60.7793789,85.0807504 C60.7793789,83.4673655 61.2088449,81.0848445 62.0677897,77.9331158 C62.6653166,75.869484 63.4962399,73.590143 64.5605845,71.0950245 C65.6249292,68.599906 66.9600082,65.8890848 68.5658616,62.9624796 C72.6365131,55.3833226 76.1282582,51.537521 79.0412015,51.4249592 Z M79.265273,56.8841762 C79.6760727,55.7585588 79.8814695,54.8580784 79.8814695,54.182708 C79.8814695,53.2446935 79.5640381,52.7756933 78.9291658,52.7756933 C77.8834939,52.7756933 76.7444754,53.8825338 75.5120763,56.096248 C72.1883333,61.8744171 69.2754337,67.8588597 66.77329,74.0497553 C67.9683437,72.8490968 69.1540432,71.5827962 70.3304242,70.2508157 C71.5068052,68.9188351 72.6551598,67.5024545 73.7755226,66.0016313 C76.4643934,62.4746969 78.2942919,59.4355756 79.265273,56.8841762 Z M77.640755,83.8988581 L77.640755,83.9551387 C77.3419916,85.2683589 77.1926121,86.3189194 77.1926121,87.1068515 C77.1926121,89.1329628 77.920837,90.1460033 79.3773087,90.1460033 C81.0951984,90.1460033 82.588993,89.2267629 83.8587376,87.3882545 C81.095176,86.9755281 79.0225358,85.8124076 77.640755,83.8988581 Z M82.9064339,73.8809135 C81.1511989,75.8319837 79.7320939,78.1394647 78.6490765,80.8034258 C79.3586396,83.8801133 81.35659,85.643554 84.6429876,86.093801 C85.9500776,83.5424016 86.6036127,81.1786406 86.6036127,79.002447 C86.6036127,77.6141856 86.2768452,76.432305 85.6233002,75.45677 C84.9697552,74.4812349 84.0641422,73.9559547 82.9064339,73.8809135 Z M83.9707733,72.8115824 L83.7467018,73.0367047 C85.0911372,73.4869517 86.2114832,74.274872 87.1077735,75.4004894 C88.0040637,76.5261068 88.4522022,77.7642673 88.4522022,79.1150082 C88.4522022,81.5163252 87.8173394,83.8050462 86.5475949,85.9812398 L86.4355592,86.2063622 C89.9086839,86.0938004 92.901659,84.8743993 95.1050393,82.6606852 C94.7795448,83.2797716 94.4919709,83.8988581 94.3177413,84.576827 C91.7761919,86.4886409 88.868731,87.4445351 85.5952913,87.4445351 C84.5869647,88.7202348 83.391929,89.7614152 82.0101482,90.5681077 C80.6283674,91.3748001 79.3399694,91.7781403 78.1449158,91.7781403 C75.6054267,91.7781403 74.3730461,90.2773396 74.447737,87.2756933 C74.447737,85.2120615 74.9892375,82.7545004 76.0722549,79.9029364 C76.0349095,79.6027717 76.0069008,79.2838516 75.9882281,78.9461664 C75.9695554,78.6084812 75.9602192,78.270801 75.9602192,77.9331158 C75.9602192,74.8189078 77.4726863,73.092987 80.4976659,72.7553018 C81.3192653,71.8172873 82.0474902,71.3482871 82.6823625,71.3482871 C83.7280345,71.3482871 84.2508626,71.6484472 84.2508626,72.2487765 C84.2508626,72.4363794 84.1575004,72.6239795 83.9707733,72.8115824 Z M116.79724,77.2014682 C116.610513,79.1525383 115.994322,80.653339 114.94865,81.7039152 C115.172723,82.6419296 115.630197,83.42985 116.321088,84.0676998 C117.011978,84.7055497 117.805557,85.0244698 118.701847,85.0244698 C120.008937,85.0244698 121.241318,84.3303495 122.399026,82.9420881 C122.22576,83.4486134 122.057526,84.180261 122.057526,84.4669719 C120.847717,85.4014467 119.579784,85.8686786 118.253704,85.8686786 C116.498469,85.8686786 115.116709,85.0807583 114.108382,83.504894 C113.286783,85.643567 112.259799,87.3319677 111.0274,88.5701468 C109.795001,89.8083259 108.63731,90.4274062 107.554293,90.4274062 C105.911094,90.4274062 105.089507,89.1892457 105.089507,86.7128874 C105.089507,86.4502434 105.098843,86.1969833 105.117516,85.9530995 C105.136188,85.7092157 105.164197,85.4559556 105.201543,85.1933116 C105.014815,85.3809145 104.267918,86.4314749 102.960828,88.3450245 C101.989847,89.7332859 100.850829,90.8870264 99.5437386,91.8062806 C98.2366486,92.7255348 97.0602853,93.185155 96.0146134,93.185155 C94.2593783,93.185155 93.3817739,91.9469944 93.3817739,89.4706362 C93.3817739,88.6076629 93.5311534,87.4820624 93.8299168,86.093801 C94.2033711,84.4053749 95.0062857,82.5668941 96.2386848,80.5783034 C97.2096659,79.0024391 98.2366498,77.7267585 99.3196671,76.7512235 C100.066576,76.0383325 100.832145,75.6818923 101.616399,75.6818923 C102.325963,75.6818923 102.680739,75.9445324 102.680739,76.4698206 C102.680739,76.6574235 102.606049,76.8262635 102.456667,76.9763458 C100.738778,78.7022925 98.9835689,81.4412537 97.1909884,85.1933116 C96.107971,87.5571081 95.5664705,89.2642688 95.5664705,90.314845 C95.5664705,91.2903801 95.9585916,91.7781403 96.7428455,91.7781403 C98.2740081,91.7781403 100.085234,90.4461797 102.176578,87.7822186 C103.22225,86.4314777 104.146535,84.9869571 104.949462,83.4486134 C105.752389,81.9102696 106.527295,80.390709 107.274203,78.8898858 C107.423585,78.5522006 107.927741,78.3833605 108.786686,78.3833605 C109.720321,78.3833605 110.187132,78.7398007 110.187132,79.4526917 C109.701642,80.315665 109.290848,81.1411054 108.954739,81.9290375 C108.61863,82.7169697 108.319871,83.46737 108.058453,84.180261 C107.647654,85.4184401 107.442257,86.3939605 107.442257,87.1068515 C107.442257,88.1574278 107.797033,88.682708 108.506596,88.682708 C109.216159,88.682708 110.075091,88.1011477 111.083418,86.9380098 C112.12909,85.7748718 112.969349,84.3115912 113.604222,82.548124 C112.969349,81.2349037 112.74528,79.7341031 112.932007,78.045677 C113.118734,75.6068394 113.865632,74.3874388 115.172722,74.3874388 C115.695558,74.3874388 116.115687,74.6406989 116.433124,75.1472268 C116.75056,75.6537546 116.871931,76.3384949 116.79724,77.2014682 Z M140.75132,85.137031 C139.013091,86.7128874 138.532184,86.9004819 135.619241,88.4013051 C132.407534,90.0897311 129.606669,90.9339315 127.216562,90.9339315 C123.743437,90.9339315 122.006901,89.0204107 122.006901,85.1933116 C122.006901,83.8050502 122.473712,82.1541694 123.407347,80.2406199 C124.340983,78.2145086 125.517346,76.5261079 126.936472,75.175367 C128.542326,73.6370233 130.054793,72.867863 131.473919,72.867863 C133.341191,72.867863 134.274812,73.7871034 134.274812,75.6256117 C134.274812,76.7512291 133.789329,77.9518696 132.818348,79.2275693 C131.100458,81.3662423 128.598352,82.848283 125.311955,83.6737357 C125.162573,84.3115856 125.087883,84.9869459 125.087883,85.6998369 C125.087883,88.2512362 126.264246,89.5269168 128.617008,89.5269168 C130.48428,89.5269168 132.799661,88.7577565 135.563223,87.2194127 C136.832968,86.5065217 139.332198,85.174555 139.96707,84.4616639 C140.676633,83.7112524 141.03141,83.6737323 141.03141,84.3491028 C141.03141,84.5742262 140.938048,84.8368664 140.75132,85.137031 Z M131.697991,78.3833605 C132.407554,77.182702 132.76233,76.1509015 132.76233,75.2879282 C132.76233,74.6125578 132.538261,74.2748777 132.090116,74.2748777 C131.305862,74.2748777 130.222861,75.1941181 128.84108,77.0326264 C127.496644,78.9086554 126.432316,80.7846562 125.648062,82.6606852 C128.59835,81.7226707 130.614973,80.2969101 131.697991,78.3833605 Z M167.941547,83.8425775 C163.83355,87.4070325 160.323132,89.7145135 157.410189,90.7650897 C155.879026,91.3278984 154.590628,91.6092985 153.544956,91.6092985 C150.893431,91.6092985 149.549016,90.1835379 149.51167,87.3319739 C149.43698,85.2308215 150.314584,82.5669003 152.14451,79.3401305 C151.210874,79.4526922 150.33327,79.1525321 149.51167,78.4396411 C148.727416,77.6892295 148.353968,76.8450292 148.391313,75.9070147 C146.860151,78.7960993 145.664981,80.6533311 142.490619,83.2797716 C142.229201,83.5424157 141.930442,83.6737357 141.594334,83.6737357 C141.370261,83.6737357 140.586355,84.1427416 140.586355,83.9551387 C140.586355,83.7675358 140.644728,83.7862969 141.681014,82.7732463 C144.26317,80.2489854 145.646428,78.1207362 147.551045,74.4437194 C147.401664,74.030993 147.326974,73.7308329 147.326974,73.54323 C147.214938,73.0554625 147.15892,72.5301823 147.15892,71.9673736 C147.15892,70.5415916 147.569714,69.3972311 148.391313,68.5342577 C149.100876,67.7463256 149.903791,67.3523654 150.800081,67.3523654 C151.883099,67.3523654 152.443272,67.8776456 152.480617,68.9282219 C152.592653,70.3915244 151.603014,72.3800853 149.51167,74.8939641 C149.474325,76.0571021 150.071843,76.6386623 151.304242,76.6386623 C151.752387,76.6386623 152.321896,76.5354823 153.012787,76.3291191 C153.703677,76.1227559 154.198497,76.0195759 154.49726,76.0195759 C155.617623,76.0195759 156.177796,76.5823761 156.177796,77.7079935 C156.177796,78.1207198 156.028416,78.58972 155.729653,79.1150082 C155.542926,79.4151728 155.30952,79.837273 155.02943,80.3813214 C154.749339,80.9253698 154.441244,81.57259 154.105135,82.3230016 C153.358226,83.9739071 152.891416,85.2120677 152.704688,86.0375204 C152.592652,86.5628085 152.536635,87.0318087 152.536635,87.4445351 C152.536635,88.9828788 153.26486,89.7520392 154.721331,89.7520392 C156.551257,89.7520392 158.829294,88.9453588 161.55551,87.3319739 C162.750564,86.6566035 163.833565,85.9531032 164.804546,85.2214519 C165.775527,84.4898006 166.634459,83.7487803 167.381368,82.9983687 C167.717477,82.6606835 167.997563,82.4918434 168.221636,82.4918434 C168.445708,82.4918434 168.557743,82.6044034 168.557743,82.8295269 C168.557743,83.092171 168.352346,83.4298511 167.941547,83.8425775 Z M172.086868,88.7389886 C170.630397,88.2512211 169.379344,87.4820607 168.333672,86.4314845 C168.333672,87.2194167 168.604422,87.8666369 169.145931,88.3731648 C169.687439,88.8796926 170.275621,89.1329527 170.910493,89.1329527 C171.433329,89.1329527 171.82545,89.0016326 172.086868,88.7389886 Z M179.593262,87.8947798 C182.767623,87.1068476 185.493798,85.4184469 187.771869,82.8295269 C187.837979,82.7298969 187.91506,82.6523133 188.003112,82.5967756 C188.114023,82.5268206 187.703908,83.2797716 187.542083,84.5278838 C184.695541,87.1137845 181.989939,88.6300337 179.425208,89.0766721 C177.483246,89.4143573 175.67202,89.4518773 173.991476,89.1892333 C173.431294,90.2022889 172.572362,90.7088091 171.414654,90.7088091 C170.555709,90.7088091 169.771467,90.436789 169.061904,89.8927406 C168.352341,89.3486922 167.904202,88.6827119 167.717475,87.8947798 C167.306675,86.3939566 167.250658,85.4934762 167.549422,85.1933116 C167.586767,84.7055441 167.810836,84.4616639 168.221636,84.4616639 C168.333672,84.4616639 168.427034,84.499184 168.501725,84.5742251 C169.584743,85.8874454 170.966503,86.8817258 172.647047,87.5570962 C172.684392,87.1068493 172.609703,86.525289 172.422975,85.812398 C172.273594,85.3246305 172.096206,84.8743903 171.890806,84.4616639 C171.685406,84.0489376 171.452,83.6549774 171.190583,83.2797716 C169.771456,81.3287015 169.155266,79.3589006 169.341993,77.37031 C169.678102,73.3931286 172.329588,70.4853273 177.296529,68.6468189 C178.939728,68.0464897 180.508213,67.8401296 182.00203,68.0277325 C183.682574,68.2528559 184.522833,69.1720963 184.522833,70.7854812 C184.522833,71.9861398 184.130712,73.1492603 183.346458,74.2748777 C183.010349,74.7251246 182.711591,75.0065247 182.450173,75.1190865 C182.188755,75.156607 182.058047,75.044047 182.058047,74.7814029 C182.058047,74.6313206 182.15141,74.3686805 182.338137,73.9934747 C182.748936,73.2430631 182.954333,72.6052229 182.954333,72.0799347 C182.954333,71.1419203 182.338143,70.6729201 181.105744,70.6729201 C180.956362,70.6729201 180.797646,70.6823001 180.629592,70.7010604 C180.461538,70.7198206 180.28415,70.7479607 180.097422,70.7854812 C176.026771,71.5358928 173.300596,73.8996538 171.918815,77.8768352 C171.732088,78.5522057 171.638725,79.1337659 171.638725,79.6215334 C171.638725,80.6721097 172.086864,81.9477902 172.983154,83.4486134 C173.91679,84.9869571 174.402273,86.2063577 174.439618,87.1068515 L174.439618,87.6133768 C174.439618,87.7634592 174.420946,87.9135392 174.383601,88.0636215 C176.064145,88.4013067 177.800681,88.3450267 179.593262,87.8947798 Z M203.786462,85.4918537 C199.916075,89.0073594 196.127733,90.7650897 192.421352,90.7650897 C189.134954,90.7650897 187.49178,88.9828889 187.49178,85.4184339 C187.49178,83.092158 188.668143,80.5220369 191.020905,77.7079935 C193.560394,74.7063471 195.987811,73.2055465 198.303227,73.2055465 C200.207844,73.2055465 201.160138,74.0685069 201.160138,75.7944535 C201.160138,76.3947828 200.936069,77.1639431 200.487924,78.1019576 C200.301197,78.514684 200.114472,78.8617441 199.927745,79.1431485 C199.741018,79.4245528 199.572966,79.6590529 199.423584,79.8466558 C199.236857,80.0342587 199.087478,80.1280587 198.975441,80.1280587 C198.601987,80.1280587 198.564642,79.8466586 198.863406,79.2838499 C199.274205,78.5334383 199.479602,77.9143581 199.479602,77.4265905 C199.479602,76.7136995 199.050136,76.3572594 198.191191,76.3572594 C197.070829,76.3572594 195.93181,76.8074996 194.774102,77.7079935 C194.027193,78.2708022 193.354986,78.9086424 192.757459,79.6215334 C192.159932,80.3344244 191.655776,81.0660648 191.244977,81.8164763 C190.834177,82.5668879 190.507409,83.3172883 190.264664,84.0676998 C190.021919,84.8181114 189.900548,85.5309917 189.900548,86.2063622 C189.900548,88.3825557 191.020894,89.4706362 193.26162,89.4706362 C194.456673,89.4706362 195.894451,89.1329561 197.574995,88.4575856 C199.853066,87.5195712 202.393819,85.5872892 204.970653,82.8858075 C204.487385,83.7862969 203.996656,84.7993475 203.786462,85.4918537 Z M226.389846,86.4223869 C223.225307,89.166924 220.454553,90.4081194 218.077532,90.1460033 C217.069205,90.0334415 216.135584,89.4143613 215.276639,88.2887439 C214.417694,87.0130442 213.894866,85.4184435 213.708139,83.504894 C212.998576,84.480429 212.279687,85.3715294 211.551451,86.1782219 C210.823215,86.9849143 210.048309,87.7259346 209.22671,88.4013051 C207.732893,89.6019636 206.500512,90.2022838 205.529531,90.2022838 C204.14775,90.2022838 203.45687,89.3205635 203.45687,87.5570962 C203.45687,86.0562731 204.052978,84.3866312 205.09865,82.7732463 C207.526103,79.058709 210.178998,76.6011491 213.203978,75.175367 C214.511068,74.5750378 215.724776,74.2748777 216.845139,74.2748777 C217.143902,74.2748777 217.47067,74.3217777 217.825452,74.4155791 C218.180233,74.5093806 218.516337,74.6407006 218.833773,74.8095432 C219.151209,74.9783858 219.412623,75.1753659 219.618023,75.4004894 C219.823423,75.6256129 219.926121,75.888253 219.926121,76.1884176 C219.926121,76.3009794 219.860768,76.4041594 219.730059,76.4979608 C219.59935,76.5917623 219.44997,76.6668023 219.281916,76.7230832 C219.113862,76.7793641 218.955146,76.8450241 218.805764,76.9200653 C218.656382,76.9951064 218.581693,77.0513864 218.581693,77.088907 C217.199912,79.6027858 216.509032,82.0040669 216.509032,84.2928222 C216.509032,87.1443862 217.610705,88.5701468 219.814086,88.5701468 C221.978644,88.5701468 224.649048,86.9470338 227.825367,83.7007622 C227.488533,84.2928222 226.921757,85.4184339 226.389846,86.4223869 Z M215.276639,76.2446982 C212.176968,76.169657 209.50681,78.345818 207.266085,82.7732463 C206.631213,83.9739049 206.313781,85.0432253 206.313781,85.9812398 C206.313781,86.9942954 206.668557,87.5008157 207.378121,87.5008157 C208.050338,87.5008157 208.927943,87.0505755 210.01096,86.1500816 C211.952922,84.4991761 213.222648,82.8482954 213.820175,81.1973899 C214.081593,79.3213609 214.567076,77.6704802 215.276639,76.2446982 Z M249.055409,59.1916803 C247.00141,63.3564645 242.576044,68.4404268 235.779176,74.4437194 C237.945832,74.4782721 239.732412,74.5048695 241.138961,74.5235124 C241.172915,74.5239624 240.960478,75.1857854 240.902724,75.4004894 C240.84497,75.6151934 240.596712,76.41354 240.596712,76.41354 C240.596712,76.41354 236.99291,76.4885806 234.266694,76.5261011 C233.07164,78.8898976 231.587182,81.7789389 229.813274,85.1933116 C228.039366,88.6076843 225.938717,92.566046 223.511264,97.0685155 C221.270539,100.895615 218.880467,103.747136 216.340978,105.623165 C213.353344,107.8744 209.880271,109 205.921656,109 C203.680931,109 201.925722,108.36216 200.655977,107.08646 C199.460924,105.960843 198.863406,104.553842 198.863406,102.865416 C198.863406,101.214511 199.460924,99.7512299 200.655977,98.4755302 C200.805359,98.2504067 200.992083,98.1378467 201.216156,98.1378467 C201.440228,98.1378467 201.552263,98.2691667 201.552263,98.5318108 C201.552263,98.6818931 201.458901,98.8882532 201.272174,99.1508972 C200.413229,100.013871 199.983763,101.158231 199.983763,102.584013 C199.983763,104.047316 200.431901,105.247956 201.328192,106.185971 C202.336518,107.311588 203.736951,107.874388 205.529531,107.874388 C208.143711,107.874388 210.888559,106.767548 213.764157,104.553834 C216.527718,102.340119 218.99248,99.3947982 221.158514,95.7177814 C223.100477,92.4159704 224.921039,89.170489 226.620256,85.9812398 C228.319473,82.7919906 229.915966,79.6027892 231.409783,76.41354 C230.550838,76.4510605 229.915975,76.4698206 229.505176,76.4698206 L228.944997,76.4698206 C227.787289,76.4323 227.152426,76.0758598 227.04039,75.4004894 C226.928353,74.8376807 227.320475,74.5562806 228.216765,74.5562806 L232.194033,74.5562806 C233.501123,71.667196 234.59346,69.284675 235.471078,67.408646 C236.348695,65.532617 237.030239,64.1256164 237.51573,63.187602 C238.785474,60.7487643 239.999182,58.6664034 241.156891,56.9404568 C242.314599,55.2145101 243.434945,53.8262695 244.517962,52.7756933 C245.67567,51.6875965 246.683982,51.1435563 247.542927,51.1435563 C249.186126,51.1435563 250.007713,52.4567569 250.007713,55.0831974 C250.007713,56.4714588 249.690281,57.8409394 249.055409,59.1916803 Z M247.374873,58.2349103 C248.084436,56.7716077 248.439213,55.4959271 248.439213,54.4078303 C248.439213,53.6949393 248.252488,53.3384992 247.879034,53.3384992 C247.057434,53.3384992 245.843726,54.7642598 244.237873,57.6158238 C242.856092,60.0546615 241.446323,62.6154026 240.008524,65.298124 C238.570726,67.9808454 237.067595,70.8042266 235.499087,73.7683524 C241.138246,68.4029096 245.096802,63.2251473 247.374873,58.2349103 Z M262.779785,59.1916803 C260.725786,63.3564645 256.30042,68.4404268 249.503552,74.4437194 C251.856314,74.48124 253.760902,74.50938 255.217374,74.5281403 C256.673845,74.5469006 257.663484,74.5375206 258.18632,74.5 C258.746502,74.6876029 259.026588,74.931483 259.026588,75.2316476 C259.026588,75.7944563 258.354381,76.1508965 257.009945,76.3009788 C256.711182,76.3384994 255.814905,76.3760194 254.321088,76.41354 C252.827271,76.4510605 250.717286,76.4885806 247.99107,76.5261011 C246.796016,78.8898976 245.311557,81.7789389 243.53765,85.1933116 C241.763742,88.6076843 239.663093,92.566046 237.23564,97.0685155 C234.994915,100.895615 232.604843,103.747136 230.065354,105.623165 C227.07772,107.8744 223.604647,109 219.646032,109 C217.405306,109 215.650098,108.36216 214.380353,107.08646 C213.185299,105.960843 212.587782,104.553842 212.587782,102.865416 C212.587782,101.214511 213.185299,99.7512299 214.380353,98.4755302 C214.529735,98.2504067 214.716459,98.1378467 214.940532,98.1378467 C215.164604,98.1378467 215.276639,98.2691667 215.276639,98.5318108 C215.276639,98.6818931 215.183277,98.8882532 214.99655,99.1508972 C214.137605,100.013871 213.708139,101.158231 213.708139,102.584013 C213.708139,104.047316 214.156277,105.247956 215.052567,106.185971 C216.060894,107.311588 217.461327,107.874388 219.253907,107.874388 C221.868087,107.874388 224.612935,106.767548 227.488533,104.553834 C230.252094,102.340119 232.716855,99.3947982 234.88289,95.7177814 C236.824852,92.4159704 238.645415,89.170489 240.344632,85.9812398 C242.043849,82.7919906 243.640342,79.6027892 245.134159,76.41354 C244.275214,76.4510605 240.596712,76.41354 240.596712,76.41354 C240.918452,75.45677 241.138961,74.5235124 241.138961,74.5235124 L245.918409,74.5562806 C247.225499,71.667196 248.317836,69.284675 249.195454,67.408646 C250.073071,65.532617 250.754615,64.1256164 251.240106,63.187602 C252.50985,60.7487643 253.723558,58.6664034 254.881266,56.9404568 C256.038975,55.2145101 257.159321,53.8262695 258.242338,52.7756933 C259.400046,51.6875965 260.408358,51.1435563 261.267303,51.1435563 C262.910501,51.1435563 263.732088,52.4567569 263.732088,55.0831974 C263.732088,56.4714588 263.414657,57.8409394 262.779785,59.1916803 Z M261.099249,58.2349103 C261.808812,56.7716077 262.163588,55.4959271 262.163588,54.4078303 C262.163588,53.6949393 261.976864,53.3384992 261.60341,53.3384992 C260.78181,53.3384992 259.568102,54.7642598 257.962249,57.6158238 C256.580468,60.0546615 255.170699,62.6154026 253.7329,65.298124 C252.295101,67.9808454 250.79197,70.8042266 249.223463,73.7683524 C254.862622,68.4029096 258.821178,63.2251473 261.099249,58.2349103 Z M275.719911,83.6737357 C274.375475,85.3246412 272.246818,86.9004819 269.333875,88.4013051 C266.122168,90.0897311 263.321303,90.9339315 260.931195,90.9339315 C257.458071,90.9339315 255.721534,89.0204107 255.721534,85.1933116 C255.721534,83.8050502 256.188345,82.1541694 257.121981,80.2406199 C258.055617,78.2145086 259.23198,76.5261079 260.651106,75.175367 C262.25696,73.6370233 263.769427,72.867863 265.188553,72.867863 C267.055824,72.867863 267.989446,73.7871034 267.989446,75.6256117 C267.989446,76.7512291 267.503963,77.9518696 266.532982,79.2275693 C264.815092,81.3662423 262.312986,82.848283 259.026588,83.6737357 C258.877206,84.3115856 258.802517,84.9869459 258.802517,85.6998369 C258.802517,88.2512362 259.97888,89.5269168 262.331642,89.5269168 C264.198913,89.5269168 266.514295,88.7577565 269.277857,87.2194127 C270.547601,86.5065217 271.649275,85.8030214 272.58291,85.1088907 C273.516546,84.41476 274.300788,83.7112597 274.935661,82.9983687 C275.645224,82.2479571 276,82.2104371 276,82.8858075 C276,83.110931 275.906638,83.3735711 275.719911,83.6737357 Z M265.412624,78.3833605 C266.122187,77.182702 266.476964,76.1509015 266.476964,75.2879282 C266.476964,74.6125578 266.252894,74.2748777 265.804749,74.2748777 C265.020495,74.2748777 263.937494,75.1941181 262.555713,77.0326264 C261.211278,78.9086554 260.146949,80.7846562 259.362695,82.6606852 C262.312984,81.7226707 264.329607,80.2969101 265.412624,78.3833605 Z" id="Flowerscaffe-Copy" fill="#A5A5A5"></path>
                    <g id="Group-10" transform="translate(105.000000, 0.000000)">
                        <g id="Слой_1">
                            <path d="M37.5396825,36.2878439 C43.9612947,29.1308538 53.6043405,26.2483107 61.1465252,29.2304627 C66.4688199,31.335357 66.7935989,33.0391942 62.6199336,36.968505 C55.0726477,44.0730694 43.2879309,43.7532722 37.5396825,36.2878439 Z M60.1588626,34.0248723 C60.1588626,31.8603696 56.8266243,31.2864263 55.4969009,31.107305 C49.40942,30.2807255 44.1381377,32.5717312 39.3259671,36.3638612 C45.1864427,38.6120526 60.1588626,36.1893751 60.1588626,34.0248723 Z" id="Shape" fill="#E63A5C"></path>
                            <path d="M-7.531753e-13,35.4107947 C6.42161214,28.2538046 16.0646579,25.3712615 23.6068427,28.3534135 C28.9291374,30.4583078 29.2539164,32.1621451 25.0802511,36.0914558 C17.5329651,43.1960202 5.74824834,42.876223 -7.531753e-13,35.4107947 Z M22.6191801,33.1478232 C23.4991442,32.087949 19.2869418,30.4093771 17.9572183,30.2302558 C11.8697375,29.4036763 6.59845516,31.694682 1.78628454,35.4868121 C7.64676017,37.7350034 22.0333186,36.669821 22.6191801,33.1478232 Z" id="Shape" fill="#E63A5C" transform="translate(13.968254, 34.204918) scale(-1, 1) translate(-13.968254, -34.204918) "></path>
                            <path d="M46.8419282,49.6637629 C51.5086843,51.8382192 52.6199404,50.6359281 51.024611,45.948133 C54.674685,47.3598566 58.1626682,52.8577581 57.5482888,55.3678694 C56.9339093,57.8779807 52.1108312,57.4838869 46.248821,54.3462661 C40.3868108,51.2086452 35.1700168,44.6524181 34.047619,42.9754098 C34.047619,42.9754098 42.785907,47.7738762 46.8419282,49.6637629 Z" id="Shape" fill="#E63A5C"></path>
                            <path d="M30.5555556,42.9754098 C26.6453339,48.5393134 23.4094961,53.1826125 16.6450727,54.9177876 C15.2578544,55.2736999 12.4783076,55.6212793 11.2723537,54.4188529 C10.0663998,53.2164264 10.4053423,51.0438509 11.1379669,49.9243301 C12.6517689,47.6080233 14.9025307,45.7240719 16.8507054,43.6617534 C16.8507054,43.6617534 14.2208344,49.1244781 15.9351413,50.755206 C17.6494483,52.385934 30.5555556,42.9754098 30.5555556,42.9754098 Z" id="Shape" fill="#E63A5C"></path>
                            <path d="M35.9572632,12.2786885 C41.9572982,19.1832546 41.1794821,29.2428215 35.8505757,32.4508197 C36.3840134,29.4274843 37.3752046,26.5407827 37.230219,23.7021101 C37.1299145,21.7337539 36.3267431,17.8980679 34.4946407,17.8980679 C32.6625383,17.8980679 30.5663504,21.2277945 30.0183228,23.2143685 C29.2450661,26.0141212 29.8231849,29.1210931 29.8231849,31.3353903 C25.8556846,25.786398 28.2602579,16.9217566 35.9572632,12.2786885 Z" id="Shape" fill="#E63A5C"></path>
                            <path d="M38.4126984,13.1259503 C38.6993613,9.91461997 41.8036298,5.29318109 43.8185793,5.26247386 C45.8543014,5.23176662 47.5044827,9.16148462 47.0740729,13.5178716 C46.608765,18.2265837 45.6964291,22.8221638 41.8476679,26.3114754 C42.6187496,23.2407519 46.3981659,11.7910413 43.8185793,11.2331738 C41.2389927,10.6753063 38.4126984,13.1259503 38.4126984,13.1259503 Z" id="Shape" fill="#E63A5C"></path>
                            <path d="M17.4603175,13.1259503 C17.7469804,9.91461997 20.8512489,5.29318109 22.8661983,5.26247386 C24.9019205,5.23176662 26.5521018,9.16148462 26.1216919,13.5178716 C25.656384,18.2265837 24.7440481,22.8221638 20.895287,26.3114754 C21.6663687,23.2407519 25.445785,11.7910413 22.8661983,11.2331738 C20.2866117,10.6753063 17.4603175,13.1259503 17.4603175,13.1259503 Z" id="Shape-Copy" fill="#E63A5C" transform="translate(21.825397, 15.786885) scale(-1, 1) rotate(5.000000) translate(-21.825397, -15.786885) "></path>
                            <path d="M29.6825397,8.7704918 C29.6825397,6.00029343 30.2455739,-6.65832084e-16 33.3904245,4.4408921e-15 C36.5352751,9.43730669e-15 37.8709047,5.8521947 37.4705453,8.7704918 C37.4705453,8.7704918 35.6953906,4.35961906 33.8381547,4.3852459 C31.9809187,4.41087274 29.6825397,8.7704918 29.6825397,8.7704918 Z" id="Shape" fill="#E63A5C"></path>
                            <polygon id="Shape" fill="#E53A5C" points="33.2560143 58.7622951 32.3015873 51.1186685 33.8453417 50.8688525 34.9206349 58.4733287"></polygon>
                        </g>
                        <path d="M107.380952,105.118302 L108.690476,104.152909 L109.940321,106.215987 C109.940321,106.215987 109.614665,106.786923 109.378537,106.901924 C109.142409,107.016925 108.95317,106.730526 108.95317,106.730526 C108.95317,106.730526 108.148246,106.441545 107.882134,106.105794 C107.616022,105.770044 107.380952,105.118302 107.380952,105.118302 Z" id="Path-3" fill="#A5A5A5"></path>
                        <path d="M33.1746032,85.7410993 C33.1746032,85.7410993 35.7532045,83.7349438 36.4474264,83.072832 C37.1416482,82.4107203 38.8181594,80.6885246 38.8181594,80.6885246 L40.1587302,80.7726183 C40.1587302,80.7726183 39.0720983,82.0344624 37.9833225,83.1357058 C36.8945466,84.2369492 34.7918343,85.9508197 34.7918343,85.9508197 L33.1746032,85.7410993 Z" id="Path-4" fill="#A5A5A5"></path>
                    </g>
                </g>
            </g>
        </g>
    </g>
</svg>