<svg id="SvgjsSvg1000" xmlns="http://www.w3.org/2000/svg" version="1.1" xmlns:xlink="http://www.w3.org/1999/xlink" xmlns:svgjs="http://svgjs.com/svgjs" width="20" height="20" viewBox="0 0 20 20"><title>WhatsApp</title><desc>Created with Avocode.</desc><defs id="SvgjsDefs1001"></defs><path id="SvgjsPath1007" d="M1016 3288.74C1016 3294.12 1011.6 3298.4799999999996 1006.18 3298.4799999999996C1004.4599999999999 3298.4799999999996 1002.8399999999999 3298.0399999999995 1001.4399999999999 3297.2699999999995L995.9999999999999 3298.9999999999995L997.7699999999999 3293.7699999999995C996.8799999999999 3292.2999999999997 996.3599999999999 3290.5799999999995 996.3599999999999 3288.7399999999993C996.3599999999999 3283.359999999999 1000.7599999999999 3278.9999999999995 1006.18 3278.9999999999995C1011.6099999999999 3278.9999999999995 1016 3283.3599999999997 1016 3288.7399999999993ZM1006.18 3280.55C1001.63 3280.55 997.93 3284.23 997.93 3288.7400000000002C997.93 3290.53 998.51 3292.19 999.5 3293.5400000000004L998.47 3296.5900000000006L1001.64 3295.5800000000004C1002.9399999999999 3296.4300000000003 1004.51 3296.9300000000003 1006.18 3296.9300000000003C1010.7299999999999 3296.9300000000003 1014.4399999999999 3293.26 1014.4399999999999 3288.7400000000002C1014.4399999999999 3284.23 1010.7299999999999 3280.55 1006.18 3280.55ZM1011.14 3290.99C1011.08 3290.89 1010.92 3290.83 1010.68 3290.7099999999996C1010.4399999999999 3290.5899999999997 1009.25 3290.0099999999998 1009.03 3289.9299999999994C1008.81 3289.8499999999995 1008.65 3289.8099999999995 1008.49 3290.0499999999993C1008.33 3290.289999999999 1007.87 3290.8299999999995 1007.73 3290.9899999999993C1007.59 3291.149999999999 1007.45 3291.169999999999 1007.21 3291.0499999999993C1006.97 3290.9299999999994 1006.19 3290.669999999999 1005.27 3289.859999999999C1004.56 3289.229999999999 1004.0699999999999 3288.4499999999994 1003.93 3288.209999999999C1003.79 3287.9699999999993 1003.92 3287.8399999999992 1004.04 3287.7199999999993C1004.15 3287.609999999999 1004.28 3287.439999999999 1004.4 3287.2999999999993C1004.52 3287.1599999999994 1004.56 3287.0599999999995 1004.64 3286.899999999999C1004.72 3286.7399999999993 1004.68 3286.609999999999 1004.62 3286.4899999999993C1004.5600000000001 3286.3699999999994 1004.08 3285.189999999999 1003.88 3284.709999999999C1003.68 3284.2399999999993 1003.48 3284.309999999999 1003.34 3284.309999999999C1003.2 3284.309999999999 1003.0400000000001 3284.289999999999 1002.88 3284.289999999999C1002.72 3284.289999999999 1002.46 3284.349999999999 1002.23 3284.5899999999992C1002.01 3284.829999999999 1001.39 3285.4099999999994 1001.39 3286.5899999999992C1001.39 3287.7599999999993 1002.25 3288.899999999999 1002.38 3289.0499999999993C1002.5 3289.209999999999 1004.04 3291.6999999999994 1006.49 3292.6599999999994C1008.9300000000001 3293.6199999999994 1008.9300000000001 3293.2999999999993 1009.37 3293.2599999999993C1009.82 3293.2199999999993 1010.8 3292.6799999999994 1011 3292.1199999999994C1011.2 3291.5599999999995 1011.2 3291.0899999999992 1011.14 3290.9899999999993Z " fill="#bdbdbd" fill-opacity="1" transform="matrix(1,0,0,1,-996,-3279)"></path></svg>