<svg id="SvgjsSvg1012" xmlns="http://www.w3.org/2000/svg" version="1.1" xmlns:xlink="http://www.w3.org/1999/xlink" xmlns:svgjs="http://svgjs.com/svgjs" width="19" height="19" viewBox="0 0 19 19"><title>Shape</title><desc>Created with Avocode.</desc><defs id="SvgjsDefs1013"></defs><path id="SvgjsPath1014" d="M926.68 3279H918.2099999999999C915.3399999999999 3279 912.9999999999999 3281.34 912.9999999999999 3284.21V3292.68C912.9999999999999 3295.56 915.3399999999999 3297.8999999999996 918.2099999999999 3297.8999999999996H926.68C929.56 3297.8999999999996 931.9 3295.5599999999995 931.9 3292.68V3284.21C931.9 3281.34 929.56 3279 926.68 3279ZM926.68 3296.22H918.2099999999999C916.2599999999999 3296.22 914.68 3294.6299999999997 914.68 3292.68V3284.21C914.68 3282.26 916.26 3280.68 918.2099999999999 3280.68H926.68C928.63 3280.68 930.2199999999999 3282.2599999999998 930.2199999999999 3284.21V3292.68C930.2199999999999 3294.6299999999997 928.6299999999999 3296.22 926.68 3296.22Z " fill="#bdbdbd" fill-opacity="1" transform="matrix(1,0,0,1,-913,-3279)"></path><path id="SvgjsPath1015" d="M922.87 3284C920.18 3284 918 3286.18 918 3288.87C918 3291.5499999999997 920.18 3293.74 922.87 3293.74C925.55 3293.74 927.74 3291.5499999999997 927.74 3288.87C927.74 3286.18 925.55 3284 922.87 3284ZM922.87 3292.06C921.11 3292.06 919.68 3290.63 919.68 3288.87C919.68 3287.1099999999997 921.1099999999999 3285.68 922.87 3285.68C924.63 3285.68 926.0600000000001 3287.1099999999997 926.0600000000001 3288.87C926.0600000000001 3290.63 924.6300000000001 3292.06 922.87 3292.06Z " fill="#bdbdbd" fill-opacity="1" transform="matrix(1,0,0,1,-913,-3279)"></path><path id="SvgjsPath1016" d="M927.23 3282C926.91 3282 926.59 3282.13 926.36 3282.36C926.13 3282.59 926 3282.9100000000003 926 3283.23C926 3283.55 926.13 3283.87 926.36 3284.1C926.59 3284.33 926.91 3284.46 927.23 3284.46C927.5500000000001 3284.46 927.87 3284.33 928.1 3284.1C928.33 3283.87 928.46 3283.5499999999997 928.46 3283.23C928.46 3282.91 928.33 3282.59 928.1 3282.36C927.87 3282.13 927.5500000000001 3282 927.23 3282Z " fill="#bdbdbd" fill-opacity="1" transform="matrix(1,0,0,1,-913,-3279)"></path></svg>