<svg id="SvgjsSvg1000" xmlns="http://www.w3.org/2000/svg" version="1.1" xmlns:xlink="http://www.w3.org/1999/xlink" xmlns:svgjs="http://svgjs.com/svgjs" width="23" height="23" viewBox="0 0 23 23"><title>Shape</title><desc>Created with Avocode.</desc><defs id="SvgjsDefs1001"></defs><path id="SvgjsPath1007" d="M1226.81 737.63C1220.85 737.63 1216 732.78 1216 726.81C1216 720.8499999999999 1220.85 716 1226.81 716C1232.78 716 1237.6299999999999 720.85 1237.6299999999999 726.81C1237.6299999999999 732.78 1232.78 737.63 1226.81 737.63ZM1226.81 716.73C1221.26 716.73 1216.73 721.26 1216.73 726.8100000000001C1216.73 732.37 1221.26 736.8900000000001 1226.81 736.8900000000001C1232.37 736.8900000000001 1236.8899999999999 732.3700000000001 1236.8899999999999 726.8100000000001C1236.8899999999999 721.2600000000001 1232.37 716.73 1226.81 716.73Z " fill="#3bb71e" fill-opacity="1" transform="matrix(1,0,0,1,-1215.5,-715.5)"></path><path id="SvgjsPath1008" d="M1226.81 737.63C1220.85 737.63 1216 732.78 1216 726.81C1216 720.8499999999999 1220.85 716 1226.81 716C1232.78 716 1237.6299999999999 720.85 1237.6299999999999 726.81C1237.6299999999999 732.78 1232.78 737.63 1226.81 737.63ZM1226.81 716.73C1221.26 716.73 1216.73 721.26 1216.73 726.8100000000001C1216.73 732.37 1221.26 736.8900000000001 1226.81 736.8900000000001C1232.37 736.8900000000001 1236.8899999999999 732.3700000000001 1236.8899999999999 726.8100000000001C1236.8899999999999 721.2600000000001 1232.37 716.73 1226.81 716.73Z " fill-opacity="0" fill="#ffffff" stroke-dasharray="0" stroke-linejoin="miter" stroke-linecap="butt" stroke-opacity="1" stroke="#82cf70" stroke-miterlimit="50" stroke-width="1" transform="matrix(1,0,0,1,-1215.5,-715.5)"></path><path id="SvgjsPath1009" d="M1231.47 726.73H1222.3700000000001C1222.16 726.73 1222.0000000000002 726.57 1222.0000000000002 726.37C1222.0000000000002 726.16 1222.1600000000003 726 1222.3700000000001 726H1231.47C1231.68 726 1231.84 726.16 1231.84 726.37C1231.84 726.57 1231.6799999999998 726.73 1231.47 726.73Z " fill="#3bb71e" fill-opacity="1" transform="matrix(1,0,0,1,-1215.5,-715.5)"></path><path id="SvgjsPath1010" d="M1231.47 726.73H1222.3700000000001C1222.16 726.73 1222.0000000000002 726.57 1222.0000000000002 726.37C1222.0000000000002 726.16 1222.1600000000003 726 1222.3700000000001 726H1231.47C1231.68 726 1231.84 726.16 1231.84 726.37C1231.84 726.57 1231.6799999999998 726.73 1231.47 726.73Z " fill-opacity="0" fill="#ffffff" stroke-dasharray="0" stroke-linejoin="miter" stroke-linecap="butt" stroke-opacity="1" stroke="#82cf70" stroke-miterlimit="50" stroke-width="1" transform="matrix(1,0,0,1,-1215.5,-715.5)"></path><path id="SvgjsPath1011" d="M1226.37 731.84C1226.1599999999999 731.84 1226 731.6800000000001 1226 731.47V722.37C1226 722.16 1226.16 722 1226.37 722C1226.57 722 1226.7299999999998 722.16 1226.7299999999998 722.37V731.47C1226.7299999999998 731.6800000000001 1226.5699999999997 731.84 1226.37 731.84Z " fill="#3bb71e" fill-opacity="1" transform="matrix(1,0,0,1,-1215.5,-715.5)"></path><path id="SvgjsPath1012" d="M1226.37 731.84C1226.1599999999999 731.84 1226 731.6800000000001 1226 731.47V722.37C1226 722.16 1226.16 722 1226.37 722C1226.57 722 1226.7299999999998 722.16 1226.7299999999998 722.37V731.47C1226.7299999999998 731.6800000000001 1226.5699999999997 731.84 1226.37 731.84Z " fill-opacity="0" fill="#ffffff" stroke-dasharray="0" stroke-linejoin="miter" stroke-linecap="butt" stroke-opacity="1" stroke="#82cf70" stroke-miterlimit="50" stroke-width="1" transform="matrix(1,0,0,1,-1215.5,-715.5)"></path></svg>