<svg xmlns="http://www.w3.org/2000/svg" width="23" height="23" viewBox="0 0 23 23"><title>Shape</title><path d="M11.31 22.13C5.35 22.13.5 17.28.5 11.31.5 5.35 5.35.5 11.31.5c5.97 0 10.82 4.85 10.82 10.81 0 5.97-4.85 10.82-10.82 10.82zm0-20.9c-5.55 0-10.08 4.53-10.08 10.08 0 5.56 4.53 10.08 10.08 10.08 5.56 0 10.08-4.52 10.08-10.08 0-5.55-4.52-10.08-10.08-10.08z" fill="#ea3d5a"/><path d="M11.31 22.13C5.35 22.13.5 17.28.5 11.31.5 5.35 5.35.5 11.31.5c5.97 0 10.82 4.85 10.82 10.81 0 5.97-4.85 10.82-10.82 10.82zm0-20.9c-5.55 0-10.08 4.53-10.08 10.08 0 5.56 4.53 10.08 10.08 10.08 5.56 0 10.08-4.52 10.08-10.08 0-5.55-4.52-10.08-10.08-10.08z" fill="none" stroke-dasharray="0" stroke="#ea3d5a" stroke-miterlimit="50"/><path d="M9.98 13.72c-.09 0-.18-.04-.25-.11L7.61 11.5a.357.357 0 0 1 0-.52c.14-.14.37-.14.52 0l1.85 1.86 5.23-5.23c.15-.15.38-.15.52 0 .14.14.14.37 0 .52l-5.49 5.48c-.07.07-.16.11-.26.11z" fill="#ea3d5a"/><path d="M9.98 13.72c-.09 0-.18-.04-.25-.11L7.61 11.5a.357.357 0 0 1 0-.52c.14-.14.37-.14.52 0l1.85 1.86 5.23-5.23c.15-.15.38-.15.52 0 .14.14.14.37 0 .52l-5.49 5.48c-.07.07-.16.11-.26.11z" fill="none" stroke-dasharray="0" stroke="#ea3d5a" stroke-miterlimit="50"/></svg>