<svg xmlns="http://www.w3.org/2000/svg" width="19" height="19" viewBox="0 0 19 19"><title>Shape</title><path d="M13.68 0H5.21A5.22 5.22 0 0 0 0 5.21v8.47c0 2.88 2.34 5.22 5.21 5.22h8.47c2.88 0 5.22-2.34 5.22-5.22V5.21C18.9 2.34 16.56 0 13.68 0zm0 17.22H5.21c-1.95 0-3.53-1.59-3.53-3.54V5.21a3.53 3.53 0 0 1 3.53-3.53h8.47c1.95 0 3.54 1.58 3.54 3.53v8.47c0 1.95-1.59 3.54-3.54 3.54z" fill="#bdbdbd"/><path d="M9.87 5a4.87 4.87 0 1 0 0 9.74c2.68 0 4.87-2.19 4.87-4.87C14.74 7.18 12.55 5 9.87 5zm0 8.06c-1.76 0-3.19-1.43-3.19-3.19s1.43-3.19 3.19-3.19 3.19 1.43 3.19 3.19-1.43 3.19-3.19 3.19zM14.23 3c-.32 0-.64.13-.87.36-.23.23-.36.55-.36.87 0 .32.13.64.36.87.23.23.55.36.87.36.32 0 .64-.13.87-.36.23-.23.36-.55.36-.87 0-.32-.13-.64-.36-.87-.23-.23-.55-.36-.87-.36z" fill="#bdbdbd"/></svg>