<svg width="276" height="109" viewBox="0 0 276 109" xmlns="http://www.w3.org/2000/svg"><title>Group 6</title><g fill="none" fill-rule="evenodd"><path d="M48.157 48.723c-.187-2.926-2.11-4.314-3.455-5.965-1.232-1.501-2.763-2.251-4.593-2.251-1.718 0-3.287.637-4.706 1.913-1.568 1.463-2.707 3.377-3.417 5.74a89.26 89.26 0 0 1 7.31.423c2.484.244 6.209-.31 8.86.14zm-4.295 19.868a503.6 503.6 0 0 1 1.849.112c.597.038 1.157.094 1.68.169.187-.375.542-1.182 1.064-2.42a175.454 175.454 0 0 0 2.017-5.065c.747-1.989 1.457-3.677 2.129-5.066.672-1.388 1.27-2.495 1.792-3.32a39.27 39.27 0 0 0-2.94-.676 317.09 317.09 0 0 0-3.054-.562c-.186 5.215-1.699 10.824-4.537 16.828zm14.733-16.322c.728.375 1.512.62 2.296.844.785.226 1.569.47 2.353.732.934.263 1.793.488 2.577.675a29.57 29.57 0 0 0 2.24.45c1.57.226 2.522.338 2.858.338 1.083 0 1.81-.356 2.184-1.069.112-.15.243-.225.392-.225.337 0 .505.169.505.506a.629.629 0 0 1-.056.282c-.785 1.2-2.185 1.8-4.202 1.8-1.718 0-3.753-.3-6.106-.9-.112-.037-.653-.206-1.624-.506-.971-.3-2.409-.713-4.314-1.238-1.643 3.376-4.052 8.442-7.226 15.195.448.075 1.018.179 1.709.31.69.131 1.503.29 2.436.478.747.075 1.41.207 1.989.394a9.51 9.51 0 0 1 1.597.676c.97.525.97.788 0 .788-.934 0-2.278-.188-4.034-.563a265.047 265.047 0 0 1-2.605-.479 19.837 19.837 0 0 0-1.596-.253c-3.473 8.067-8.477 14.258-15.013 18.573-6.535 4.352-13.892 6.472-22.07 6.36-4.22-.038-7.47-.826-9.748-2.364C1.046 91.722 0 89.996 0 87.895c0-1.126.299-2.214.896-3.264 2.69-5.066 9.691-7.542 21.007-7.43 1.68.038 3.118.141 4.313.31 1.195.169 2.166.44 2.913.816.747.413 1.12.75 1.12 1.013 0 .15-.111.225-.335.225-.15 0-.449-.094-.897-.281-.71-.375-3.062-.582-7.058-.62-9.224-.15-15.386 2.008-18.486 6.473-.71 1.05-1.064 2.101-1.064 3.152 0 1.5.728 2.701 2.184 3.602 1.606 1.05 4.052 1.613 7.339 1.688 8.664.113 15.928-1.97 21.79-6.247 5.08-3.715 9.356-9.361 12.829-16.94-.822-.15-1.98-.207-3.473-.17-3.287 6.342-7.283 11.426-11.988 15.253-5.266 4.315-10.755 6.322-16.47 6.022-.223-.075-.317-.188-.28-.338.075-.188.187-.281.337-.281 5.303.112 10.456-1.914 15.46-6.079 4.407-3.64 8.18-8.48 11.316-14.52-2.875.188-6.068.525-9.579 1.013-3.473.525-5.826.976-7.058 1.35-.448.15-.84.226-1.176.226-.635 0-.523-.45.336-1.35.71-.789 1.381-1.352 2.016-1.69 1.606-.937 5.378-1.406 11.316-1.406a111.687 111.687 0 0 1 5.042.112c1.493-3.076 2.623-6.031 3.389-8.864.765-2.833 1.185-5.544 1.26-8.132a78.343 78.343 0 0 0-7.899-.817 69.785 69.785 0 0 0-7.674.029 20.984 20.984 0 0 0-.112 2.195c0 5.252 2.147 9.36 6.442 12.325.15.113.168.263.056.45-.112.188-.243.207-.392.057-2.465-1.689-4.37-3.753-5.714-6.191-1.232-2.29-1.848-4.69-1.848-7.204v-.76c0-.244.018-.497.056-.76-4.183.375-7.964 1.145-11.344 2.308-3.38 1.163-6.04 2.589-7.983 4.277-1.68 1.463-2.52 2.833-2.52 4.108 0 1.576 1.139 2.364 3.417 2.364.933 0 2.016-.169 3.249-.506.373-.075.635-.113.784-.113.336 0 .504.094.504.282 0 .3-.373.562-1.12.787-1.457.45-2.82.676-4.09.676-2.838 0-4.612-.92-5.321-2.758-.785-1.913-.206-3.958 1.736-6.134 2.204-2.477 5.733-4.54 10.588-6.191 3.473-1.163 7.693-1.764 12.66-1.801.784-2.514 2.11-4.54 3.977-6.079C36.169 40.694 38.055 40 40.109 40c2.166 0 3.996.807 5.49 2.42 1.643 1.764 2.558 4.259 2.744 7.485 1.27.226 2.503.479 3.698.76 1.195.282 2.371.572 3.529.873.635-.638 1.307-.995 2.016-1.07.822 0 1.233.338 1.233 1.013 0 .263-.075.526-.224.788zm20.446-.844c1.718-.038 2.577.92 2.577 2.87 0 .863-.187 1.801-.56 2.814-1.755 5.403-6.74 11.65-14.957 18.742-1.755 3.227-2.633 6.378-2.633 9.455 0 3.827 2.054 4.559 6.162 2.195a19.816 19.816 0 0 0 2.549-1.83 32.609 32.609 0 0 0 2.931-2.785c-.262.675-.232 1.013-.434 1.882-3.723 3.687-6.954 5.48-9.695 5.378-2.801-.038-4.202-1.726-4.202-5.065 0-1.614.43-3.996 1.289-7.148.597-2.064 1.428-4.343 2.493-6.838 1.064-2.495 2.399-5.206 4.005-8.133 4.07-7.579 7.562-11.424 10.475-11.537zm.224 5.46c.411-1.126.616-2.027.616-2.702 0-.938-.317-1.407-.952-1.407-1.046 0-2.185 1.107-3.417 3.32a144.726 144.726 0 0 0-8.739 17.954 87.332 87.332 0 0 0 3.557-3.8 66.583 66.583 0 0 0 3.446-4.248c2.688-3.527 4.518-6.566 5.49-9.118zm-1.624 27.014v.056c-.299 1.313-.448 2.364-.448 3.152 0 2.026.728 3.039 2.184 3.039 1.718 0 3.212-.92 4.482-2.758-2.764-.412-4.836-1.576-6.218-3.49zm5.265-10.018c-1.755 1.951-3.174 4.258-4.257 6.922.71 3.077 2.708 4.84 5.994 5.29 1.307-2.55 1.96-4.914 1.96-7.09 0-1.389-.326-2.57-.98-3.546-.653-.976-1.559-1.501-2.717-1.576zm1.065-1.07l-.224.226a7.098 7.098 0 0 1 3.36 2.363c.897 1.126 1.345 2.364 1.345 3.715 0 2.401-.635 4.69-1.904 6.866l-.112.225c3.473-.112 6.466-1.332 8.669-3.545-.325.619-.613 1.238-.787 1.916-2.542 1.912-5.45 2.868-8.723 2.868a12.695 12.695 0 0 1-3.585 3.123c-1.382.807-2.67 1.21-3.865 1.21-2.54 0-3.772-1.5-3.697-4.502 0-2.064.541-4.521 1.624-7.373-.037-.3-.065-.62-.084-.957a18.345 18.345 0 0 1-.028-1.013c0-3.114 1.513-4.84 4.538-5.178.821-.938 1.55-1.407 2.184-1.407 1.046 0 1.569.3 1.569.9 0 .188-.093.376-.28.564zm32.826 4.39c-.186 1.952-.803 3.452-1.848 4.503a4.596 4.596 0 0 0 1.372 2.364c.691.638 1.485.956 2.38.956 1.308 0 2.54-.694 3.698-2.082-.173.507-.341 1.238-.341 1.525-1.21.934-2.478 1.402-3.804 1.402-1.756 0-3.137-.788-4.146-2.364-.821 2.139-1.848 3.827-3.08 5.065-1.233 1.238-2.39 1.857-3.474 1.857-1.643 0-2.464-1.238-2.464-3.714 0-.263.009-.516.028-.76.018-.244.046-.497.084-.76-.187.188-.934 1.238-2.241 3.152-.971 1.388-2.11 2.542-3.417 3.461-1.307.92-2.484 1.38-3.53 1.38-1.755 0-2.632-1.239-2.632-3.715 0-.863.15-1.989.448-3.377.373-1.689 1.176-3.527 2.409-5.516.97-1.576 1.998-2.851 3.08-3.827.748-.713 1.513-1.07 2.297-1.07.71 0 1.065.264 1.065.789a.701.701 0 0 1-.224.506c-1.718 1.726-3.473 4.465-5.266 8.217-1.083 2.364-1.625 4.071-1.625 5.122 0 .975.393 1.463 1.177 1.463 1.531 0 3.342-1.332 5.434-3.996a28.93 28.93 0 0 0 2.772-4.333 265.628 265.628 0 0 0 2.325-4.56c.15-.337.654-.506 1.513-.506.933 0 1.4.357 1.4 1.07a25.412 25.412 0 0 0-1.232 2.476 46.97 46.97 0 0 0-.897 2.251c-.41 1.238-.616 2.214-.616 2.927 0 1.05.355 1.576 1.065 1.576s1.568-.582 2.576-1.745c1.046-1.163 1.886-2.626 2.521-4.39-.635-1.313-.859-2.814-.672-4.502.187-2.44.934-3.659 2.24-3.659.524 0 .944.254 1.261.76.318.507.439 1.191.364 2.054zm23.954 7.936c-1.738 1.576-2.219 1.763-5.132 3.264-3.211 1.689-6.012 2.533-8.402 2.533-3.474 0-5.21-1.914-5.21-5.74 0-1.389.467-3.04 1.4-4.953.934-2.026 2.11-3.715 3.53-5.066 1.605-1.538 3.118-2.307 4.537-2.307 1.867 0 2.8.92 2.8 2.758 0 1.125-.485 2.326-1.456 3.602-1.718 2.138-4.22 3.62-7.506 4.446a8.863 8.863 0 0 0-.224 2.026c0 2.551 1.176 3.827 3.529 3.827 1.867 0 4.183-.77 6.946-2.308 1.27-.712 3.77-2.044 4.404-2.757.71-.75 1.064-.788 1.064-.113 0 .225-.093.488-.28.788zm-9.053-6.754c.71-1.2 1.064-2.232 1.064-3.095 0-.675-.224-1.013-.672-1.013-.784 0-1.867.92-3.249 2.758-1.344 1.876-2.409 3.752-3.193 5.628 2.95-.938 4.967-2.364 6.05-4.278zm36.244 5.46c-4.108 3.564-7.619 5.872-10.532 6.922-1.531.563-2.82.844-3.865.844-2.652 0-3.996-1.425-4.033-4.277-.075-2.101.803-4.765 2.633-7.992-.934.113-1.812-.187-2.633-.9-.785-.75-1.158-1.595-1.12-2.533-1.532 2.89-2.727 4.746-5.901 7.373-.262.262-.56.394-.897.394-.224 0-1.008.469-1.008.281 0-.187.059-.169 1.095-1.182 2.582-2.524 3.965-4.652 5.87-8.33-.15-.412-.224-.712-.224-.9a7.03 7.03 0 0 1-.168-1.576c0-1.425.41-2.57 1.232-3.433.71-.788 1.513-1.182 2.41-1.182 1.082 0 1.642.526 1.68 1.576.112 1.464-.878 3.452-2.97 5.966-.037 1.163.56 1.745 1.793 1.745.448 0 1.018-.104 1.709-.31.69-.206 1.185-.31 1.484-.31 1.12 0 1.68.563 1.68 1.689 0 .413-.149.882-.447 1.407-.187.3-.42.722-.7 1.266-.28.544-.589 1.192-.925 1.942-.747 1.65-1.214 2.89-1.4 3.715a6.826 6.826 0 0 0-.168 1.407c0 1.538.728 2.307 2.184 2.307 1.83 0 4.108-.807 6.835-2.42a29.566 29.566 0 0 0 3.249-2.11 24.044 24.044 0 0 0 2.576-2.224c.336-.337.617-.506.84-.506.225 0 .337.112.337.338 0 .262-.206.6-.616 1.013zm4.145 4.896a9.445 9.445 0 0 1-3.753-2.308c0 .788.27 1.436.812 1.942.541.507 1.13.76 1.764.76.523 0 .915-.131 1.177-.394zm7.506-.844c3.175-.788 5.9-2.477 8.179-5.065a.777.777 0 0 1 .231-.233c.111-.07-.3.683-.46 1.93-2.847 2.587-5.553 4.103-8.118 4.55-1.942.337-3.753.375-5.434.112-.56 1.013-1.419 1.52-2.576 1.52-.86 0-1.644-.272-2.353-.816-.71-.544-1.158-1.21-1.345-1.998-.41-1.501-.466-2.402-.168-2.702.038-.487.262-.731.673-.731a.38.38 0 0 1 .28.112c1.083 1.313 2.465 2.308 4.145 2.983.037-.45-.037-1.032-.224-1.745a8.832 8.832 0 0 0-1.232-2.532c-1.42-1.951-2.036-3.921-1.849-5.91.336-3.977 2.988-6.885 7.955-8.723 1.643-.6 3.211-.807 4.705-.62 1.68.226 2.52 1.145 2.52 2.758 0 1.201-.391 2.364-1.176 3.49-.336.45-.634.732-.896.844-.261.038-.392-.075-.392-.338 0-.15.093-.412.28-.788.41-.75.616-1.388.616-1.913 0-.938-.616-1.407-1.848-1.407-.15 0-.308.01-.476.028a6.2 6.2 0 0 0-.533.084c-4.07.75-6.796 3.115-8.178 7.092-.187.675-.28 1.257-.28 1.745 0 1.05.448 2.326 1.344 3.827.934 1.538 1.42 2.757 1.457 3.658v.506c0 .15-.02.3-.056.45 1.68.338 3.417.282 5.21-.168zm24.193-2.403c-3.87 3.515-7.658 5.273-11.365 5.273-3.286 0-4.93-1.782-4.93-5.347 0-2.326 1.177-4.896 3.53-7.71 2.54-3.002 4.967-4.502 7.282-4.502 1.905 0 2.857.863 2.857 2.588 0 .6-.224 1.37-.672 2.308a7.46 7.46 0 0 1-.56 1.041c-.187.282-.355.516-.504.704-.187.187-.337.281-.449.281-.373 0-.41-.281-.112-.844.411-.75.617-1.37.617-1.857 0-.713-.43-1.07-1.289-1.07-1.12 0-2.26.45-3.417 1.351-.747.563-1.419 1.2-2.017 1.914a13.557 13.557 0 0 0-1.512 2.194c-.41.75-.738 1.501-.98 2.252-.243.75-.364 1.463-.364 2.138 0 2.177 1.12 3.265 3.36 3.265 1.196 0 2.633-.338 4.314-1.013 2.278-.938 4.819-2.87 7.396-5.572-.484.9-.974 1.913-1.185 2.606zm22.604.93c-3.165 2.745-5.935 3.986-8.312 3.724-1.009-.113-1.942-.732-2.801-1.857-.86-1.276-1.382-2.87-1.569-4.784a32.624 32.624 0 0 1-2.157 2.673 21.66 21.66 0 0 1-2.324 2.223c-1.494 1.201-2.726 1.801-3.697 1.801-1.382 0-2.073-.881-2.073-2.645 0-1.5.596-3.17 1.642-4.784 2.427-3.714 5.08-6.172 8.105-7.598 1.307-.6 2.52-.9 3.641-.9.299 0 .626.047.98.14.355.094.691.226 1.009.395.317.168.579.365.784.59.205.226.308.488.308.788 0 .113-.065.216-.196.31a1.65 1.65 0 0 1-.448.225 3.62 3.62 0 0 0-.476.197c-.15.075-.224.131-.224.169-1.382 2.514-2.073 4.915-2.073 7.204 0 2.851 1.102 4.277 3.305 4.277 2.165 0 4.835-1.623 8.011-4.87-.336.593-.903 1.718-1.435 2.722zm-11.113-10.177c-3.1-.075-5.77 2.1-8.01 6.528-.636 1.2-.953 2.27-.953 3.208 0 1.013.355 1.52 1.064 1.52.672 0 1.55-.45 2.633-1.35 1.942-1.652 3.212-3.303 3.81-4.954.26-1.876.746-3.527 1.456-4.952zm33.778-17.053c-2.054 4.164-6.479 9.248-13.276 15.252 2.167.034 3.953.06 5.36.08.034 0-.179.662-.236.876-.058.215-.306 1.014-.306 1.014s-3.604.075-6.33.112a891.682 891.682 0 0 1-10.755 20.542c-2.241 3.828-4.632 6.68-7.171 8.555-2.988 2.251-6.46 3.377-10.42 3.377-2.24 0-3.995-.638-5.265-1.914-1.195-1.125-1.793-2.532-1.793-4.22 0-1.651.598-3.115 1.793-4.39.15-.226.336-.338.56-.338.224 0 .336.131.336.394 0 .15-.093.356-.28.619-.859.863-1.288 2.007-1.288 3.433 0 1.463.448 2.664 1.344 3.602 1.009 1.126 2.409 1.688 4.202 1.688 2.614 0 5.359-1.106 8.234-3.32 2.764-2.214 5.228-5.16 7.395-8.836a265.187 265.187 0 0 0 5.461-9.737c1.7-3.189 3.296-6.378 4.79-9.567a49.3 49.3 0 0 1-1.905.056h-.56c-1.158-.038-1.793-.394-1.905-1.07-.112-.562.28-.844 1.177-.844h3.977c1.307-2.889 2.4-5.271 3.277-7.147.878-1.876 1.56-3.283 2.045-4.221 1.27-2.44 2.483-4.522 3.64-6.248 1.159-1.725 2.279-3.114 3.362-4.164 1.158-1.088 2.166-1.632 3.025-1.632 1.643 0 2.465 1.313 2.465 3.94 0 1.387-.318 2.757-.953 4.108zm-1.68-.957c.71-1.463 1.064-2.74 1.064-3.827 0-.713-.187-1.07-.56-1.07-.822 0-2.035 1.426-3.641 4.278-1.382 2.439-2.792 5-4.23 7.682-1.437 2.683-2.94 5.506-4.509 8.47 5.64-5.365 9.598-10.543 11.876-15.533zm15.405.957c-2.054 4.164-6.48 9.248-13.276 15.252 2.352.037 4.257.065 5.713.084 1.457.019 2.446.01 2.97-.028.56.188.84.431.84.732 0 .562-.673.919-2.017 1.069-.299.037-1.195.075-2.689.113-1.494.037-3.604.075-6.33.112a891.682 891.682 0 0 1-10.755 20.542c-2.241 3.828-4.631 6.68-7.17 8.555-2.988 2.251-6.461 3.377-10.42 3.377-2.24 0-3.996-.638-5.266-1.914-1.195-1.125-1.792-2.532-1.792-4.22 0-1.651.597-3.115 1.792-4.39.15-.226.336-.338.56-.338.225 0 .337.131.337.394 0 .15-.094.356-.28.619-.86.863-1.289 2.007-1.289 3.433 0 1.463.448 2.664 1.345 3.602 1.008 1.126 2.408 1.688 4.2 1.688 2.615 0 5.36-1.106 8.236-3.32 2.763-2.214 5.228-5.16 7.394-8.836a265.188 265.188 0 0 0 5.462-9.737 209.205 209.205 0 0 0 4.79-9.567c-.86.037-4.538 0-4.538 0 .321-.957.542-1.89.542-1.89l4.78.032a634.425 634.425 0 0 1 3.276-7.147c.878-1.876 1.56-3.283 2.045-4.221 1.27-2.44 2.484-4.522 3.641-6.248 1.158-1.725 2.278-3.114 3.361-4.164 1.158-1.088 2.166-1.632 3.025-1.632 1.644 0 2.465 1.313 2.465 3.94 0 1.387-.317 2.757-.952 4.108zm-1.68-.957c.709-1.463 1.064-2.74 1.064-3.827 0-.713-.187-1.07-.56-1.07-.822 0-2.036 1.426-3.642 4.278-1.382 2.439-2.791 5-4.23 7.682-1.437 2.683-2.94 5.506-4.509 8.47 5.64-5.365 9.598-10.543 11.876-15.533zm14.62 25.439c-1.345 1.65-3.473 3.226-6.386 4.727-3.212 1.689-6.013 2.533-8.403 2.533-3.473 0-5.21-1.914-5.21-5.74 0-1.389.467-3.04 1.401-4.953.934-2.026 2.11-3.715 3.53-5.066 1.605-1.538 3.117-2.307 4.537-2.307 1.867 0 2.8.92 2.8 2.758 0 1.125-.485 2.326-1.456 3.602-1.718 2.138-4.22 3.62-7.506 4.446a8.863 8.863 0 0 0-.224 2.026c0 2.551 1.176 3.827 3.529 3.827 1.867 0 4.182-.77 6.946-2.308 1.27-.712 2.371-1.416 3.305-2.11.934-.694 1.718-1.398 2.353-2.11.71-.751 1.064-.789 1.064-.113 0 .225-.093.488-.28.788zm-10.307-5.29c.71-1.201 1.064-2.233 1.064-3.096 0-.675-.224-1.013-.672-1.013-.785 0-1.868.92-3.25 2.758-1.344 1.876-2.408 3.752-3.192 5.628 2.95-.938 4.967-2.364 6.05-4.278z" fill="#A5A5A5"/><path d="M142.54 36.288c6.421-7.157 16.064-10.04 23.607-7.058 5.322 2.105 5.647 3.81 1.473 7.739-7.547 7.104-19.332 6.784-25.08-.681zm22.619-2.263c0-2.165-3.332-2.739-4.662-2.918-6.088-.826-11.359 1.465-16.171 5.257 5.86 2.248 20.833-.175 20.833-2.34zm-32.222 1.385c-6.422-7.156-16.065-10.039-23.607-7.057-5.323 2.105-5.647 3.81-1.474 7.738 7.548 7.105 19.332 6.785 25.08-.68zm-22.62-2.262c-.88-1.06 3.333-2.739 4.662-2.918 6.088-.826 11.36 1.465 16.171 5.257-5.86 2.248-20.247 1.183-20.833-2.34zm41.525 16.516c4.667 2.174 5.778.972 4.183-3.716 3.65 1.412 7.138 6.91 6.523 9.42-.614 2.51-5.437 2.116-11.3-1.022-5.861-3.137-11.078-9.694-12.2-11.37 0 0 8.738 4.798 12.794 6.688zm-16.286-6.689c-3.91 5.564-7.147 10.208-13.91 11.943-1.388.356-4.168.703-5.374-.5-1.206-1.202-.867-3.374-.134-4.494 1.514-2.316 3.765-4.2 5.713-6.262 0 0-2.63 5.462-.916 7.093 1.714 1.63 14.62-7.78 14.62-7.78zm5.401-30.696c6 6.904 5.222 16.964-.106 20.172.533-3.024 1.524-5.91 1.38-8.749-.101-1.968-.904-5.804-2.736-5.804-1.832 0-3.929 3.33-4.477 5.316-.773 2.8-.195 5.907-.195 8.121-3.967-5.549-1.563-14.413 6.134-19.056z" fill="#E63A5C"/><path d="M143.413 13.126c.286-3.211 3.39-7.833 5.406-7.864 2.035-.03 3.685 3.9 3.255 8.256-.465 4.709-1.378 9.304-5.226 12.793.77-3.07 4.55-14.52 1.97-15.078-2.579-.558-5.405 1.893-5.405 1.893zm-12.471-.37c-.566-3.174-4.06-7.508-6.07-7.363-2.031.147-3.333 4.206-2.524 8.508.874 4.65 2.183 9.149 6.321 12.29-1.036-2.992-5.798-14.07-3.277-14.85 2.52-.78 5.55 1.415 5.55 1.415zm3.741-3.986c0-2.77.563-8.77 3.707-8.77 3.145 0 4.48 5.852 4.08 8.77 0 0-1.775-4.41-3.632-4.385-1.857.026-4.155 4.385-4.155 4.385z" fill="#E63A5C"/><path fill="#E53A5C" d="M138.256 58.762l-.954-7.643 1.543-.25 1.076 7.604z"/><path d="M212.381 105.118l1.31-.965 1.25 2.063s-.326.57-.562.686c-.237.115-.426-.171-.426-.171s-.805-.29-1.07-.625c-.267-.336-.502-.988-.502-.988zm-74.206-19.377s2.578-2.006 3.272-2.668c.695-.662 2.371-2.384 2.371-2.384l1.34.084s-1.086 1.261-2.175 2.363c-1.088 1.1-3.191 2.815-3.191 2.815l-1.617-.21z" fill="#A5A5A5"/></g></svg>