<svg width="314" height="160" viewBox="0 0 314 160" xmlns="http://www.w3.org/2000/svg"><title>online_butik</title><g fill="none" fill-rule="evenodd"><text transform="translate(77 129)" font-size="16" font-family="CaviarDreams, Caviar Dreams" fill="#4C4C4C"><tspan x="0" y="16">Онлайн-бутик цветов</tspan></text><path d="M53.47 77.605c-.213-3.308-1.084-5.621-2.613-7.488-1.402-1.696-3.144-2.544-5.226-2.544-1.954 0-3.739.72-5.353 2.163-1.785 1.654-3.08 3.817-3.888 6.49 2.72.042 5.492.2 8.317.476 2.825.276 5.746.394 8.763.903zM49.9 99.32c.722.042 1.423.085 2.103.127a24.5 24.5 0 0 1 1.912.19c.212-.423.616-1.335 1.21-2.735.596-1.4 1.36-3.308 2.295-5.726.85-2.248 1.657-4.156 2.422-5.726.765-1.57 1.444-2.82 2.04-3.753a44.92 44.92 0 0 0-3.347-.764 361.893 361.893 0 0 0-3.473-.636c-.212 5.896-1.933 12.236-5.162 19.023zm16.761-18.45c.829.424 1.72.7 2.613.954.892.254 1.784.53 2.677.827 1.062.297 2.04.551 2.931.763.893.212 1.742.382 2.55.51 1.784.254 2.867.381 3.25.381 1.232 0 2.06-.403 2.485-1.209.128-.17.276-.254.446-.254.383 0 .574.19.574.572a.707.707 0 0 1-.064.318c-.892 1.358-2.485 2.036-4.78 2.036-1.954 0-4.27-.339-6.946-1.018-.128-.042-.744-.233-1.848-.572-1.105-.34-2.74-.806-4.908-1.4-1.87 3.817-4.61 9.543-8.22 17.178.509.085 1.157.201 1.943.35.786.148 1.71.329 2.772.54.85.085 1.604.234 2.263.446a10.93 10.93 0 0 1 1.816.763c1.105.594 1.105.891 0 .891-1.062 0-2.592-.212-4.589-.636a303.29 303.29 0 0 1-2.963-.54 22.702 22.702 0 0 0-1.816-.287c-3.952 9.119-9.645 16.117-17.08 20.995-7.435 4.92-15.805 7.316-25.11 7.19-4.801-.043-8.497-.934-11.09-2.673C1.19 125.468 0 123.517 0 121.142c0-1.273.34-2.503 1.02-3.69 3.059-5.726 11.025-8.525 23.899-8.398 1.912.042 3.547.159 4.907.35 1.36.19 2.464.498 3.314.922.85.467 1.274.849 1.274 1.145 0 .17-.127.255-.382.255-.17 0-.51-.106-1.02-.318-.807-.424-3.484-.658-8.03-.7-10.494-.17-17.504 2.27-21.03 7.316-.808 1.188-1.212 2.376-1.212 3.563 0 1.697.829 3.054 2.486 4.072 1.827 1.188 4.61 1.824 8.349 1.909 9.857.127 18.12-2.227 24.79-7.062 5.779-4.2 10.644-10.583 14.595-19.15-.935-.17-2.252-.234-3.951-.191-3.74 7.168-8.285 12.915-13.639 17.241-5.99 4.878-12.236 7.147-18.736 6.808-.255-.085-.361-.212-.319-.382.085-.212.212-.318.382-.318 6.034.127 11.897-2.163 17.59-6.871 5.013-4.114 9.305-9.586 12.874-16.415-3.272.212-6.905.594-10.898 1.146-3.952.593-6.628 1.102-8.03 1.526-.51.17-.956.255-1.339.255-.722 0-.595-.509.383-1.527.807-.89 1.572-1.527 2.294-1.909 1.827-1.06 6.118-1.59 12.873-1.59a127.878 127.878 0 0 1 5.736.127c1.7-3.478 2.985-6.818 3.856-10.02.87-3.203 1.349-6.267 1.434-9.194a89.682 89.682 0 0 0-8.986-.922 79.901 79.901 0 0 0-8.731.032 23.57 23.57 0 0 0-.127 2.481c0 5.938 2.442 10.582 7.328 13.933.17.127.192.297.064.509-.127.212-.276.233-.446.064-2.804-1.909-4.971-4.242-6.5-6.999-1.403-2.587-2.104-5.301-2.104-8.143v-.86c0-.275.022-.561.064-.858-4.758.424-9.06 1.294-12.905 2.608-3.845 1.315-6.873 2.927-9.082 4.836-1.912 1.654-2.868 3.202-2.868 4.644 0 1.781 1.296 2.672 3.888 2.672 1.062 0 2.294-.19 3.696-.572.425-.085.722-.128.892-.128.383 0 .574.106.574.318 0 .34-.425.637-1.275.891-1.657.51-3.207.764-4.652.764-3.229 0-5.247-1.04-6.054-3.118-.893-2.163-.234-4.475 1.975-6.935 2.507-2.799 6.522-5.132 12.045-6.998 3.952-1.315 8.753-1.993 14.403-2.036.893-2.842 2.4-5.132 4.525-6.871 1.955-1.57 4.1-2.354 6.437-2.354 2.464 0 4.546.912 6.246 2.736 1.869 1.993 2.91 4.814 3.122 8.461 1.445.255 2.847.541 4.207.86 1.36.317 2.698.646 4.015.985.722-.72 1.487-1.124 2.294-1.208.935 0 1.402.381 1.402 1.145 0 .297-.085.594-.255.89zm23.262-.955c1.954-.042 2.931 1.04 2.931 3.245 0 .975-.212 2.036-.637 3.18-1.997 6.109-7.669 13.17-17.016 21.187-1.997 3.648-2.995 7.21-2.995 10.688 0 4.327 2.336 5.154 7.01 2.482a22.543 22.543 0 0 0 2.9-2.068 37 37 0 0 0 3.335-3.15c-.299.764-.265 1.146-.495 2.128-4.235 4.169-7.911 6.195-11.03 6.08-3.186-.043-4.78-1.951-4.78-5.726 0-1.824.49-4.517 1.466-8.08.68-2.333 1.625-4.91 2.836-7.73 1.211-2.82 2.73-5.885 4.557-9.193 4.631-8.568 8.604-12.916 11.918-13.043zm.255 6.171c.467-1.272.7-2.29.7-3.053 0-1.06-.36-1.59-1.083-1.59-1.19 0-2.485 1.25-3.887 3.753a163.164 163.164 0 0 0-9.942 20.295 98.98 98.98 0 0 0 4.047-4.294 75.361 75.361 0 0 0 3.919-4.804c3.06-3.987 5.14-7.422 6.246-10.307zm-1.849 30.539v.063c-.34 1.485-.51 2.673-.51 3.563 0 2.29.83 3.436 2.486 3.436 1.954 0 3.654-1.04 5.099-3.118-3.145-.466-5.503-1.781-7.075-3.944zM94.32 105.3c-1.997 2.206-3.611 4.814-4.843 7.826.807 3.478 3.08 5.471 6.819 5.98 1.487-2.884 2.23-5.556 2.23-8.016 0-1.57-.371-2.906-1.115-4.008-.744-1.103-1.774-1.697-3.09-1.782zm1.211-1.209l-.255.255a8.075 8.075 0 0 1 3.824 2.672c1.02 1.272 1.53 2.672 1.53 4.199 0 2.714-.723 5.302-2.167 7.762l-.128.254c3.951-.127 7.356-1.505 9.863-4.008-.37.7-.697 1.4-.895 2.166-2.892 2.161-6.2 3.242-9.924 3.242a14.416 14.416 0 0 1-4.079 3.53c-1.572.913-3.037 1.369-4.397 1.369-2.89 0-4.291-1.697-4.206-5.09 0-2.333.616-5.11 1.848-8.334-.043-.34-.074-.7-.096-1.082a20.606 20.606 0 0 1-.031-1.145c0-3.52 1.72-5.472 5.162-5.853.934-1.06 1.763-1.59 2.485-1.59 1.19 0 1.785.339 1.785 1.017 0 .212-.107.424-.319.636zm37.346 4.963c-.212 2.205-.913 3.902-2.103 5.09a5.188 5.188 0 0 0 1.561 2.672c.786.72 1.69 1.081 2.709 1.081 1.487 0 2.889-.784 4.206-2.354-.197.573-.388 1.4-.388 1.724-1.377 1.056-2.82 1.585-4.328 1.585-1.997 0-3.569-.891-4.716-2.673-.935 2.418-2.103 4.327-3.505 5.726-1.402 1.4-2.72 2.1-3.952 2.1-1.869 0-2.804-1.4-2.804-4.2a11.309 11.309 0 0 1 .128-1.717c-.213.212-1.062 1.4-2.55 3.563-1.104 1.57-2.4 2.873-3.887 3.913-1.487 1.039-2.825 1.558-4.015 1.558-1.997 0-2.995-1.4-2.995-4.199 0-.975.17-2.248.51-3.817.424-1.909 1.338-3.987 2.74-6.235 1.105-1.781 2.273-3.223 3.505-4.326.85-.806 1.72-1.209 2.613-1.209.807 0 1.21.297 1.21.89a.79.79 0 0 1-.254.573c-1.954 1.951-3.951 5.048-5.99 9.29-1.233 2.671-1.849 4.601-1.849 5.789 0 1.102.446 1.654 1.339 1.654 1.741 0 3.802-1.506 6.181-4.517a32.677 32.677 0 0 0 3.155-4.9 299.566 299.566 0 0 0 2.645-5.153c.17-.381.743-.572 1.72-.572 1.063 0 1.594.403 1.594 1.209a28.653 28.653 0 0 0-1.402 2.799c-.383.89-.723 1.739-1.02 2.545-.467 1.4-.701 2.502-.701 3.308 0 1.188.404 1.782 1.21 1.782.808 0 1.785-.658 2.933-1.973 1.19-1.314 2.145-2.969 2.867-4.962-.722-1.485-.977-3.181-.764-5.09.212-2.757 1.062-4.135 2.549-4.135.595 0 1.073.286 1.434.859.36.572.499 1.346.414 2.322zm27.252 8.97c-1.977 1.782-2.525 1.994-5.839 3.69-3.653 1.91-6.84 2.863-9.56 2.863-3.95 0-5.926-2.163-5.926-6.489 0-1.57.531-3.435 1.593-5.599 1.062-2.29 2.4-4.199 4.015-5.726 1.827-1.739 3.548-2.608 5.162-2.608 2.125 0 3.187 1.04 3.187 3.117 0 1.273-.552 2.63-1.657 4.072-1.954 2.418-4.801 4.093-8.54 5.026a9.958 9.958 0 0 0-.255 2.29c0 2.885 1.338 4.327 4.015 4.327 2.125 0 4.759-.87 7.903-2.609 1.444-.805 4.288-2.311 5.01-3.117.807-.848 1.21-.89 1.21-.127 0 .254-.105.551-.318.89zm-10.3-7.634c.808-1.357 1.211-2.524 1.211-3.5 0-.763-.255-1.144-.765-1.144-.892 0-2.124 1.039-3.696 3.117-1.53 2.12-2.74 4.241-3.633 6.362 3.357-1.06 5.651-2.672 6.883-4.835zm41.234 6.171c-4.674 4.03-8.667 6.638-11.981 7.826-1.742.636-3.208.954-4.398.954-3.016 0-4.546-1.612-4.588-4.835-.085-2.376.913-5.387 2.995-9.035-1.062.128-2.06-.212-2.995-1.017-.893-.849-1.317-1.803-1.275-2.863-1.742 3.265-3.102 5.365-6.713 8.334-.298.297-.637.445-1.02.445-.255 0-1.147.53-1.147.318 0-.212.067-.19 1.246-1.336 2.937-2.853 4.511-5.259 6.678-9.416-.17-.466-.255-.805-.255-1.018a7.899 7.899 0 0 1-.191-1.781c0-1.612.467-2.905 1.402-3.88.807-.892 1.72-1.337 2.74-1.337 1.233 0 1.87.594 1.912 1.781.128 1.655-.998 3.903-3.377 6.744-.043 1.315.637 1.973 2.039 1.973.51 0 1.158-.117 1.944-.35.786-.234 1.349-.35 1.689-.35 1.274 0 1.912.636 1.912 1.908 0 .467-.17.997-.51 1.591-.213.34-.478.816-.797 1.431-.319.615-.67 1.347-1.051 2.195-.85 1.867-1.381 3.266-1.594 4.2a7.669 7.669 0 0 0-.19 1.59c0 1.739.828 2.608 2.485 2.608 2.081 0 4.673-.911 7.775-2.735a33.66 33.66 0 0 0 3.696-2.386 27.306 27.306 0 0 0 2.932-2.513c.382-.382.7-.573.956-.573.255 0 .382.127.382.382 0 .297-.234.679-.701 1.145zm4.716 5.535c-1.657-.551-3.08-1.42-4.27-2.608 0 .89.308 1.622.924 2.195.616.572 1.285.859 2.008.859.594 0 1.04-.149 1.338-.446zm8.54-.954c3.611-.89 6.713-2.8 9.305-5.726a.881.881 0 0 1 .263-.263c.126-.08-.34.772-.525 2.183-3.238 2.923-6.316 4.637-9.234 5.142-2.21.382-4.27.424-6.182.127-.637 1.145-1.615 1.718-2.932 1.718-.977 0-1.87-.307-2.676-.923-.808-.615-1.318-1.367-1.53-2.258-.467-1.697-.531-2.715-.191-3.054.042-.551.297-.827.765-.827.127 0 .233.042.318.127 1.232 1.485 2.804 2.609 4.716 3.372.043-.509-.042-1.166-.255-1.972a9.947 9.947 0 0 0-1.402-2.863c-1.614-2.206-2.315-4.432-2.103-6.68.383-4.496 3.4-7.783 9.05-9.862 1.87-.678 3.654-.912 5.353-.7 1.912.255 2.868 1.294 2.868 3.118 0 1.357-.446 2.672-1.338 3.945-.383.508-.722.827-1.02.954-.297.042-.446-.085-.446-.382 0-.17.106-.466.319-.89.467-.849.7-1.57.7-2.164 0-1.06-.7-1.59-2.102-1.59-.17 0-.35.01-.542.032a7.095 7.095 0 0 0-.606.095c-4.63.848-7.732 3.52-9.304 8.016-.213.764-.319 1.421-.319 1.973 0 1.187.51 2.63 1.53 4.326 1.062 1.739 1.614 3.117 1.657 4.135v.573c0 .17-.022.34-.064.509 1.912.382 3.887.318 5.927-.191zm27.524-2.716c-4.403 3.974-8.713 5.96-12.93 5.96-3.739 0-5.608-2.014-5.608-6.043 0-2.63 1.338-5.535 4.015-8.717 2.889-3.393 5.65-5.09 8.285-5.09 2.167 0 3.25.976 3.25 2.927 0 .679-.255 1.548-.765 2.609a8.416 8.416 0 0 1-.637 1.177 11.37 11.37 0 0 1-.574.795c-.212.212-.382.318-.51.318-.424 0-.467-.318-.127-.954.468-.848.701-1.548.701-2.1 0-.806-.488-1.208-1.466-1.208-1.274 0-2.57.508-3.887 1.526a13.853 13.853 0 0 0-2.294 2.164 15.323 15.323 0 0 0-1.721 2.48c-.468.85-.84 1.697-1.115 2.546-.277.848-.415 1.654-.415 2.417 0 2.46 1.275 3.69 3.824 3.69 1.36 0 2.995-.381 4.907-1.145 2.592-1.06 5.483-3.245 8.414-6.298-.55 1.018-1.108 2.163-1.347 2.946zm25.715 1.051c-3.6 3.103-6.752 4.506-9.456 4.21-1.147-.127-2.21-.827-3.187-2.1-.977-1.442-1.572-3.244-1.784-5.408a36.923 36.923 0 0 1-2.454 3.022c-.828.912-1.71 1.75-2.645 2.514-1.7 1.357-3.101 2.035-4.206 2.035-1.572 0-2.358-.996-2.358-2.99 0-1.696.678-3.584 1.868-5.408 2.762-4.199 5.78-6.977 9.221-8.589 1.487-.678 2.868-1.017 4.143-1.017.34 0 .711.053 1.115.159a5.34 5.34 0 0 1 1.147.445c.361.19.659.413.892.668.234.254.35.551.35.89 0 .128-.074.245-.222.35a1.91 1.91 0 0 1-.51.255 4.133 4.133 0 0 0-.542.223c-.17.085-.255.148-.255.19-1.572 2.842-2.358 5.557-2.358 8.144 0 3.224 1.254 4.835 3.76 4.835 2.463 0 5.501-1.834 9.115-5.504-.384.67-1.028 1.942-1.634 3.076zm-12.643-11.505c-3.526-.085-6.564 2.375-9.113 7.38-.723 1.358-1.084 2.566-1.084 3.627 0 1.145.404 1.718 1.211 1.718.765 0 1.763-.51 2.996-1.527 2.209-1.867 3.653-3.733 4.333-5.599.298-2.12.85-3.987 1.657-5.599zm38.43-19.277c-2.337 4.708-7.372 10.455-15.104 17.241 2.464.04 4.497.07 6.097.09.039.001-.203.75-.269.992-.065.243-.348 1.145-.348 1.145s-4.1.085-7.201.127c-1.36 2.672-3.049 5.938-5.067 9.798-2.018 3.86-12.408 23.334-15.17 28.424-2.549 4.327-5.268 7.55-8.157 9.67-3.399 2.546-7.35 3.818-11.854 3.818-2.549 0-4.546-.721-5.99-2.163-1.36-1.273-2.04-2.863-2.04-4.772 0-1.866.68-3.52 2.04-4.962.17-.255.382-.382.637-.382s.382.148.382.445c0 .17-.106.403-.318.7-.978.976-1.466 2.27-1.466 3.881 0 1.654.51 3.012 1.53 4.072 1.146 1.272 2.74 1.909 4.78 1.909 2.973 0 6.096-1.252 9.367-3.754 3.145-2.503 5.949-5.832 8.413-9.989 2.21-3.732 12.28-22.401 14.214-26.006 1.933-3.605 3.75-7.21 5.449-10.816-.978.043-1.7.064-2.167.064h-.638c-1.317-.043-2.039-.446-2.166-1.21-.128-.635.318-.953 1.338-.953h4.525c1.487-3.266 2.73-5.96 3.728-8.08.998-2.121 1.774-3.712 2.326-4.772 1.445-2.757 2.826-5.11 4.143-7.062 1.317-1.951 2.591-3.52 3.823-4.708 1.318-1.23 2.465-1.845 3.442-1.845 1.87 0 2.804 1.485 2.804 4.454 0 1.569-.361 3.117-1.083 4.644zm-1.912-1.082c.807-1.654 1.21-3.096 1.21-4.326 0-.806-.212-1.209-.637-1.209-.934 0-2.315 1.612-4.142 4.836a421.792 421.792 0 0 0-4.812 8.684 2051.721 2051.721 0 0 0-5.13 9.575c6.415-6.065 10.919-11.918 13.51-17.56zm17.526 1.082c-2.337 4.708-7.372 10.455-15.105 17.241 2.677.043 4.844.075 6.501.096 1.657.021 2.783.01 3.378-.032.637.212.956.488.956.827 0 .636-.765 1.04-2.295 1.209-.34.042-1.36.085-3.059.127-1.7.043-4.1.085-7.201.127-1.36 2.672-3.049 5.938-5.067 9.798-2.018 3.86-12.408 23.334-15.17 28.424-2.549 4.327-5.268 7.55-8.157 9.67-3.399 2.546-7.35 3.818-11.854 3.818-2.55 0-4.546-.721-5.99-2.163-1.36-1.273-2.04-2.863-2.04-4.772 0-1.866.68-3.52 2.04-4.962.17-.255.382-.382.637-.382s.382.148.382.445c0 .17-.106.403-.318.7-.978.976-1.466 2.27-1.466 3.881 0 1.654.51 3.012 1.53 4.072 1.146 1.272 2.74 1.909 4.779 1.909 2.974 0 6.097-1.252 9.368-3.754 3.144-2.503 5.949-5.832 8.413-9.989 2.21-3.732 12.28-22.401 14.214-26.006a234.486 234.486 0 0 0 5.449-10.816c-.978.043-5.163 0-5.163 0 .366-1.081.617-2.136.617-2.136l5.438.037c1.487-3.266 2.73-5.96 3.728-8.08.998-2.121 1.774-3.712 2.326-4.772 1.445-2.757 2.826-5.11 4.143-7.062 1.317-1.951 2.591-3.52 3.823-4.708 1.318-1.23 2.465-1.845 3.442-1.845 1.87 0 2.804 1.485 2.804 4.454 0 1.569-.361 3.117-1.083 4.644zm-1.912-1.082c.807-1.654 1.21-3.096 1.21-4.326 0-.806-.212-1.209-.637-1.209-.934 0-2.315 1.612-4.142 4.836a421.792 421.792 0 0 0-4.812 8.684 2051.627 2051.627 0 0 0-5.13 9.575c6.415-6.065 10.919-11.918 13.51-17.56zm16.633 28.757c-1.53 1.867-3.95 3.648-7.265 5.345-3.654 1.908-6.84 2.862-9.56 2.862-3.95 0-5.926-2.163-5.926-6.489 0-1.57.53-3.435 1.593-5.599 1.062-2.29 2.4-4.199 4.015-5.726 1.827-1.739 3.548-2.608 5.162-2.608 2.124 0 3.187 1.04 3.187 3.117 0 1.273-.553 2.63-1.657 4.072-1.955 2.418-4.801 4.093-8.54 5.026a9.958 9.958 0 0 0-.255 2.29c0 2.885 1.338 4.327 4.015 4.327 2.124 0 4.758-.87 7.902-2.609 1.445-.805 2.698-1.6 3.76-2.385 1.063-.785 1.955-1.58 2.677-2.386.807-.848 1.211-.89 1.211-.127 0 .254-.106.551-.319.89zm-11.726-5.98c.807-1.357 1.21-2.524 1.21-3.5 0-.763-.254-1.144-.764-1.144-.892 0-2.124 1.039-3.696 3.117-1.53 2.12-2.74 4.241-3.633 6.362 3.357-1.06 5.65-2.672 6.883-4.835z" fill="#292929"/><path d="M163 56.89c10.344-11.22 25.877-15.739 38.026-11.064 8.573 3.3 9.096 5.971 2.373 12.132C191.242 69.096 172.26 68.594 163 56.89zm36.435-3.547c0-3.394-5.368-4.293-7.51-4.574-9.805-1.296-18.296 2.296-26.048 8.24 9.44 3.525 33.558-.273 33.558-3.666zM149 55.89c-10.344-11.22-25.877-15.739-38.026-11.064-8.573 3.3-9.096 5.971-2.373 12.132C120.758 68.096 139.74 67.594 149 55.89zm-36.435-3.547c-1.417-1.662 5.368-4.293 7.51-4.574 9.805-1.296 18.296 2.296 26.048 8.24-9.44 3.525-32.614 1.855-33.558-3.666zm66.061 26.143c7.523 3.409 9.315 1.524 6.743-5.825 5.884 2.213 11.507 10.832 10.517 14.767-.99 3.936-8.766 3.318-18.216-1.601C168.22 80.907 159.81 70.629 158 68c0 0 14.087 7.523 20.626 10.486zM152 68c-6.232 9.063-11.389 16.626-22.169 19.452-2.21.58-6.64 1.146-8.562-.812-1.922-1.959-1.382-5.498-.214-7.321 2.412-3.773 6-6.842 9.104-10.201 0 0-4.191 8.898-1.46 11.554C131.433 83.328 152 68 152 68zm8.469-48c9.327 10.953 8.118 26.911-.166 32 .829-4.796 2.37-9.375 2.144-13.878-.155-3.123-1.404-9.208-4.252-9.208s-6.107 5.282-6.959 8.434c-1.202 4.441-.303 9.37-.303 12.883-6.168-8.803-2.43-22.865 9.536-30.231zM165 21.702c.46-5.187 5.438-12.652 8.67-12.702 3.264-.05 5.91 6.298 5.22 13.335-.746 7.606-2.21 15.029-8.382 20.665 1.237-4.96 7.298-23.454 3.161-24.355-4.137-.902-8.669 3.057-8.669 3.057zm-17.076-.122c-.55-5.178-5.658-12.555-8.89-12.548-3.264.007-5.8 6.4-4.987 13.424.88 7.591 2.472 14.988 8.741 20.515-1.323-4.937-7.706-23.323-3.585-24.296 4.12-.973 8.72 2.905 8.72 2.905zM151 14c0-4.422.86-14 5.663-14s6.843 9.342 6.231 14c0 0-2.71-7.04-5.547-7-2.837.04-6.347 7-6.347 7z" fill="#E63A5C"/><path fill="#7ED321" d="M156.458 93L155 81.38l2.358-.38L159 92.56z"/><path d="M234.445 155.474l.972-.68 1.447 2.19s-.305 1.02-.576 1.15c-.27.132-.274-.375-.274-.375s-1.135-.15-1.44-.532c-.305-.383-.129-1.753-.129-1.753zM157 118.76s2.954-2.287 3.749-3.041c.795-.755 2.715-2.719 2.715-2.719l1.536.096s-1.245 1.439-2.492 2.694c-1.247 1.256-3.656 3.21-3.656 3.21l-1.852-.24z" fill="#292929"/></g></svg>