<svg xmlns="http://www.w3.org/2000/svg" width="23" height="23" viewBox="0 0 23 23"><title>Shape</title><path d="M11.31 22.13C5.35 22.13.5 17.28.5 11.31.5 5.35 5.35.5 11.31.5c5.97 0 10.82 4.85 10.82 10.81 0 5.97-4.85 10.82-10.82 10.82zm0-20.9c-5.55 0-10.08 4.53-10.08 10.08 0 5.56 4.53 10.08 10.08 10.08 5.56 0 10.08-4.52 10.08-10.08 0-5.55-4.52-10.08-10.08-10.08z" fill="#3bb71e"/><path d="M11.31 22.13C5.35 22.13.5 17.28.5 11.31.5 5.35 5.35.5 11.31.5c5.97 0 10.82 4.85 10.82 10.81 0 5.97-4.85 10.82-10.82 10.82zm0-20.9c-5.55 0-10.08 4.53-10.08 10.08 0 5.56 4.53 10.08 10.08 10.08 5.56 0 10.08-4.52 10.08-10.08 0-5.55-4.52-10.08-10.08-10.08z" fill="none" stroke-dasharray="0" stroke="#82cf70" stroke-miterlimit="50"/><path d="M15.97 11.23h-9.1a.36.36 0 0 1-.37-.36c0-.21.16-.37.37-.37h9.1c.21 0 .37.16.37.37 0 .2-.16.36-.37.36z" fill="#3bb71e"/><path d="M15.97 11.23h-9.1a.36.36 0 0 1-.37-.36c0-.21.16-.37.37-.37h9.1c.21 0 .37.16.37.37 0 .2-.16.36-.37.36z" fill="none" stroke-dasharray="0" stroke="#82cf70" stroke-miterlimit="50"/><path d="M10.87 16.34c-.21 0-.37-.16-.37-.37v-9.1c0-.21.16-.37.37-.37.2 0 .36.16.36.37v9.1c0 .21-.16.37-.36.37z" fill="#3bb71e"/><path d="M10.87 16.34c-.21 0-.37-.16-.37-.37v-9.1c0-.21.16-.37.37-.37.2 0 .36.16.36.37v9.1c0 .21-.16.37-.36.37z" fill="none" stroke-dasharray="0" stroke="#82cf70" stroke-miterlimit="50"/></svg>