<svg id="SvgjsSvg1019" xmlns="http://www.w3.org/2000/svg" version="1.1" xmlns:xlink="http://www.w3.org/1999/xlink" xmlns:svgjs="http://svgjs.com/svgjs" width="19" height="19" viewBox="0 0 19 19"><title>Shape</title><desc>Created with Avocode.</desc><defs id="SvgjsDefs1020"></defs><path id="SvgjsPath1021" d="M387.68 143H379.21C376.34 143 374 145.34 374 148.21V156.68C374 159.56 376.34 161.9 379.21 161.9H387.68C390.56 161.9 392.90000000000003 159.56 392.90000000000003 156.68V148.21C392.90000000000003 145.34 390.56000000000006 143 387.68 143ZM387.68 160.22H379.21C377.26 160.22 375.68 158.63 375.68 156.68V148.21C375.68 146.26000000000002 377.26 144.68 379.21 144.68H387.68C389.63 144.68 391.22 146.26000000000002 391.22 148.21V156.68C391.22 158.63 389.63000000000005 160.22 387.68 160.22Z " fill="#5a5a5a" fill-opacity="1" transform="matrix(1,0,0,1,-374,-143)"></path><path id="SvgjsPath1022" d="M383.87 148C381.18 148 379 150.18 379 152.87C379 155.55 381.18 157.74 383.87 157.74C386.55 157.74 388.74 155.55 388.74 152.87C388.74 150.18 386.55 148 383.87 148ZM383.87 156.06C382.11 156.06 380.68 154.63 380.68 152.87C380.68 151.11 382.11 149.68 383.87 149.68C385.63 149.68 387.06 151.11 387.06 152.87C387.06 154.63 385.63 156.06 383.87 156.06Z " fill="#5a5a5a" fill-opacity="1" transform="matrix(1,0,0,1,-374,-143)"></path><path id="SvgjsPath1023" d="M388.23 146C387.91 146 387.59000000000003 146.13 387.36 146.36C387.13 146.59 387 146.91000000000003 387 147.23000000000002C387 147.55 387.13 147.87 387.36 148.10000000000002C387.59000000000003 148.33 387.91 148.46000000000004 388.23 148.46000000000004C388.55 148.46000000000004 388.87 148.33000000000004 389.1 148.10000000000002C389.33000000000004 147.87000000000003 389.46000000000004 147.55 389.46000000000004 147.23000000000002C389.46000000000004 146.91000000000003 389.33000000000004 146.59000000000003 389.1 146.36C388.87 146.13000000000002 388.55 146 388.23 146Z " fill="#5a5a5a" fill-opacity="1" transform="matrix(1,0,0,1,-374,-143)"></path></svg>