<svg id="SvgjsSvg1016" xmlns="http://www.w3.org/2000/svg" version="1.1" xmlns:xlink="http://www.w3.org/1999/xlink" xmlns:svgjs="http://svgjs.com/svgjs" width="18" height="18" viewBox="0 0 18 18"><title>Shape</title><desc>Created with Avocode.</desc><defs id="SvgjsDefs1017"></defs><path id="SvgjsPath1018" d="M1426.84 78.08L1422.47 73.71C1423.64 72.36 1424.3500000000001 70.6 1424.3500000000001 68.66999999999999C1424.3500000000001 64.43999999999998 1420.91 60.999999999999986 1416.67 60.999999999999986C1412.44 60.999999999999986 1409 64.43999999999998 1409 68.66999999999999C1409 72.90999999999998 1412.44 76.35 1416.67 76.35C1418.6000000000001 76.35 1420.3600000000001 75.64 1421.71 74.47L1426.08 78.84C1426.1899999999998 78.94 1426.33 79 1426.46 79C1426.6000000000001 79 1426.74 78.95 1426.8400000000001 78.84C1427.0500000000002 78.63000000000001 1427.0500000000002 78.29 1426.8400000000001 78.08ZM1410.07 68.67C1410.07 65.04 1413.04 62.08 1416.6699999999998 62.08C1420.31 62.08 1423.2699999999998 65.03999999999999 1423.2699999999998 68.67C1423.2699999999998 72.31 1420.3099999999997 75.28 1416.6699999999998 75.28C1413.0399999999997 75.28 1410.07 72.31 1410.07 68.67Z " fill="#4c4c4c" fill-opacity="1" transform="matrix(1,0,0,1,-1409,-61)"></path></svg>