<?xml version="1.0" encoding="UTF-8" standalone="no"?>
<svg width="20px" height="20px" viewBox="0 0 20 20" version="1.1" xmlns="http://www.w3.org/2000/svg" xmlns:xlink="http://www.w3.org/1999/xlink">
    <!-- Generator: Sketch 41.2 (35397) - http://www.bohemiancoding.com/sketch -->
    <title>whatsapp-logo</title>
    <desc>Created with Sketch.</desc>
    <defs></defs>
    <g id="Page-1" stroke="none" stroke-width="1" fill="none" fill-rule="evenodd">
        <g id="flowers2" transform="translate(-408.000000, -143.000000)" fill="#7ED321">
            <g id="menu" transform="translate(374.000000, -7.000000)">
                <g id="whatsapp-logo" transform="translate(34.000000, 150.000000)">
                    <g id="Capa_1">
                        <path d="M20,9.74244444 C20,15.1231111 15.6046667,19.4848889 10.1817778,19.4848889 C8.46022222,19.4848889 6.84288889,19.0448889 5.43577778,18.2726667 L0,20 L1.77222222,14.7728889 C0.878222222,13.3048889 0.363333333,11.5831111 0.363333333,9.74244444 C0.363333333,4.36177778 4.75911111,0 10.1817778,0 C15.6051111,0 20,4.36177778 20,9.74244444 Z M10.1817778,1.55155556 C5.62977778,1.55155556 1.92711111,5.226 1.92711111,9.74244444 C1.92711111,11.5346667 2.51133333,13.1944444 3.49955556,14.5446667 L2.46822222,17.5866667 L5.64044444,16.5784444 C6.94377778,17.4342222 8.50511111,17.9333333 10.182,17.9333333 C14.7333333,17.9333333 18.4366667,14.2593333 18.4366667,9.74288889 C18.4366667,5.22644444 14.7335556,1.55155556 10.1817778,1.55155556 Z M15.1397778,11.9862222 C15.0791111,11.8868889 14.9188889,11.8268889 14.6784444,11.7075556 C14.4375556,11.5882222 13.254,11.0102222 13.034,10.9308889 C12.8133333,10.8513333 12.6524444,10.8113333 12.4922222,11.0502222 C12.332,11.2893333 11.8706667,11.8268889 11.73,11.9862222 C11.5895556,12.146 11.4493333,12.166 11.2084444,12.0464444 C10.968,11.9271111 10.1926667,11.6746667 9.27333333,10.8613333 C8.558,10.2284444 8.07488889,9.44711111 7.93444444,9.20777778 C7.79422222,8.96888889 7.91977778,8.83977778 8.04,8.72088889 C8.14844444,8.61377778 8.28088889,8.442 8.40111111,8.30266667 C8.52177778,8.16311111 8.56177778,8.06377778 8.64155556,7.90422222 C8.72222222,7.74488889 8.682,7.60555556 8.62155556,7.48577778 C8.56155556,7.36644444 8.07977778,6.19133333 7.87933333,5.71311111 C7.67888889,5.23533333 7.47866667,5.31488889 7.338,5.31488889 C7.19777778,5.31488889 7.03711111,5.29488889 6.87666667,5.29488889 C6.71622222,5.29488889 6.45533333,5.35466667 6.23466667,5.59355556 C6.01422222,5.83266667 5.39266667,6.41044444 5.39266667,7.58533333 C5.39266667,8.76044444 6.25466667,9.89577778 6.37533333,10.0548889 C6.49555556,10.214 8.03977778,12.7037778 10.4864444,13.66 C12.9333333,14.6157778 12.9333333,14.2968889 13.3746667,14.2568889 C13.8155556,14.2171111 14.7982222,13.6793333 14.9995556,13.122 C15.1995556,12.5637778 15.1995556,12.0857778 15.1397778,11.9862222 Z" id="WhatsApp"></path>
                    </g>
                </g>
            </g>
        </g>
    </g>
</svg>