<?xml version="1.0" encoding="UTF-8" standalone="no"?>
<svg width="32px" height="49px" viewBox="0 0 32 49" version="1.1" xmlns="http://www.w3.org/2000/svg" xmlns:xlink="http://www.w3.org/1999/xlink">
    <!-- Generator: Sketch 41.2 (35397) - http://www.bohemiancoding.com/sketch -->
    <title>flowers</title>
    <desc>Created with Sketch.</desc>
    <defs></defs>
    <g id="Page-1" stroke="none" stroke-width="1" fill="none" fill-rule="evenodd">
        <g id="flowers2-copy" transform="translate(-749.000000, -2339.000000)" fill="#000000">
            <g id="flowers" transform="translate(749.000000, 2339.000000)">
                <g id="Group">
                    <path d="M22.6710098,38.9460043 L21.00357,38.9460043 C20.5717264,38.9460043 20.2218111,39.3012808 20.2218111,39.7397408 C20.2218111,40.1782009 20.5717264,40.5334773 21.00357,40.5334773 L22.6710098,40.5334773 C23.1028534,40.5334773 23.4527687,40.1782009 23.4527687,39.7397408 C23.4527687,39.3012808 23.1028534,38.9460043 22.6710098,38.9460043 Z" id="Shape"></path>
                    <path d="M27.4972769,27.9450281 C27.0685603,27.893594 26.6799739,28.2050562 26.6296287,28.6405529 L26.139101,32.8738143 C26.0886515,33.3090994 26.3953094,33.7036393 26.8241303,33.7547559 C26.8551922,33.75846 26.8859414,33.760365 26.9164821,33.760365 C27.3073616,33.760365 27.6450814,33.4630842 27.6917785,33.0592311 L28.1823062,28.8259698 C28.2328599,28.3906847 27.926202,27.9961447 27.4972769,27.9450281 Z" id="Shape"></path>
                    <path d="M31.7410814,24.8192937 C31.5927557,24.6498575 31.3801173,24.5529158 31.1569511,24.5529158 L30.9576547,24.5529158 L30.9576547,15.1868251 C30.9576547,6.81279914 24.2476612,0 16,0 C7.75233876,0 1.04234528,6.81279914 1.04234528,15.1868251 L1.04234528,24.5529158 L0.84304886,24.5529158 C0.619778502,24.5529158 0.407140065,24.6498575 0.258918567,24.8192937 C0.110592834,24.9886242 0.0405472313,25.214257 0.0667100977,25.4393607 L1.21068404,35.311432 C1.28667101,35.9676933 1.65899674,36.5224622 2.18194137,36.8450367 C1.98743974,37.2014773 1.8762215,37.6109395 1.8762215,38.0464363 C1.8762215,38.7001577 2.12628013,39.2953542 2.53394137,39.7397408 C2.12628013,40.1841274 1.8762215,40.779324 1.8762215,41.4330454 C1.8762215,42.1416933 2.17016287,42.7815508 2.64005212,43.2350389 C2.36112052,43.6474644 2.23478827,44.1511166 2.29305537,44.6534989 L2.5421759,46.8034665 C2.68727036,48.0556652 3.73315961,49 4.97490554,49 L27.0250945,49 C28.2668404,49 29.3127296,48.0556652 29.4578241,46.8034665 L29.7068404,44.6534989 C29.7651075,44.1511166 29.6387752,43.6475702 29.3598436,43.2350389 C29.8298371,42.7816566 30.1237785,42.1416933 30.1237785,41.4330454 C30.1237785,40.779324 29.8737199,40.1841274 29.4660586,39.7397408 C29.8737199,39.2953542 30.1237785,38.7001577 30.1237785,38.0464363 C30.1237785,37.6109395 30.0126645,37.2014773 29.8181629,36.8451425 C30.3411075,36.5224622 30.7134332,35.9676933 30.7894202,35.3115378 L31.9332899,25.4394665 C31.9594528,25.214257 31.8894072,24.9885184 31.7410814,24.8192937 Z M2.60586319,15.1868251 C2.60586319,7.68813175 8.61446254,1.587473 16,1.587473 C23.3855375,1.587473 29.3941368,7.68813175 29.3941368,15.1868251 L29.3941368,24.5529158 L24.3486645,24.5529158 C24.4600912,24.3690864 24.5564039,24.1744622 24.631557,23.9688315 C25.950228,24.195946 27.3184104,23.5867797 28.0177199,22.3569114 C28.7171336,21.1269374 28.5527557,19.6190497 27.6995961,18.5734341 C28.5527557,17.5277127 28.7171336,16.0198251 28.0177199,14.7899568 C27.3184104,13.5600886 25.9501238,12.9508164 24.631557,13.1779309 C24.1661498,11.9048834 22.9621368,11.0064795 21.5635179,11.0064795 C20.8425277,11.0064795 20.1743844,11.2465054 19.6314267,11.6521577 C19.9487166,10.7601037 19.8918046,9.7412635 19.3925212,8.86339093 C18.6932117,7.63362851 17.3248208,7.02403888 16.0063583,7.25147084 C15.5408469,5.97831749 14.3368339,5.07991361 12.9381107,5.07991361 C11.5393876,5.07991361 10.3353746,5.97831749 9.86996743,7.25147084 C8.55181759,7.02435637 7.18321824,7.63362851 6.48380456,8.86339093 C5.78449511,10.0932592 5.94876873,11.6011469 6.80192834,12.6468683 C5.94876873,13.6924838 5.78439088,15.2003715 6.48380456,16.4303456 C6.66433876,16.7478402 6.89636482,17.0314687 7.16612378,17.2708596 C7.14663192,17.3174255 7.12620195,17.3634622 7.10879479,17.4110864 C5.79012378,17.1837603 4.42194137,17.7932441 3.72263192,19.0231123 C3.02321824,20.2529806 3.18749186,21.7609741 4.04085993,22.8066955 C3.63455375,23.3042095 3.37907492,23.9115767 3.30611075,24.5528099 L2.60586319,24.5528099 L2.60586319,15.1868251 L2.60586319,15.1868251 Z M7.60432573,20.7165227 C6.90501629,21.9462851 7.0692899,23.4542786 7.92244951,24.5 C7.90806515,24.517568 7.895557,24.5363002 7.88158958,24.5541857 C7.87325081,24.5538683 7.86522476,24.5529158 7.85678176,24.5529158 L4.89016287,24.5529158 C4.98668404,24.1177365 5.24622801,23.7258423 5.62991531,23.4707883 C5.8505798,23.3241058 5.98358306,23.0744492 5.98358306,22.8066955 C5.98358306,22.5389417 5.85068404,22.2891793 5.62991531,22.1426026 C4.8667101,21.6353521 4.62373941,20.6137603 5.07674267,19.8169546 C5.52974593,19.0200432 6.5225798,18.7229741 7.3370684,19.1404795 C7.57242997,19.2612333 7.85188274,19.2532959 8.08036482,19.119419 C8.30874267,18.9855421 8.45529642,18.7437171 8.46999349,18.4764924 C8.52096417,17.5516307 9.2709316,16.8272138 10.1770423,16.8272138 C10.8757264,16.8272138 11.4934202,17.2637689 11.7544235,17.9027797 C11.4217068,18.2392181 11.1578893,18.646987 10.9905928,19.1044968 C9.67171336,18.8771706 8.30363518,19.4866544 7.60432573,20.7165227 Z M8.39108795,11.9827754 C7.62788274,11.4755248 7.38480782,10.4540389 7.83781107,9.65712743 C8.29091857,8.86042765 9.28406515,8.56335853 10.0981368,8.9807581 C10.3337068,9.10130022 10.6128469,9.09346868 10.8414332,8.95959179 C11.0698111,8.8257149 11.2163648,8.58388985 11.2310619,8.31666523 C11.2821368,7.39180346 12.032,6.66738661 12.9381107,6.66738661 C13.8442215,6.66738661 14.5941889,7.39180346 14.6451596,8.31666523 C14.6599609,8.58388985 14.8064104,8.82582073 15.0347883,8.95959179 C15.2632704,9.09357451 15.5426189,9.10130022 15.7780847,8.9807581 C16.5924691,8.56314687 17.5851987,8.86032181 18.0384104,9.65712743 C18.4915179,10.453933 18.2485472,11.4755248 17.4852378,11.9827754 C17.2645733,12.1294579 17.13157,12.3791145 17.13157,12.6467624 C17.13157,12.8510173 17.209329,13.0442657 17.3437915,13.189784 C16.4338241,13.3621836 15.6038046,13.9197041 15.1090033,14.7899568 C14.7144756,15.4837883 14.5956482,16.2658834 14.7194788,17.0038467 C14.5054853,16.9589741 14.2849251,16.9330454 14.0584235,16.9330454 C13.7261238,16.9330454 13.4053941,16.9852203 13.1023844,17.079622 C12.5578632,15.97654 11.4353616,15.2397408 10.1769381,15.2397408 C9.39392834,15.2397408 8.67210423,15.521676 8.10652769,15.992838 C8.00343974,15.8876415 7.91327687,15.7691102 7.83791531,15.6366091 C7.38480782,14.8398035 7.6277785,13.8182117 8.39119218,13.3109611 C8.61185668,13.1642786 8.74485993,12.914622 8.74485993,12.6468683 C8.74485993,12.3791145 8.61185668,12.1293521 8.39108795,11.9827754 L8.39108795,11.9827754 Z M9.51140065,23.8359071 C8.74819544,23.3286566 8.50522476,22.3070648 8.95822801,21.5102592 C9.4113355,20.7134536 10.4040651,20.4161728 11.2185537,20.833784 C11.4539153,20.9545378 11.7333681,20.9466004 11.9618502,20.8127235 C12.190228,20.6788467 12.3367818,20.4370216 12.3514788,20.169797 C12.4024495,19.2449352 13.1524169,18.5205184 14.0585277,18.5205184 C14.9646384,18.5205184 15.7146059,19.2449352 15.7655765,20.169797 C15.7803779,20.4370216 15.9268274,20.6789525 16.1552052,20.8127235 C16.3835831,20.9467063 16.6631401,20.9545378 16.8985016,20.833784 C17.7125733,20.4164903 18.7056156,20.7132419 19.1588274,21.5102592 C19.6119349,22.3070648 19.3689642,23.3286566 18.6055505,23.8359071 C18.384886,23.9825896 18.2518827,24.2322462 18.2518827,24.5 C18.2518827,24.7677538 18.3847818,25.0175162 18.6055505,25.1640929 C19.3688599,25.6713434 19.6118306,26.6928294 19.1588274,27.4897408 C18.7058241,28.2865464 17.7127818,28.5837214 16.8985016,28.1661102 C16.6629316,28.045568 16.3836873,28.0532937 16.1552052,28.1872765 C15.9268274,28.3211533 15.7802736,28.5629784 15.7655765,28.830203 C15.7146059,29.7550648 14.9646384,30.4794816 14.0585277,30.4794816 C13.1524169,30.4794816 12.4024495,29.7550648 12.3514788,28.830203 C12.3366775,28.5629784 12.190228,28.3210475 11.9618502,28.1872765 C11.8411466,28.1164752 11.7061629,28.0809158 11.5709707,28.0809158 C11.4503713,28.0809158 11.3295635,28.1092786 11.2185537,28.1661102 C10.4043779,28.583933 9.41143974,28.2866523 8.95822801,27.4897408 C8.50512052,26.6929352 8.74809121,25.6713434 9.51140065,25.1640929 C9.73206515,25.0174104 9.8650684,24.7677538 9.8650684,24.5 C9.8650684,24.2322462 9.73216938,23.9824838 9.51140065,23.8359071 L9.51140065,23.8359071 Z M20.4532117,24.1325529 C21.0472443,23.1614428 21.1258371,21.9161231 20.5829837,20.8518812 C20.8833876,20.9856523 21.2149577,21.0604752 21.5634137,21.0604752 C22.4347101,21.0604752 23.2473225,20.5845508 23.6842736,19.8184363 C23.9005603,19.4390302 23.7729772,18.9533693 23.3994007,18.7337689 C23.0257199,18.5143801 22.5474919,18.6437063 22.331101,19.0230065 C22.172873,19.3006026 21.8787231,19.4730022 21.5635179,19.4730022 C21.0749707,19.4730022 20.6775244,19.0694665 20.6775244,18.5734341 C20.6775244,18.0774017 21.0749707,17.6738661 21.5635179,17.6738661 C21.9953616,17.6738661 22.3452769,17.3185896 22.3452769,16.8801296 C22.3452769,16.4416695 21.9953616,16.0863931 21.5635179,16.0863931 C20.2128469,16.0863931 19.1140065,17.2020691 19.1140065,18.5734341 C19.1140065,18.8953737 19.1751922,19.2028143 19.2853681,19.4853844 C18.6504756,19.1237581 17.9059283,18.983108 17.1735765,19.0982527 C17.1980717,19.0701015 17.2215244,19.0404687 17.2423713,19.0081901 C17.4788795,18.6414838 17.3776678,18.1495788 17.0163909,17.9093413 C16.2531857,17.4020907 16.010215,16.3804989 16.4632182,15.5836933 C16.9163257,14.7867819 17.9090554,14.4896069 18.723544,14.9072181 C18.9588013,15.0279719 19.2382541,15.0200346 19.4668404,14.8861577 C19.6952182,14.7522808 19.841772,14.5104557 19.8564691,14.2432311 C19.9074397,13.3183693 20.6574072,12.5939525 21.5635179,12.5939525 C22.4696287,12.5939525 23.2195961,13.3183693 23.2705668,14.2432311 C23.2853681,14.5104557 23.4318176,14.7523866 23.6601954,14.8861577 C23.8885733,15.0201404 24.1681303,15.0279719 24.4034919,14.9072181 C25.2175635,14.4900302 26.2106059,14.786676 26.6638176,15.5836933 C27.1169251,16.3804989 26.8739544,17.4020907 26.1105407,17.9093413 C25.8898762,18.0560238 25.756873,18.3056803 25.756873,18.5734341 C25.756873,18.8411879 25.889772,19.0909503 26.1105407,19.237527 C26.8738502,19.7447775 27.1168208,20.7662635 26.6638176,21.5631749 C26.2108143,22.3599806 25.217772,22.6570497 24.4034919,22.2395443 C24.1679218,22.1188963 23.8886775,22.1268337 23.6601954,22.2607106 C23.4318176,22.3945875 23.2852638,22.6364125 23.2705668,22.9036371 C23.2195961,23.8284989 22.4696287,24.5529158 21.5635179,24.5529158 C21.1538762,24.5529158 20.7607036,24.4009417 20.4532117,24.1325529 Z M29.2367427,35.1260151 C29.2081824,35.3729201 29.001798,35.5592894 28.7568469,35.5592894 L27.6742671,35.5593952 L26.0068274,35.5593952 C25.5749837,35.5593952 25.2250684,35.9146717 25.2250684,36.3531317 C25.2250684,36.7915918 25.5749837,37.1468683 26.0068274,37.1468683 L27.6742671,37.1468683 C28.1628143,37.1468683 28.5602606,37.5504039 28.5602606,38.0464363 C28.5602606,38.5424687 28.1628143,38.9460043 27.6742671,38.9460043 L26.0067231,38.9460043 C25.5748795,38.9460043 25.2249642,39.3012808 25.2249642,39.7397408 C25.2249642,40.1782009 25.5748795,40.5334773 26.0067231,40.5334773 L27.6742671,40.5334773 C28.1628143,40.5334773 28.5602606,40.937013 28.5602606,41.4330454 C28.5602606,41.9290778 28.1628143,42.3326134 27.6742671,42.3326134 L26.0067231,42.3326134 C25.5748795,42.3326134 25.2249642,42.6878898 25.2249642,43.1263499 C25.2249642,43.5648099 25.5748795,43.9200864 26.0067231,43.9200864 L27.6742671,43.9200864 C27.8630358,43.9200864 27.9814463,44.0232721 28.0352313,44.0846544 C28.0891205,44.1461425 28.1761564,44.2776911 28.1541629,44.4680821 L27.9050423,46.6179438 C27.8525081,47.0709028 27.474241,47.412527 27.0250945,47.412527 L4.97490554,47.412527 C4.52565472,47.412527 4.14749186,47.0709028 4.09495765,46.6180497 L3.84583713,44.4680821 C3.82384365,44.2776911 3.91087948,44.1461425 3.96476873,44.0846544 C4.01865798,44.0232721 4.13696417,43.9200864 4.3257329,43.9200864 L22.6710098,43.9200864 C23.1028534,43.9200864 23.4527687,43.5648099 23.4527687,43.1263499 C23.4527687,42.6878898 23.1028534,42.3326134 22.6710098,42.3326134 L4.3257329,42.3326134 C3.83718567,42.3326134 3.43984365,41.9290778 3.43984365,41.4330454 C3.43984365,40.937013 3.8372899,40.5334773 4.3257329,40.5334773 L17.6674397,40.5334773 C18.0992834,40.5334773 18.4491987,40.1782009 18.4491987,39.7397408 C18.4491987,39.3012808 18.0992834,38.9460043 17.6674397,38.9460043 L4.3257329,38.9460043 C3.83718567,38.9460043 3.43984365,38.5424687 3.43984365,38.0464363 C3.43984365,37.5504039 3.8372899,37.1468683 4.3257329,37.1468683 L4.32583713,37.1468683 L22.671114,37.1468683 C23.1029577,37.1468683 23.452873,36.7915918 23.452873,36.3531317 C23.452873,35.9146717 23.1029577,35.5593952 22.671114,35.5593952 L4.32583713,35.5593952 L3.24325733,35.5592894 C2.99820195,35.5592894 2.79192182,35.3729201 2.76336156,35.1260151 L1.7222671,26.1403888 L4.08745277,26.1403888 C4.09120521,26.1404946 4.09495765,26.1409179 4.09881433,26.1409179 C4.10079479,26.1409179 4.10287948,26.1403888 4.10496417,26.1403888 L7.20458632,26.1403888 C7.09983062,26.8573974 7.22241042,27.6117646 7.60432573,28.2834773 C8.30363518,29.5132397 9.67192182,30.1228294 10.9904886,29.8953974 C11.4558958,31.1685508 12.6599088,32.0669546 14.0586319,32.0669546 C15.457355,32.0669546 16.6613681,31.1685508 17.1267752,29.8953974 C18.4454463,30.1226177 19.8136287,29.5133456 20.5129381,28.2834773 C20.8949577,27.6117646 21.0175375,26.8573974 20.9126775,26.1403888 L30.2778371,26.1403888 L29.2367427,35.1260151 Z" id="Shape"></path>
                    <path d="M14.0586319,26.987041 C14.9299283,26.987041 15.7425407,26.5111166 16.1794919,25.7450022 C16.3957785,25.3655961 16.2681954,24.8799352 15.8946189,24.6603348 C15.5208339,24.4408402 15.0427101,24.5702721 14.8263192,24.9495724 C14.6680912,25.2271685 14.3739414,25.399568 14.0587362,25.399568 C13.5701889,25.399568 13.1727427,24.9960324 13.1727427,24.5 C13.1727427,24.0039676 13.5701889,23.600432 14.0587362,23.600432 C14.4905798,23.600432 14.8404951,23.2451555 14.8404951,22.8066955 C14.8404951,22.3682354 14.4905798,22.012959 14.0587362,22.012959 C12.7080651,22.012959 11.6092248,23.128635 11.6092248,24.5 C11.6092248,25.871365 12.7079609,26.987041 14.0586319,26.987041 L14.0586319,26.987041 Z" id="Shape"></path>
                    <path d="M12.9381107,15.1339093 C13.8093029,15.1339093 14.6220195,14.6579849 15.0589707,13.8919762 C15.2753616,13.5125702 15.1478827,13.0269093 14.7743062,12.8073089 C14.4008339,12.5877084 13.9225016,12.7170346 13.7060065,13.0963348 C13.54757,13.3739309 13.2534202,13.5464363 12.938215,13.5464363 C12.4496678,13.5464363 12.0522215,13.1429006 12.0522215,12.6468683 C12.0522215,12.1508359 12.4496678,11.7473002 12.938215,11.7473002 C13.3700586,11.7473002 13.7199739,11.3920238 13.7199739,10.9535637 C13.7199739,10.5151037 13.3700586,10.1598272 12.938215,10.1598272 C11.587544,10.1598272 10.4887036,11.2755032 10.4887036,12.6468683 C10.4887036,14.0182333 11.5874397,15.1339093 12.9381107,15.1339093 L12.9381107,15.1339093 Z" id="Shape"></path>
                </g>
            </g>
        </g>
    </g>
</svg>