<?xml version="1.0" encoding="UTF-8" standalone="no"?>
<svg width="314px" height="160px" viewBox="0 0 314 160" version="1.1" xmlns="http://www.w3.org/2000/svg" xmlns:xlink="http://www.w3.org/1999/xlink">
    <!-- Generator: Sketch 41.2 (35397) - http://www.bohemiancoding.com/sketch -->
    <title>online_butik</title>
    <desc>Created with Sketch.</desc>
    <defs></defs>
    <g id="Page-1" stroke="none" stroke-width="1" fill="none" fill-rule="evenodd">
        <g id="Artboard-2" transform="translate(-380.000000, -135.000000)">
            <g id="online_butik" transform="translate(380.000000, 135.000000)">
                <g id="Group-11">
                    <g id="Page-1">
                        <g id="flowers2">
                            <g id="menu">
                                <g id="Group-11">
                                    <g id="Онлайн-бутик-цветов" transform="translate(77.000000, 129.000000)" font-size="16" font-family="CaviarDreams, Caviar Dreams" fill="#4C4C4C" font-weight="normal">
                                        <text>
                                            <tspan x="0" y="16">Онлайн-бутик цветов</tspan>
                                        </text>
                                    </g>
                                    <g id="Group-6">
                                        <path d="M53.46986,77.6049805 C53.257424,74.2966442 52.3864497,71.9836961 50.8569109,70.1174551 C49.4548337,68.4208724 47.712885,67.5725938 45.6310128,67.5725938 C43.6766021,67.5725938 41.8921669,68.2936306 40.2776537,69.7357259 C38.4931918,71.3898941 37.197352,73.5530046 36.3900954,76.2251223 C39.1092755,76.2675369 41.881523,76.4265892 44.706921,76.7022838 C47.5323191,76.9779785 50.4532695,77.0960057 53.46986,77.6049805 Z M49.9009539,99.319739 C50.6232361,99.3621536 51.3242642,99.4045675 52.0040593,99.4469821 C52.6838543,99.4893966 53.3211526,99.5530175 53.9159732,99.6378467 C54.1284092,99.213701 54.5320314,98.3018015 55.126852,96.9021207 C55.7216727,95.50244 56.4864306,93.5938131 57.4211488,91.1761827 C58.2708926,88.9282106 59.078137,87.0195837 59.8429064,85.4502447 C60.6076758,83.8809057 61.2874607,82.6296947 61.8822813,81.6965742 C60.7776144,81.3996723 59.6623424,81.1451887 58.5364319,80.9331158 C57.4105214,80.721043 56.2527629,80.5089733 55.0631216,80.2969005 C54.8506856,86.1925254 53.1299803,92.5334082 49.9009539,99.319739 Z M66.6620662,80.8694943 C67.4905667,81.2936393 68.3827843,81.5693299 69.2750152,81.8238173 C70.1672462,82.0783047 71.0594638,82.3539953 71.9516947,82.6508972 C73.0138745,82.9477992 73.9910652,83.2022828 74.8832961,83.4143556 C75.7755271,83.6264285 76.6252581,83.7960842 77.4325147,83.9233279 C79.2169767,84.1778153 80.3003837,84.3050571 80.6827684,84.3050571 C81.9148969,84.3050571 82.7433847,83.9021247 83.1682565,83.096248 C83.2957181,82.9265897 83.444421,82.8417618 83.6143698,82.8417618 C83.9967545,82.8417618 84.187944,83.0326245 84.187944,83.4143556 C84.187944,83.5415993 84.1667007,83.6476342 84.1242135,83.7324633 C83.2319825,85.0897295 81.6387369,85.7683524 79.3444287,85.7683524 C77.390018,85.7683524 75.0745009,85.4290409 72.397808,84.7504078 C72.2703464,84.7079933 71.6542914,84.5171306 70.5496245,84.177814 C69.4449576,83.8384975 67.8092254,83.3719442 65.6423787,82.7781403 C63.7729424,86.5954514 61.0325598,92.3213321 57.4211488,99.9559543 C57.930995,100.040783 58.578915,100.157422 59.3649279,100.305873 C60.1509409,100.454324 61.0750234,100.634583 62.1372032,100.846656 C62.9869469,100.931485 63.7410832,101.079934 64.3996347,101.292007 C65.0581861,101.504079 65.6636195,101.758563 66.2159529,102.055465 C67.3206198,102.649269 67.3206198,102.946166 66.2159529,102.946166 C65.1537732,102.946166 63.6242573,102.734097 61.6273594,102.309951 C60.4377182,102.097878 59.4499058,101.917619 58.6638928,101.769168 C57.8778798,101.620717 57.2724465,101.525286 56.8475746,101.482871 C52.896266,110.602003 47.2030681,117.600302 39.76781,122.477977 C32.332552,127.398067 23.9627013,129.794454 14.6580069,129.66721 C9.85695455,129.624796 6.16062455,128.734103 3.56890603,126.995106 C1.18962345,125.468182 0,123.517141 0,121.141925 C0,119.869488 0.339892413,118.639484 1.01968744,117.451876 C4.07876504,111.725909 12.0449935,108.92659 24.9186117,109.053834 C26.8305352,109.096248 28.4662675,109.212886 29.8258575,109.403752 C31.1854476,109.594618 32.2900979,109.902119 33.1398417,110.326264 C33.9895855,110.792825 34.414451,111.17455 34.414451,111.471452 C34.414451,111.64111 34.2869913,111.725938 34.0320682,111.725938 C33.8621194,111.725938 33.522227,111.619903 33.0123808,111.40783 C32.2051242,110.983685 29.5284714,110.750408 24.9823422,110.707993 C14.4880065,110.538335 7.4777255,112.977136 3.95128882,118.02447 C3.14403223,119.212078 2.74040999,120.399668 2.74040999,121.587276 C2.74040999,123.283858 3.56889774,124.641104 5.22589811,125.659054 C7.05284724,126.846662 9.83571637,127.482871 13.574589,127.5677 C23.4316168,127.694944 31.6952511,125.34097 38.3657398,120.50571 C44.1439975,116.306667 49.0087077,109.923371 52.9600162,101.355628 C52.0252981,101.18597 50.708215,101.122349 49.0087274,101.164763 C45.2698548,108.332825 40.7237938,114.079913 35.370408,118.406199 C29.3797143,123.283874 23.1341912,125.55302 16.6336513,125.213703 C16.3787282,125.128874 16.2725118,125.001632 16.314999,124.831974 C16.3999734,124.619901 16.527433,124.513866 16.6973818,124.513866 C22.7305626,124.64111 28.5937067,122.350758 34.2869901,117.642741 C39.3004784,113.528528 43.5916201,108.05713 47.1605439,101.228385 C43.8890304,101.440458 40.2564302,101.822183 36.2626345,102.373573 C32.3113259,102.967377 29.6346731,103.476344 28.2325959,103.900489 C27.7227496,104.070148 27.2766408,104.154976 26.8942561,104.154976 C26.1719739,104.154976 26.2994336,103.646008 27.2766389,102.628059 C28.0838955,101.737353 28.8486534,101.101144 29.5709357,100.719413 C31.3978848,99.6590485 35.6890265,99.1288744 42.4444895,99.1288744 C43.3792077,99.1288744 44.3245335,99.1394779 45.2804952,99.1606852 C46.236457,99.1818924 47.203026,99.2137029 48.1802314,99.2561175 C49.8797189,95.7781229 51.1649371,92.4380258 52.0359245,89.2357259 C52.9069119,86.0334261 53.3848856,82.9690195 53.46986,80.0424144 C50.4107824,79.5758541 47.4154805,79.2683531 44.4838644,79.1199021 C41.5522484,78.9714511 38.6419196,78.9820546 35.7527907,79.1517129 C35.7103036,79.5758586 35.6784386,79.9893944 35.657195,80.3923328 C35.6359515,80.7952712 35.6253298,81.208807 35.6253298,81.6329527 C35.6253298,87.5709922 38.0683065,92.2153177 42.9543333,95.5660685 C43.124282,95.6933122 43.1455253,95.8629679 43.0180637,96.0750408 C42.8906022,96.2871136 42.7418992,96.3083206 42.5719505,96.1386623 C39.767796,94.2300068 37.6009819,91.8972405 36.0714431,89.1402936 C34.6693658,86.553005 33.9683377,83.8385134 33.9683377,80.9967374 L33.9683377,80.1378467 C33.9683377,79.862152 33.989581,79.5758579 34.0320682,79.278956 C29.273503,79.7031016 24.9717397,80.5725872 21.1266491,81.8874388 C17.2815585,83.2022904 14.2543917,84.8140198 12.0450578,86.7226754 C10.1331343,88.3768435 9.17718693,89.924952 9.17718693,91.3670473 C9.17718693,93.1484592 10.4730268,94.0391517 13.0647453,94.0391517 C14.126925,94.0391517 15.359035,93.848289 16.7611122,93.4665579 C17.1859841,93.3817288 17.48339,93.3393148 17.6533387,93.3393148 C18.0357234,93.3393148 18.2269129,93.4453497 18.2269129,93.6574225 C18.2269129,93.9967391 17.8020474,94.2936366 16.9523036,94.548124 C15.2953033,95.0570988 13.7445441,95.3115824 12.2999797,95.3115824 C9.07095334,95.3115824 7.05284214,94.2724411 6.24558555,92.1941272 C5.35335458,90.0309843 6.01189613,87.719425 8.22122996,85.2593801 C10.7279741,82.4600186 14.7429532,80.1272524 20.2662878,78.2610114 C24.2175964,76.9461598 29.0185767,76.2675369 34.6693728,76.2251223 C35.5616038,73.3833463 37.0698764,71.092994 39.1942358,69.3539967 C41.1486465,67.7846577 43.2942174,67 45.6310128,67 C48.0952697,67 50.1771108,67.9118995 51.8765983,69.7357259 C53.7460346,71.7292106 54.7869552,74.5497371 54.9993911,78.1973899 C56.4439555,78.4518773 57.8460117,78.7381713 59.2056018,79.0562806 C60.5651918,79.3743898 61.9035182,79.7030978 63.2206211,80.0424144 C63.9429033,79.3213667 64.7076612,78.9184344 65.5149178,78.8336052 C66.449636,78.8336052 66.916988,79.2153306 66.916988,79.9787928 C66.916988,80.2756948 66.8320149,80.5725923 66.6620662,80.8694943 Z M89.9236858,79.9151713 C91.8780965,79.8727567 92.8552872,80.954312 92.8552872,83.1598695 C92.8552872,84.1354046 92.6428544,85.1957528 92.2179825,86.3409462 C90.2210847,92.4486439 84.54913,99.5105635 75.2019484,107.526917 C73.2050506,111.17457 72.2066166,114.73734 72.2066166,118.215334 C72.2066166,122.54162 74.5433769,123.368692 79.2169677,120.696574 C80.1516859,120.145185 81.1182549,119.455958 82.1167039,118.628874 C83.1151528,117.80179 84.3468591,116.667216 85.4515261,115.479608 C85.1533553,116.243067 85.1874441,116.624796 84.9571652,117.607269 C80.7223708,121.7756 77.0457928,123.802087 73.9273392,123.686786 C70.7408,123.644372 69.1475543,121.735745 69.1475543,117.960848 C69.1475543,116.137022 69.6361496,113.443737 70.613355,109.880914 C71.29315,107.548112 72.2384758,104.971466 73.4493607,102.150897 C74.6602456,99.3303285 76.1791398,96.2659219 78.0060889,92.9575856 C82.6371925,84.389843 86.6096851,80.042415 89.9236858,79.9151713 Z M90.1786077,86.08646 C90.6459668,84.814023 90.8796428,83.7960886 90.8796428,83.0326264 C90.8796428,81.9722622 90.5185071,81.4420881 89.7962249,81.4420881 C88.6065836,81.4420881 87.3107438,82.6932991 85.9086665,85.1957586 C82.1273067,91.727602 78.8133557,98.4926241 75.966714,105.491028 C77.3263041,104.133762 78.6752521,102.702291 80.0135985,101.196574 C81.351945,99.6908571 82.6584065,98.0897312 83.9330221,96.3931485 C86.9920997,92.4061791 89.0739408,88.9706506 90.1786077,86.08646 Z M88.3304242,116.624796 L88.3304242,116.688418 C87.9905267,118.172927 87.8205805,119.360518 87.8205805,120.251223 C87.8205805,122.54161 88.6490682,123.686786 90.3060686,123.686786 C92.2604793,123.686786 93.9599414,122.647645 95.4045058,120.569331 C92.2604538,120.102771 89.9024502,118.787939 88.3304242,116.624796 Z M94.3210879,105.300163 C92.32419,107.505721 90.709701,110.114177 89.4775726,113.125612 C90.2848291,116.603606 92.5578597,118.597061 96.2967323,119.106036 C97.7837839,116.221845 98.5272986,113.549768 98.5272986,111.089723 C98.5272986,109.520384 98.1555412,108.184345 97.4120154,107.081566 C96.6684896,105.978787 95.6381907,105.384992 94.3210879,105.300163 Z M95.5319667,104.091354 L95.2770449,104.34584 C96.8065837,104.854815 98.0811802,105.745508 99.1008727,107.017945 C100.120565,108.290382 100.630404,109.690041 100.630404,111.216966 C100.630404,113.931498 99.9081325,116.518748 98.4635681,118.978793 L98.3361072,119.233279 C102.287416,119.106035 105.692467,117.727582 108.199211,115.225122 C107.828902,115.924959 107.501735,116.624796 107.303517,117.391196 C104.412044,119.552377 101.104281,120.632953 97.3801502,120.632953 C96.2329961,122.075048 94.8734264,123.252035 93.3014004,124.163948 C91.7293745,125.075861 90.2635884,125.531811 88.9039984,125.531811 C86.0148695,125.531811 84.6128133,123.835254 84.6977877,120.442088 C84.6977877,118.109287 85.3138427,115.331174 86.5459712,112.107667 C86.503484,111.768351 86.4716191,111.407832 86.4503755,111.026101 C86.4291319,110.64437 86.4185102,110.262645 86.4185102,109.880914 C86.4185102,106.360504 88.1392156,104.409464 91.5806779,104.027732 C92.5153961,102.967368 93.3438838,102.437194 94.066166,102.437194 C95.2558073,102.437194 95.850619,102.776506 95.850619,103.455139 C95.850619,103.667212 95.7444027,103.879281 95.5319667,104.091354 Z M132.878019,109.053834 C132.665583,111.259391 131.964555,112.955948 130.774914,114.143556 C131.029837,115.20392 131.550297,116.094613 132.33631,116.815661 C133.122323,117.536708 134.025162,117.897227 135.044855,117.897227 C136.531906,117.897227 137.933963,117.112569 139.251066,115.54323 C139.053945,116.115824 138.862548,116.942904 138.862548,117.267012 C137.48617,118.323375 136.043667,118.85155 134.535011,118.85155 C132.538113,118.85155 130.966111,117.960857 129.818957,116.179445 C128.884239,118.597076 127.715858,120.505703 126.313781,121.905383 C124.911704,123.305064 123.594621,124.004894 122.362492,124.004894 C120.493056,124.004894 119.558352,122.605234 119.558352,119.805873 C119.558352,119.508971 119.568974,119.222677 119.590217,118.946982 C119.611461,118.671287 119.643326,118.384993 119.685813,118.088091 C119.473377,118.300164 118.623646,119.487754 117.136594,121.650897 C116.031927,123.220236 114.736088,124.524465 113.249036,125.563622 C111.761984,126.602778 110.423658,127.122349 109.234017,127.122349 C107.237119,127.122349 106.238685,125.722689 106.238685,122.923328 C106.238685,121.947793 106.408631,120.675375 106.748529,119.106036 C107.1734,117.19738 108.086861,115.119098 109.488939,112.871126 C110.593605,111.089714 111.761986,109.64764 112.994114,108.544861 C113.843858,107.738985 114.714832,107.336052 115.607063,107.336052 C116.41432,107.336052 116.817942,107.63295 116.817942,108.226754 C116.817942,108.438827 116.732969,108.629689 116.56302,108.799347 C114.608609,110.750418 112.611741,113.846635 110.572356,118.088091 C109.340228,120.760209 108.724173,122.690043 108.724173,123.877651 C108.724173,124.98043 109.170282,125.531811 110.062513,125.531811 C111.804487,125.531811 113.865085,124.026116 116.244368,121.014682 C117.434009,119.487757 118.485551,117.854821 119.399026,116.115824 C120.3125,114.376827 121.194096,112.659062 122.04384,110.96248 C122.213789,110.580748 122.787357,110.389886 123.764563,110.389886 C124.826742,110.389886 125.357824,110.792818 125.357824,111.598695 C124.805491,112.57423 124.338139,113.507336 123.955754,114.398042 C123.573369,115.288748 123.233477,116.137027 122.936067,116.942904 C122.468707,118.342584 122.235031,119.445347 122.235031,120.251223 C122.235031,121.438831 122.638654,122.032626 123.44591,122.032626 C124.253167,122.032626 125.230358,121.37521 126.377512,120.060359 C127.567153,118.745507 128.5231,117.091364 129.245383,115.097879 C128.5231,113.613369 128.268181,111.916812 128.480617,110.008157 C128.693053,107.25121 129.542784,105.872757 131.029836,105.872757 C131.624656,105.872757 132.10263,106.159051 132.463771,106.731648 C132.824912,107.304244 132.962993,108.078299 132.878019,109.053834 Z M160.130125,118.02447 C158.152574,119.805873 157.605456,120.017936 154.291455,121.714519 C150.637557,123.623174 147.451066,124.577488 144.731886,124.577488 C140.780577,124.577488 138.804952,122.414377 138.804952,118.088091 C138.804952,116.518752 139.336034,114.652539 140.398214,112.489396 C141.460394,110.19901 142.79872,108.290383 144.413233,106.763458 C146.240182,105.024461 147.960888,104.154976 149.575401,104.154976 C151.69976,104.154976 152.761924,105.194117 152.761924,107.272431 C152.761924,108.544868 152.209599,109.902114 151.104932,111.344209 C149.150521,113.761839 146.303922,115.437189 142.56505,116.37031 C142.395101,117.091358 142.310128,117.854808 142.310128,118.660685 C142.310128,121.544876 143.648454,122.986949 146.325147,122.986949 C148.449507,122.986949 151.083673,122.117464 154.227725,120.378467 C155.672289,119.57259 158.515617,118.066888 159.237899,117.261011 C160.045155,116.41272 160.448778,116.370306 160.448778,117.133768 C160.448778,117.388256 160.342561,117.685153 160.130125,118.02447 Z M149.830323,110.389886 C150.637579,109.03262 151.041202,107.866237 151.041202,106.890701 C151.041202,106.127239 150.786282,105.745514 150.276436,105.745514 C149.384205,105.745514 148.152095,106.784655 146.580069,108.862969 C145.05053,110.983697 143.839663,113.104394 142.947433,115.225122 C146.30392,114.164758 148.598194,112.553029 149.830323,110.389886 Z M191.063933,116.561175 C186.390343,120.590558 182.396607,123.199015 179.082606,124.386623 C177.340631,125.022842 175.874845,125.340946 174.685204,125.340946 C171.668614,125.340946 170.139098,123.729217 170.096611,120.50571 C170.011636,118.130494 171.01007,115.119105 173.091942,111.471452 C172.029763,111.598696 171.031329,111.259384 170.096611,110.453507 C169.20438,109.605216 168.779514,108.650903 168.822001,107.590538 C167.080026,110.85646 165.720304,112.955939 162.108893,115.924959 C161.811483,116.221861 161.47159,116.37031 161.089206,116.37031 C160.834282,116.37031 159.942448,116.90049 159.942448,116.688418 C159.942448,116.476345 160.008857,116.497553 161.18782,115.352365 C164.125491,112.498853 165.699198,110.093006 167.866044,105.936378 C167.696095,105.469818 167.611122,105.130507 167.611122,104.918434 C167.483661,104.367045 167.419931,103.77325 167.419931,103.137031 C167.419931,101.525277 167.887283,100.231653 168.822001,99.2561175 C169.629258,98.3654115 170.542719,97.9200653 171.562411,97.9200653 C172.79454,97.9200653 173.431838,98.5138603 173.474325,99.7014682 C173.601787,101.355636 172.475893,103.603575 170.096611,106.445351 C170.054123,107.760202 170.733908,108.417618 172.135985,108.417618 C172.645832,108.417618 173.293752,108.30098 174.079765,108.0677 C174.865778,107.83442 175.428724,107.717781 175.768622,107.717781 C177.043238,107.717781 177.680536,108.35399 177.680536,109.626427 C177.680536,110.092988 177.51059,110.623162 177.170692,111.216966 C176.958256,111.556282 176.692715,112.033439 176.374061,112.64845 C176.055407,113.263461 175.704893,113.995102 175.322509,114.843393 C174.472765,116.709634 173.941683,118.109294 173.729247,119.042414 C173.601785,119.636218 173.538056,120.166392 173.538056,120.632953 C173.538056,122.37195 174.366543,123.241436 176.023544,123.241436 C178.105416,123.241436 180.697096,122.329536 183.79866,120.50571 C185.15825,119.742247 186.39036,118.946986 187.495027,118.119902 C188.599694,117.292818 189.576885,116.455143 190.426629,115.606852 C190.809013,115.22512 191.127663,115.034258 191.382586,115.034258 C191.637509,115.034258 191.764969,115.1615 191.764969,115.415987 C191.764969,115.712889 191.531293,116.094614 191.063933,116.561175 Z M195.779988,122.096248 C194.122987,121.544859 192.699688,120.675373 191.510047,119.487765 C191.510047,120.378471 191.818074,121.110111 192.434138,121.682708 C193.050203,122.255305 193.719366,122.541599 194.441648,122.541599 C195.036469,122.541599 195.482577,122.39315 195.779988,122.096248 Z M204.31987,121.141925 C207.931281,120.251219 211.032799,118.342592 213.624518,115.415987 C213.69973,115.303362 213.787423,115.215658 213.887599,115.152877 C214.013779,115.073797 213.5472,115.924959 213.363094,117.335869 C210.124638,120.259061 207.046525,121.973082 204.128679,122.477977 C201.919345,122.859708 199.858747,122.902122 197.946824,122.60522 C197.309516,123.750414 196.332325,124.323002 195.015222,124.323002 C194.038017,124.323002 193.145799,124.015501 192.338543,123.400489 C191.531286,122.785478 191.021448,122.032631 190.809012,121.141925 C190.341652,119.445342 190.277923,118.427408 190.61782,118.088091 C190.660307,117.536702 190.915227,117.261011 191.382586,117.261011 C191.510047,117.261011 191.616264,117.303425 191.701238,117.388254 C192.933367,118.872764 194.505369,119.996734 196.417292,120.760196 C196.45978,120.251221 196.374807,119.593805 196.162371,118.787928 C195.992422,118.236539 195.790611,117.727572 195.556931,117.261011 C195.323252,116.794451 195.057711,116.349105 194.7603,115.924959 C193.145787,113.719402 192.444759,111.49267 192.657195,109.244698 C193.03958,104.748754 196.056125,101.461674 201.706921,99.3833605 C203.576357,98.7047274 205.360793,98.4714508 207.06028,98.6835237 C208.972204,98.9380111 209.928151,99.9771524 209.928151,101.800979 C209.928151,103.158245 209.482042,104.473077 208.589811,105.745514 C208.207427,106.254489 207.867534,106.572593 207.570124,106.699837 C207.272713,106.742251 207.124011,106.61501 207.124011,106.318108 C207.124011,106.148449 207.230227,105.851552 207.442663,105.427406 C207.910022,104.579115 208.143698,103.858078 208.143698,103.264274 C208.143698,102.20391 207.44267,101.673736 206.040593,101.673736 C205.870644,101.673736 205.690076,101.684339 205.498884,101.705546 C205.307691,101.726754 205.10588,101.758564 204.893444,101.800979 C200.262341,102.64927 197.160822,105.321348 195.588796,109.817292 C195.37636,110.580754 195.270144,111.23817 195.270144,111.78956 C195.270144,112.977167 195.779983,114.419241 196.799675,116.115824 C197.861855,117.854821 198.41418,119.233274 198.456667,120.251223 L198.456667,120.823817 C198.456667,120.993476 198.435424,121.163131 198.392937,121.33279 C200.30486,121.714521 202.280485,121.6509 204.31987,121.141925 Z M231.844018,118.425574 C227.440752,122.399624 223.130826,124.386623 218.914147,124.386623 C215.175274,124.386623 213.305866,122.371961 213.305866,118.342577 C213.305866,115.712874 214.644192,112.80752 217.320885,109.626427 C220.210014,106.233262 222.97164,104.536705 225.605845,104.536705 C227.772692,104.536705 228.856099,105.512225 228.856099,107.463295 C228.856099,108.141928 228.60118,109.011414 228.091333,110.071778 C227.878898,110.538338 227.666465,110.930667 227.454029,111.248777 C227.241593,111.566886 227.050403,111.831973 226.880455,112.044046 C226.668019,112.256119 226.498072,112.362153 226.370611,112.362153 C225.945739,112.362153 225.903252,112.044049 226.24315,111.40783 C226.710509,110.559539 226.944185,109.859709 226.944185,109.30832 C226.944185,108.502443 226.45559,108.099511 225.478384,108.099511 C224.203769,108.099511 222.907929,108.608478 221.590826,109.626427 C220.741082,110.262646 219.976324,110.983683 219.296529,111.78956 C218.616734,112.595436 218.043166,113.422508 217.575807,114.270799 C217.108448,115.119091 216.73669,115.967369 216.460524,116.815661 C216.184357,117.663952 216.046276,118.469817 216.046276,119.233279 C216.046276,121.693324 217.320872,122.923328 219.870104,122.923328 C221.229694,122.923328 222.865426,122.541603 224.777349,121.77814 C227.369068,120.717776 230.259634,118.533457 233.19125,115.479608 C232.641445,116.497553 232.083153,117.642741 231.844018,118.425574 Z M257.559462,119.477481 C253.959226,122.580001 250.806991,123.983091 248.102699,123.686786 C246.955545,123.559543 245.893382,122.859713 244.916176,121.587276 C243.938971,120.14518 243.344159,118.342588 243.131723,116.179445 C242.324467,117.282224 241.5066,118.289555 240.6781,119.201468 C239.8496,120.113381 238.968004,120.951057 238.033286,121.714519 C236.333798,123.071785 234.931742,123.750408 233.827075,123.750408 C232.255049,123.750408 231.469048,122.75368 231.469048,120.760196 C231.469048,119.063613 232.147229,117.176192 233.33687,115.352365 C236.098537,111.153323 239.116687,108.375212 242.558149,106.763458 C244.045201,106.084825 245.426014,105.745514 246.700629,105.745514 C247.040527,105.745514 247.412284,105.798531 247.815912,105.904568 C248.219541,106.010604 248.60192,106.159053 248.963061,106.349918 C249.324202,106.540784 249.621608,106.763457 249.855287,107.017945 C250.088967,107.272432 250.205805,107.569329 250.205805,107.908646 C250.205805,108.03589 250.131453,108.152528 249.982748,108.258564 C249.834043,108.364601 249.664097,108.449429 249.472904,108.513051 C249.281712,108.576672 249.101144,108.650897 248.931195,108.735726 C248.761247,108.820555 248.676274,108.884176 248.676274,108.926591 C247.104248,111.768367 246.318246,114.482858 246.318246,117.070147 C246.318246,120.293654 247.5716,121.905383 250.078344,121.905383 C252.540922,121.905383 255.578989,120.07056 259.192628,116.400862 C258.809417,117.070147 258.164608,118.342577 257.559462,119.477481 Z M244.916176,107.972268 C241.389739,107.887438 238.351951,110.347446 235.80272,115.352365 C235.080437,116.709632 234.719302,117.918429 234.719302,118.978793 C234.719302,120.123986 235.122924,120.696574 235.930181,120.696574 C236.69495,120.696574 237.693384,120.187607 238.925512,119.169657 C241.134846,117.303416 242.579389,115.437203 243.259184,113.570962 C243.556594,111.450234 244.10892,109.584021 244.916176,107.972268 Z M283.345646,88.6949429 C281.008851,93.4029599 275.974195,99.1500476 268.241526,105.936378 C270.70649,105.975438 272.739049,106.005505 274.339253,106.026579 C274.377882,106.027088 274.136196,106.775236 274.07049,107.017945 C274.004784,107.260653 273.722346,108.163132 273.722346,108.163132 C273.722346,108.163132 269.622369,108.247961 266.520804,108.290375 C265.161214,110.962493 263.472373,114.228366 261.454232,118.088091 C259.43609,121.947817 249.046222,141.422487 246.284554,146.512235 C243.735323,150.838521 241.016184,154.06198 238.127055,156.182708 C234.72808,158.727582 230.776831,160 226.273189,160 C223.723957,160 221.727089,159.278963 220.282525,157.836868 C218.922935,156.564431 218.24315,154.973908 218.24315,153.065253 C218.24315,151.199012 218.922935,149.544869 220.282525,148.102773 C220.452474,147.848286 220.664906,147.721044 220.91983,147.721044 C221.174753,147.721044 221.302212,147.869493 221.302212,148.166395 C221.302212,148.336053 221.195996,148.56933 220.98356,148.866232 C220.006355,149.841767 219.517759,151.135392 219.517759,152.747145 C219.517759,154.401313 220.027598,155.758559 221.04729,156.818923 C222.194445,158.09136 223.78769,158.727569 225.827075,158.727569 C228.801179,158.727569 231.92394,157.476358 235.195454,154.973899 C238.339506,152.471439 241.143618,149.141946 243.607875,144.985318 C245.817209,141.252836 255.888428,122.584031 257.821595,118.978793 C259.754762,115.373555 261.571062,111.76837 263.27055,108.163132 C262.293345,108.205547 261.571073,108.226754 261.103714,108.226754 L260.46641,108.226754 C259.149307,108.184339 258.427035,107.781407 258.299574,107.017945 C258.172112,106.381726 258.618221,106.063622 259.637914,106.063622 L264.162777,106.063622 C265.649828,102.7977 266.89256,100.104415 267.891009,97.9836868 C268.889458,95.8629584 269.664837,94.272436 270.217171,93.2120718 C271.661735,90.4551249 273.042548,88.1011517 274.359651,86.1500816 C275.676754,84.1990115 276.95135,82.629696 278.183479,81.4420881 C279.500582,80.2120656 280.647719,79.5970636 281.624924,79.5970636 C283.49436,79.5970636 284.429064,81.0815512 284.429064,84.050571 C284.429064,85.61991 284.067929,87.1680185 283.345646,88.6949429 Z M281.433732,87.6133768 C282.240989,85.9592087 282.644611,84.517135 282.644611,83.2871126 C282.644611,82.4812358 282.432179,82.0783034 282.007307,82.0783034 C281.072589,82.0783034 279.691776,83.6900328 277.864826,86.91354 C276.2928,89.6704869 274.688933,92.5652377 273.053176,95.5978793 C271.41742,98.6305209 269.707336,101.822169 267.922874,105.17292 C274.338439,99.1076369 278.842014,93.2545143 281.433732,87.6133768 Z M298.95961,88.6949429 C296.622815,93.4029599 291.588159,99.1500476 283.85549,105.936378 C286.532183,105.978793 288.698997,106.010603 290.355998,106.031811 C292.012998,106.053018 293.138892,106.042415 293.733712,106 C294.37102,106.212073 294.689669,106.487763 294.689669,106.82708 C294.689669,107.463298 293.924911,107.866231 292.395372,108.035889 C292.055475,108.078304 291.035798,108.120718 289.33631,108.163132 C287.636823,108.205547 285.236332,108.247961 282.134768,108.290375 C280.775178,110.962493 279.086337,114.228366 277.068196,118.088091 C275.050054,121.947817 264.660186,141.422487 261.898518,146.512235 C259.349287,150.838521 256.630148,154.06198 253.741019,156.182708 C250.342044,158.727582 246.390794,160 241.887152,160 C239.337921,160 237.341053,159.278963 235.896489,157.836868 C234.536899,156.564431 233.857114,154.973908 233.857114,153.065253 C233.857114,151.199012 234.536899,149.544869 235.896489,148.102773 C236.066437,147.848286 236.27887,147.721044 236.533793,147.721044 C236.788717,147.721044 236.916176,147.869493 236.916176,148.166395 C236.916176,148.336053 236.80996,148.56933 236.597524,148.866232 C235.620319,149.841767 235.131723,151.135392 235.131723,152.747145 C235.131723,154.401313 235.641562,155.758559 236.661254,156.818923 C237.808408,158.09136 239.401654,158.727569 241.441039,158.727569 C244.415142,158.727569 247.537904,157.476358 250.809417,154.973899 C253.953469,152.471439 256.757582,149.141946 259.221839,144.985318 C261.431173,141.252836 271.502392,122.584031 273.435559,118.978793 C275.368726,115.373555 277.185026,111.76837 278.884514,108.163132 C277.907309,108.205547 273.722346,108.163132 273.722346,108.163132 C274.088383,107.081566 274.339253,106.026579 274.339253,106.026579 L279.77674,106.063622 C281.263792,102.7977 282.506524,100.104415 283.504973,97.9836868 C284.503422,95.8629584 285.278801,94.272436 285.831135,93.2120718 C287.275699,90.4551249 288.656512,88.1011517 289.973615,86.1500816 C291.290718,84.1990115 292.565314,82.629696 293.797443,81.4420881 C295.114546,80.2120656 296.261682,79.5970636 297.238888,79.5970636 C299.108324,79.5970636 300.043028,81.0815512 300.043028,84.050571 C300.043028,85.61991 299.681893,87.1680185 298.95961,88.6949429 Z M297.047696,87.6133768 C297.854953,85.9592087 298.258575,84.517135 298.258575,83.2871126 C298.258575,82.4812358 298.046142,82.0783034 297.621271,82.0783034 C296.686552,82.0783034 295.305739,83.6900328 293.47879,86.91354 C291.906764,89.6704869 290.302897,92.5652377 288.66714,95.5978793 C287.031383,98.6305209 285.3213,101.822169 283.536838,105.17292 C289.952403,99.1076369 294.455978,93.2545143 297.047696,87.6133768 Z M313.681348,116.37031 C312.151809,118.236551 309.730075,120.017936 306.416075,121.714519 C302.762176,123.623174 299.575685,124.577488 296.856505,124.577488 C292.905196,124.577488 290.929572,122.414377 290.929572,118.088091 C290.929572,116.518752 291.460654,114.652539 292.522833,112.489396 C293.585013,110.19901 294.923339,108.290383 296.537853,106.763458 C298.364802,105.024461 300.085507,104.154976 301.70002,104.154976 C303.82438,104.154976 304.886544,105.194117 304.886544,107.272431 C304.886544,108.544868 304.334218,109.902114 303.229551,111.344209 C301.275141,113.761839 298.428542,115.437189 294.689669,116.37031 C294.51972,117.091358 294.434747,117.854808 294.434747,118.660685 C294.434747,121.544876 295.773074,122.986949 298.449767,122.986949 C300.574126,122.986949 303.208292,122.117464 306.352344,120.378467 C307.796909,119.57259 309.050262,118.777329 310.112442,117.992659 C311.174621,117.20799 312.066839,116.412728 312.789121,115.606852 C313.596378,114.75856 314,114.716146 314,115.479608 C314,115.734096 313.893784,116.030993 313.681348,116.37031 Z M301.954942,110.389886 C302.762199,109.03262 303.165821,107.866237 303.165821,106.890701 C303.165821,106.127239 302.910902,105.745514 302.401055,105.745514 C301.508824,105.745514 300.276714,106.784655 298.704688,108.862969 C297.17515,110.983697 295.964283,113.104394 295.072052,115.225122 C298.42854,114.164758 300.722814,112.553029 301.954942,110.389886 Z" id="Flowerscaffe-Copy" fill="#292929"></path>
                                        <g id="Group-10" transform="translate(104.000000, 0.000000)">
                                            <g id="Слой_1">
                                                <path d="M59,56.8905216 C69.3439036,45.6701002 84.876878,41.1509731 97.0257949,45.8262628 C105.598923,49.1262256 106.122076,51.7974284 99.3991545,57.9576329 C87.2420205,69.0958634 68.2592523,68.5944992 59,56.8905216 Z M95.4348725,53.3427321 C95.4348725,49.9493178 90.0673182,49.0495141 87.9254057,48.7686954 C78.1197192,47.4728196 69.6287616,51.0645599 61.877339,57.0096983 C71.3173665,60.5343161 95.4348725,56.7361464 95.4348725,53.3427321 Z" id="Shape" fill="#E63A5C"></path>
                                                <path d="M-2.42216629e-08,55.8905216 C10.3439036,44.6701002 25.876878,40.1509731 38.0257949,44.8262628 C46.598923,48.1262256 47.1220756,50.7974284 40.3991545,56.9576329 C28.2420205,68.0958634 9.25925227,67.5944992 -2.42216629e-08,55.8905216 Z M36.4348725,52.3427321 C37.8523146,50.681107 31.0673182,48.0495141 28.9254057,47.7686954 C19.1197192,46.4728196 10.6287616,50.0645599 2.87733899,56.0096983 C12.3173665,59.5343161 35.4911694,57.8643688 36.4348725,52.3427321 Z" id="Shape" fill="#E63A5C" transform="translate(22.500000, 54.000000) scale(-1, 1) translate(-22.500000, -54.000000) "></path>
                                                <path d="M74.6259772,78.4857125 C82.1493537,81.8947314 83.9408333,80.0098312 81.3689689,72.6605075 C87.2533306,74.8737471 92.8763823,83.4931207 91.8859282,87.4283653 C90.8954741,91.3636099 83.1200874,90.7457667 73.6698165,85.8267396 C64.2195456,80.9077125 55.8094412,70.6291414 54,68 C54,68 68.0871794,75.5228293 74.6259772,78.4857125 Z" id="Shape" fill="#E63A5C"></path>
                                                <path d="M48,68 C41.768374,77.0627001 36.6114974,84.6258842 25.8311989,87.4522041 C23.6204225,88.0319278 19.1907258,88.5980785 17.2688262,86.63952 C15.3469265,84.6809615 15.8870909,81.1421871 17.0546572,79.3186684 C19.467167,75.545779 23.0541517,72.4771265 26.1589108,69.1179428 C26.1589108,69.1179428 21.9677487,78.0158388 24.6997984,80.6720312 C27.431848,83.3282236 48,68 48,68 Z" id="Shape" fill="#E63A5C"></path>
                                                <path d="M56.4686287,20 C65.7959558,30.9530378 64.5868053,46.9110016 56.3027781,52 C57.1320313,47.2039409 58.6728831,42.6246305 58.4474963,38.1215107 C58.2915683,34.9990148 57.043002,28.9142857 54.1949155,28.9142857 C51.3468291,28.9142857 48.0882096,34.1963875 47.2362759,37.3477833 C46.0342131,41.7891626 46.9329251,46.7178982 46.9329251,50.2305419 C40.7652655,41.4279146 44.503284,27.3655172 56.4686287,20 Z" id="Shape" fill="#E63A5C"></path>
                                                <path d="M61,21.7018854 C61.4597031,16.5147366 66.437821,9.04988908 69.6690672,9.00028877 C72.9336252,8.95068845 75.5799159,15.2982236 74.8896951,22.3349421 C74.1435104,29.9407589 72.6804554,37.3638378 66.508442,43 C67.7449766,38.0399684 73.8057861,19.545654 69.6690672,18.6445502 C65.5323483,17.7434464 61,21.7018854 61,21.7018854 Z" id="Shape" fill="#E63A5C"></path>
                                                <path d="M30,21.7018854 C30.4597031,16.5147366 35.437821,9.04988908 38.6690672,9.00028877 C41.9336252,8.95068845 44.5799159,15.2982236 43.8896951,22.3349421 C43.1435104,29.9407589 41.6804554,37.3638378 35.508442,43 C36.7449766,38.0399684 42.8057861,19.545654 38.6690672,18.6445502 C34.5323483,17.7434464 30,21.7018854 30,21.7018854 Z" id="Shape-Copy" fill="#E63A5C" transform="translate(37.000000, 26.000000) scale(1, -1) rotate(181.000000) translate(-37.000000, -26.000000) "></path>
                                                <path d="M47,14 C47,9.57803849 47.8599068,-8.15166812e-15 52.6629513,0 C57.4659959,7.97558517e-15 59.5058666,9.34163416 58.8944085,14 C58.8944085,14 56.1832632,6.95909286 53.3467574,7 C50.5102516,7.04090714 47,14 47,14 Z" id="Shape" fill="#E63A5C"></path>
                                                <polygon id="Shape" fill="#7ED321" points="52.4576703 93 51 81.3797827 53.3577339 81 55 92.5606991"></polygon>
                                            </g>
                                            <path d="M130.44519,155.474243 L131.416992,154.794556 L132.864136,156.983887 C132.864136,156.983887 132.558616,158.003269 132.288143,158.134391 C132.017669,158.265513 132.014404,157.758667 132.014404,157.758667 C132.014404,157.758667 130.8789,157.609472 130.574081,157.226654 C130.269262,156.843836 130.44519,155.474243 130.44519,155.474243 Z" id="Path-3" fill="#292929"></path>
                                            <path d="M53,118.76088 C53,118.76088 55.9536707,116.473487 56.7488702,115.718556 C57.5440697,114.963625 59.4644372,113 59.4644372,113 L61,113.095883 C61,113.095883 59.7553126,114.534621 58.5081694,115.790244 C57.2610261,117.045867 54.8524647,119 54.8524647,119 L53,118.76088 Z" id="Path-4" fill="#292929"></path>
                                        </g>
                                    </g>
                                </g>
                            </g>
                        </g>
                    </g>
                </g>
            </g>
        </g>
    </g>
</svg>